<svg xmlns="http://www.w3.org/2000/svg" xmlns:xlink="http://www.w3.org/1999/xlink" width="300" zoomAndPan="magnify" viewBox="0 0 224.87999 225" height="300" preserveAspectRatio="xMidYMid meet" version="1.0"><defs><clipPath id="b60d622acf"><path d="M 0 0.0585938 L 224.761719 0.0585938 L 224.761719 224.9375 L 0 224.9375 Z M 0 0.0585938 " clip-rule="nonzero"/></clipPath><clipPath id="ac99a9af6e"><path d="M 92.089844 44.65625 L 119.824219 44.65625 L 119.824219 72.390625 L 92.089844 72.390625 Z M 92.089844 44.65625 " clip-rule="nonzero"/></clipPath><clipPath id="8d313253e6"><path d="M 124.375 76.464844 L 153.652344 76.464844 L 153.652344 98.109375 L 124.375 98.109375 Z M 124.375 76.464844 " clip-rule="nonzero"/></clipPath><clipPath id="82b626d181"><path d="M 115.464844 77.0625 L 147.828125 77.0625 L 147.828125 106.449219 L 115.464844 106.449219 Z M 115.464844 77.0625 " clip-rule="nonzero"/></clipPath><clipPath id="5e69d8add9"><path d="M 24.417969 55.75 L 91.882812 55.75 L 91.882812 141.203125 L 24.417969 141.203125 Z M 24.417969 55.75 " clip-rule="nonzero"/></clipPath><clipPath id="e6e93b94bd"><path d="M 112.527344 112.5 L 146.261719 112.5 L 146.261719 145.480469 L 112.527344 145.480469 Z M 112.527344 112.5 " clip-rule="nonzero"/></clipPath><clipPath id="6850d99e5b"><path d="M 40 108 L 73 108 L 73 141 L 40 141 Z M 40 108 " clip-rule="nonzero"/></clipPath><clipPath id="5920a9390e"><path d="M 62.355469 102.226562 L 79.433594 129.566406 L 50.824219 147.4375 L 33.746094 120.097656 Z M 62.355469 102.226562 " clip-rule="nonzero"/></clipPath><clipPath id="52c1507da9"><path d="M 62.355469 102.226562 L 79.433594 129.566406 L 50.824219 147.4375 L 33.746094 120.097656 Z M 62.355469 102.226562 " clip-rule="nonzero"/></clipPath><clipPath id="b5a3e2e5c0"><path d="M 62.355469 102.226562 L 79.433594 129.566406 L 50.824219 147.4375 L 33.746094 120.097656 Z M 62.355469 102.226562 " clip-rule="nonzero"/></clipPath><clipPath id="6bc6a7e10e"><path d="M 9.320312 35.574219 L 197.46875 35.574219 L 197.46875 189.242188 L 9.320312 189.242188 Z M 9.320312 35.574219 " clip-rule="nonzero"/></clipPath><clipPath id="db093265d6"><path d="M 145.832031 114.40625 L 215.542969 114.40625 L 215.542969 184.117188 L 145.832031 184.117188 Z M 145.832031 114.40625 " clip-rule="nonzero"/></clipPath><clipPath id="806fb6b8e4"><path d="M 160.460938 128.8125 L 203.191406 128.8125 L 203.191406 171.539062 L 160.460938 171.539062 Z M 160.460938 128.8125 " clip-rule="nonzero"/></clipPath><clipPath id="975bd43905"><path d="M 159.160156 95.882812 L 186.898438 95.882812 L 186.898438 106 L 159.160156 106 Z M 159.160156 95.882812 " clip-rule="nonzero"/></clipPath><clipPath id="bfbde89501"><path d="M 180 101 L 186.898438 101 L 186.898438 107.128906 L 180 107.128906 Z M 180 101 " clip-rule="nonzero"/></clipPath><clipPath id="68a60e8adb"><path d="M 159.160156 69.078125 L 186.839844 69.078125 L 186.839844 79 L 159.160156 79 Z M 159.160156 69.078125 " clip-rule="nonzero"/></clipPath><clipPath id="100ba0d311"><path d="M 159.160156 74 L 166 74 L 166 80.324219 L 159.160156 80.324219 Z M 159.160156 74 " clip-rule="nonzero"/></clipPath><clipPath id="18f0d391fe"><path d="M 164.015625 45.996094 L 181.996094 45.996094 L 181.996094 65 L 164.015625 65 Z M 164.015625 45.996094 " clip-rule="nonzero"/></clipPath><clipPath id="c041daba0e"><path d="M 173.003906 45.996094 C 168.039062 45.996094 164.015625 50.246094 164.015625 55.488281 C 164.015625 60.726562 168.039062 64.976562 173.003906 64.976562 C 177.972656 64.976562 181.996094 60.726562 181.996094 55.488281 C 181.996094 50.246094 177.972656 45.996094 173.003906 45.996094 Z M 173.003906 45.996094 " clip-rule="nonzero"/></clipPath></defs><g clip-path="url(#b60d622acf)"><path fill="#ffffff" d="M 0 0.0585938 L 224.878906 0.0585938 L 224.878906 224.941406 L 0 224.941406 Z M 0 0.0585938 " fill-opacity="1" fill-rule="nonzero"/><path fill="#ffffff" d="M 0 0.0585938 L 224.878906 0.0585938 L 224.878906 224.941406 L 0 224.941406 Z M 0 0.0585938 " fill-opacity="1" fill-rule="nonzero"/></g><path fill="#100f0d" d="M 112.90625 55.8125 C 112.859375 55.871094 112.808594 55.902344 112.746094 55.902344 C 112.703125 55.902344 112.667969 55.878906 112.644531 55.835938 C 112.617188 55.792969 112.605469 55.734375 112.605469 55.671875 C 112.605469 55.589844 112.621094 55.523438 112.660156 55.476562 C 112.695312 55.425781 112.738281 55.398438 112.792969 55.398438 C 112.839844 55.398438 112.878906 55.417969 112.917969 55.453125 C 112.953125 55.492188 112.972656 55.542969 112.972656 55.605469 C 112.972656 55.683594 112.949219 55.75 112.90625 55.8125 Z M 113.410156 56.476562 C 113.46875 56.449219 113.5 56.382812 113.472656 56.324219 C 113.449219 56.261719 113.378906 56.234375 113.320312 56.257812 C 113.160156 56.328125 113.007812 56.359375 112.855469 56.359375 C 112.617188 56.359375 112.429688 56.289062 112.300781 56.140625 C 112.167969 55.996094 112.101562 55.824219 112.101562 55.628906 C 112.101562 55.414062 112.171875 55.238281 112.3125 55.09375 C 112.453125 54.953125 112.628906 54.878906 112.832031 54.878906 C 113.019531 54.878906 113.179688 54.9375 113.308594 55.054688 C 113.441406 55.171875 113.503906 55.320312 113.503906 55.5 C 113.503906 55.621094 113.472656 55.722656 113.414062 55.804688 C 113.355469 55.882812 113.292969 55.925781 113.230469 55.925781 C 113.195312 55.925781 113.179688 55.90625 113.179688 55.867188 C 113.179688 55.835938 113.179688 55.804688 113.183594 55.761719 L 113.25 55.191406 C 113.253906 55.160156 113.230469 55.132812 113.199219 55.132812 L 113.050781 55.132812 C 113.023438 55.132812 113.003906 55.152344 113 55.175781 L 112.988281 55.222656 C 112.925781 55.167969 112.855469 55.144531 112.777344 55.144531 C 112.65625 55.144531 112.554688 55.191406 112.46875 55.289062 C 112.382812 55.382812 112.335938 55.507812 112.335938 55.660156 C 112.335938 55.808594 112.375 55.929688 112.453125 56.019531 C 112.527344 56.109375 112.621094 56.15625 112.730469 56.15625 C 112.824219 56.15625 112.90625 56.117188 112.976562 56.035156 C 113.027344 56.113281 113.105469 56.152344 113.207031 56.152344 C 113.351562 56.152344 113.480469 56.085938 113.589844 55.957031 C 113.695312 55.832031 113.75 55.675781 113.75 55.492188 C 113.75 55.261719 113.660156 55.066406 113.484375 54.90625 C 113.308594 54.742188 113.089844 54.660156 112.828125 54.660156 C 112.554688 54.660156 112.320312 54.753906 112.125 54.9375 C 111.933594 55.121094 111.835938 55.351562 111.835938 55.628906 C 111.835938 55.890625 111.929688 56.117188 112.113281 56.304688 C 112.296875 56.496094 112.542969 56.589844 112.855469 56.589844 C 113.042969 56.589844 113.230469 56.554688 113.410156 56.476562 " fill-opacity="1" fill-rule="nonzero"/><path fill="#100f0d" d="M 96.664062 54.070312 C 96.894531 53.855469 97.230469 53.804688 97.542969 53.777344 C 98.1875 53.722656 98.835938 53.714844 99.484375 53.757812 C 99.914062 53.789062 100.394531 53.871094 100.644531 54.226562 C 100.917969 54.613281 100.785156 55.140625 100.824219 55.613281 C 100.878906 56.285156 101.304688 56.933594 101.160156 57.59375 C 101.03125 58.164062 100.515625 58.546875 100.164062 59.015625 C 100.101562 59.101562 100.042969 59.195312 100.035156 59.300781 C 100.023438 59.421875 100.085938 59.539062 100.148438 59.644531 C 100.789062 60.714844 101.699219 61.621094 102.765625 62.261719 C 102.882812 62.332031 103.011719 62.402344 103.144531 62.378906 C 103.234375 62.367188 103.316406 62.308594 103.386719 62.25 C 103.898438 61.855469 104.355469 61.292969 105 61.226562 C 105.546875 61.167969 106.058594 61.503906 106.605469 61.578125 C 107.195312 61.664062 107.886719 61.480469 108.320312 61.886719 C 108.546875 62.101562 108.621094 62.414062 108.648438 62.734375 C 108.660156 62.832031 108.660156 62.929688 108.664062 63.027344 C 108.679688 63.640625 108.671875 64.253906 108.644531 64.867188 C 108.632812 65.097656 108.617188 65.339844 108.503906 65.542969 C 108.25 65.992188 107.640625 66.0625 107.121094 66.046875 C 101.363281 65.855469 96.558594 60.933594 96.355469 55.203125 C 96.34375 54.796875 96.371094 54.347656 96.664062 54.070312 " fill-opacity="1" fill-rule="nonzero"/><path fill="#100f0d" d="M 110.390625 58.820312 L 110.394531 56.464844 L 111.996094 57.574219 Z M 110.714844 58.984375 L 112.789062 57.378906 L 114.871094 58.992188 Z M 115.1875 58.820312 L 113.589844 57.578125 L 115.191406 56.46875 Z M 115.066406 56.152344 L 114.683594 56.417969 L 114.683594 55.890625 Z M 114.355469 56.648438 L 113.316406 57.367188 L 112.890625 57.039062 C 112.832031 56.992188 112.75 56.992188 112.691406 57.035156 C 112.691406 57.039062 112.691406 57.039062 112.6875 57.039062 L 112.269531 57.363281 L 111.230469 56.640625 L 111.226562 54.199219 L 114.351562 54.199219 Z M 110.902344 56.410156 L 110.53125 56.152344 L 110.902344 55.898438 Z M 110.226562 59.316406 L 115.355469 59.316406 C 115.398438 59.316406 115.4375 59.304688 115.46875 59.273438 C 115.5 59.242188 115.515625 59.203125 115.515625 59.15625 L 115.523438 56.15625 C 115.523438 56.152344 115.523438 56.152344 115.523438 56.152344 C 115.519531 56.097656 115.496094 56.050781 115.453125 56.019531 L 114.683594 55.488281 L 114.679688 54.035156 C 114.679688 53.941406 114.609375 53.871094 114.515625 53.871094 L 111.0625 53.871094 C 110.972656 53.871094 110.898438 53.941406 110.898438 54.035156 L 110.898438 55.496094 L 110.136719 56.027344 C 110.105469 56.046875 110.082031 56.078125 110.074219 56.117188 C 110.070312 56.125 110.066406 56.140625 110.066406 56.152344 L 110.0625 59.148438 C 110.0625 59.242188 110.136719 59.3125 110.226562 59.316406 " fill-opacity="1" fill-rule="nonzero"/><path fill="#100f0d" d="M 108.109375 57.441406 C 108.074219 57.476562 108.023438 57.492188 107.976562 57.476562 C 107.90625 57.453125 107.867188 57.378906 107.890625 57.304688 C 107.96875 57.070312 108.007812 56.832031 108.007812 56.589844 C 108.007812 56.347656 107.964844 56.105469 107.886719 55.875 C 107.863281 55.804688 107.902344 55.726562 107.972656 55.707031 C 108.042969 55.679688 108.117188 55.71875 108.140625 55.789062 C 108.230469 56.050781 108.273438 56.320312 108.273438 56.589844 C 108.273438 56.859375 108.230469 57.128906 108.144531 57.390625 C 108.136719 57.410156 108.125 57.429688 108.109375 57.441406 " fill-opacity="1" fill-rule="nonzero"/><path fill="#100f0d" d="M 108.726562 57.613281 C 108.691406 57.644531 108.640625 57.660156 108.589844 57.644531 C 108.519531 57.621094 108.480469 57.546875 108.503906 57.476562 C 108.601562 57.1875 108.648438 56.886719 108.648438 56.589844 C 108.648438 56.289062 108.601562 55.992188 108.503906 55.703125 C 108.480469 55.632812 108.519531 55.558594 108.585938 55.535156 C 108.65625 55.511719 108.730469 55.550781 108.757812 55.617188 C 108.863281 55.933594 108.914062 56.261719 108.917969 56.589844 C 108.917969 56.917969 108.863281 57.242188 108.757812 57.558594 C 108.75 57.578125 108.742188 57.597656 108.726562 57.613281 " fill-opacity="1" fill-rule="nonzero"/><path fill="#100f0d" d="M 102.894531 57.617188 C 102.878906 57.632812 102.863281 57.644531 102.84375 57.652344 C 102.769531 57.671875 102.695312 57.636719 102.671875 57.566406 C 102.566406 57.25 102.515625 56.921875 102.511719 56.597656 C 102.511719 56.269531 102.566406 55.941406 102.671875 55.625 C 102.695312 55.558594 102.769531 55.519531 102.839844 55.542969 C 102.910156 55.566406 102.945312 55.640625 102.921875 55.710938 C 102.828125 56 102.78125 56.296875 102.78125 56.597656 C 102.78125 56.894531 102.828125 57.191406 102.925781 57.480469 C 102.941406 57.53125 102.929688 57.582031 102.894531 57.617188 " fill-opacity="1" fill-rule="nonzero"/><path fill="#100f0d" d="M 103.507812 57.449219 C 103.492188 57.464844 103.476562 57.476562 103.457031 57.480469 C 103.386719 57.503906 103.3125 57.464844 103.289062 57.398438 C 103.199219 57.136719 103.15625 56.867188 103.15625 56.597656 C 103.15625 56.324219 103.199219 56.054688 103.285156 55.792969 C 103.308594 55.726562 103.382812 55.6875 103.453125 55.710938 C 103.523438 55.734375 103.5625 55.808594 103.539062 55.878906 C 103.460938 56.113281 103.421875 56.355469 103.421875 56.597656 C 103.421875 56.835938 103.460938 57.078125 103.542969 57.3125 C 103.558594 57.363281 103.542969 57.414062 103.507812 57.449219 " fill-opacity="1" fill-rule="nonzero"/><path fill="#100f0d" d="M 106.808594 58.34375 L 104.621094 58.347656 L 104.617188 54.371094 L 106.804688 54.367188 Z M 105.394531 58.859375 C 105.394531 58.78125 105.453125 58.722656 105.527344 58.722656 L 105.90625 58.722656 C 105.980469 58.722656 106.039062 58.78125 106.039062 58.855469 C 106.039062 58.894531 106.023438 58.925781 106 58.949219 C 105.976562 58.976562 105.941406 58.988281 105.90625 58.988281 L 105.527344 58.988281 C 105.453125 58.988281 105.394531 58.929688 105.394531 58.859375 Z M 107.226562 59.230469 C 107.300781 59.15625 107.34375 59.054688 107.34375 58.949219 L 107.335938 54.230469 C 107.335938 54.125 107.292969 54.023438 107.21875 53.949219 C 107.144531 53.871094 107.042969 53.832031 106.933594 53.832031 L 104.480469 53.832031 C 104.269531 53.832031 104.082031 54.019531 104.082031 54.234375 L 104.089844 58.953125 C 104.089844 59.058594 104.132812 59.160156 104.207031 59.234375 C 104.285156 59.3125 104.382812 59.351562 104.492188 59.351562 L 106.945312 59.347656 C 107.050781 59.347656 107.152344 59.308594 107.226562 59.230469 " fill-opacity="1" fill-rule="nonzero"/><path fill="#100f0d" d="M 105.523438 54.628906 L 105.902344 54.628906 C 105.972656 54.628906 106.035156 54.6875 106.035156 54.761719 C 106.035156 54.796875 106.019531 54.832031 105.996094 54.855469 C 105.972656 54.878906 105.9375 54.894531 105.902344 54.894531 L 105.523438 54.894531 C 105.449219 54.894531 105.390625 54.835938 105.390625 54.761719 C 105.390625 54.6875 105.449219 54.628906 105.523438 54.628906 " fill-opacity="1" fill-rule="nonzero"/><path fill="#100f0d" d="M 105.066406 54.667969 C 105.117188 54.71875 105.117188 54.804688 105.066406 54.855469 C 105.015625 54.90625 104.929688 54.90625 104.878906 54.855469 C 104.824219 54.804688 104.824219 54.71875 104.878906 54.667969 C 104.929688 54.613281 105.015625 54.613281 105.066406 54.667969 " fill-opacity="1" fill-rule="nonzero"/><g clip-path="url(#ac99a9af6e)"><path fill="#100f0d" d="M 92.742188 58.5 C 92.742188 51.214844 98.644531 45.308594 105.933594 45.308594 C 113.226562 45.308594 119.132812 51.214844 119.132812 58.5 C 119.132812 65.792969 113.226562 71.699219 105.933594 71.699219 C 98.644531 71.699219 92.742188 65.792969 92.742188 58.5 Z M 92.078125 58.5 C 92.078125 66.15625 98.28125 72.363281 105.933594 72.363281 C 113.59375 72.363281 119.796875 66.15625 119.796875 58.5 C 119.796875 50.847656 113.59375 44.644531 105.933594 44.644531 C 98.28125 44.644531 92.078125 50.847656 92.078125 58.5 " fill-opacity="1" fill-rule="nonzero"/></g><g clip-path="url(#8d313253e6)"><path fill="#1f2124" d="M 151.738281 94.488281 C 151.738281 94.59375 151.726562 94.699219 151.707031 94.800781 L 143.410156 86.519531 L 151.234375 81.054688 C 151.429688 80.917969 151.59375 80.757812 151.738281 80.582031 Z M 139.691406 86.789062 C 139.480469 86.933594 139.234375 87.007812 138.988281 87.007812 C 138.746094 87.007812 138.5 86.933594 138.289062 86.789062 L 127.839844 79.492188 C 127.347656 79.148438 127.59375 78.375 128.195312 78.375 L 149.785156 78.375 C 150.386719 78.375 150.632812 79.148438 150.136719 79.492188 Z M 150.042969 76.464844 L 127.9375 76.464844 C 126.144531 76.464844 124.652344 77.777344 124.375 79.488281 L 126.238281 81.0625 L 126.238281 80.582031 C 126.382812 80.757812 126.550781 80.917969 126.746094 81.054688 L 134.570312 86.519531 L 130.058594 91.023438 C 130.527344 91.457031 131.011719 91.875 131.503906 92.28125 L 136.160156 87.632812 L 137.191406 88.351562 C 137.722656 88.722656 138.34375 88.917969 138.988281 88.917969 C 139.636719 88.917969 140.257812 88.722656 140.785156 88.351562 L 141.816406 87.632812 L 150.355469 96.148438 C 150.253906 96.167969 150.148438 96.179688 150.042969 96.179688 L 144.144531 96.179688 L 146.414062 98.089844 L 150.042969 98.089844 C 152.035156 98.089844 153.652344 96.472656 153.652344 94.488281 L 153.652344 80.066406 C 153.652344 78.082031 152.035156 76.464844 150.042969 76.464844 " fill-opacity="1" fill-rule="nonzero"/></g><g clip-path="url(#82b626d181)"><path fill="#1f2124" d="M 145.882812 100.460938 C 145.902344 100.679688 145.835938 100.890625 145.691406 101.0625 L 143.925781 103.152344 C 143.132812 104.078125 142.097656 104.542969 140.820312 104.542969 C 139.765625 104.542969 138.546875 104.226562 137.171875 103.589844 C 129.980469 99.90625 123.621094 94.546875 118.792969 88.089844 C 116.640625 84.644531 117.398438 82.171875 118.09375 81.351562 L 119.863281 79.265625 C 120.007812 79.09375 120.207031 78.988281 120.417969 78.976562 C 120.445312 78.976562 120.46875 78.976562 120.496094 78.976562 C 120.695312 78.976562 120.878906 79.042969 121.03125 79.167969 L 125.171875 82.660156 C 125.34375 82.8125 125.804688 83.195312 124.886719 85.789062 C 124.503906 86.867188 124.683594 88.003906 125.355469 88.824219 C 128.15625 92.21875 131.511719 95.050781 135.328125 97.238281 C 135.773438 97.496094 136.277344 97.625 136.792969 97.625 C 137.335938 97.625 137.890625 97.480469 138.40625 97.199219 C 139.792969 96.429688 140.53125 96.234375 140.945312 96.234375 C 141.25 96.234375 141.375 96.339844 141.445312 96.40625 L 145.597656 99.898438 C 145.761719 100.039062 145.867188 100.242188 145.882812 100.460938 Z M 142.695312 94.960938 C 142.207031 94.539062 141.621094 94.324219 140.945312 94.324219 C 140.050781 94.324219 138.980469 94.699219 137.476562 95.53125 C 137.257812 95.652344 137.019531 95.71875 136.792969 95.71875 C 136.605469 95.71875 136.4375 95.675781 136.292969 95.589844 C 134.59375 94.617188 132.996094 93.511719 131.503906 92.28125 C 131.011719 91.875 130.527344 91.457031 130.058594 91.023438 C 128.910156 89.964844 127.832031 88.824219 126.832031 87.609375 C 126.585938 87.3125 126.53125 86.867188 126.6875 86.425781 C 127.382812 84.457031 127.835938 82.46875 126.445312 81.238281 L 126.429688 81.222656 L 126.40625 81.203125 L 126.238281 81.0625 L 124.375 79.488281 L 122.265625 77.710938 C 121.757812 77.289062 121.148438 77.066406 120.496094 77.066406 C 120.429688 77.066406 120.363281 77.070312 120.292969 77.074219 C 119.566406 77.117188 118.875 77.46875 118.394531 78.042969 L 116.632812 80.121094 C 115.550781 81.394531 114.4375 84.726562 117.171875 89.097656 L 117.210938 89.164062 L 117.261719 89.230469 C 122.261719 95.917969 128.847656 101.46875 136.300781 105.285156 L 136.332031 105.304688 L 136.367188 105.320312 C 137.988281 106.070312 139.488281 106.449219 140.820312 106.449219 C 142.65625 106.449219 144.234375 105.738281 145.382812 104.386719 L 147.152344 102.292969 C 147.628906 101.726562 147.851562 101.019531 147.789062 100.296875 C 147.726562 99.589844 147.398438 98.941406 146.863281 98.46875 L 146.414062 98.089844 L 144.144531 96.179688 L 142.695312 94.960938 " fill-opacity="1" fill-rule="nonzero"/></g><g clip-path="url(#5e69d8add9)"><path fill="#000000" d="M 33.921875 116.347656 L 24.898438 134.558594 C 24.71875 134.960938 24.71875 135.363281 24.898438 135.765625 C 25.082031 136.167969 25.386719 136.433594 25.808594 136.5625 C 36.101562 139.578125 46.605469 141.125 57.328125 141.203125 L 58.148438 141.203125 C 69.160156 141.203125 79.949219 139.65625 90.519531 136.5625 C 90.945312 136.433594 91.246094 136.167969 91.429688 135.765625 C 91.613281 135.363281 91.613281 134.960938 91.429688 134.558594 L 82.378906 116.347656 C 79.910156 111.351562 73.574219 107.507812 65.898438 106.035156 C 68.367188 105.074219 70.589844 103.703125 72.558594 101.929688 C 74.53125 100.152344 76.125 98.082031 77.34375 95.722656 C 77.761719 95.78125 78.183594 95.808594 78.605469 95.808594 C 79.152344 95.808594 79.691406 95.753906 80.226562 95.648438 C 80.761719 95.542969 81.28125 95.382812 81.785156 95.175781 C 82.289062 94.964844 82.769531 94.707031 83.222656 94.40625 C 83.679688 94.101562 84.097656 93.753906 84.484375 93.367188 C 84.871094 92.980469 85.214844 92.558594 85.519531 92.105469 C 85.824219 91.648438 86.078125 91.167969 86.289062 90.664062 C 86.5 90.15625 86.65625 89.636719 86.765625 89.097656 C 86.871094 88.558594 86.925781 88.019531 86.925781 87.46875 L 86.925781 84.023438 C 86.929688 83.21875 86.820312 82.429688 86.597656 81.660156 C 86.371094 80.890625 86.039062 80.167969 85.601562 79.492188 C 85.164062 78.820312 84.640625 78.222656 84.03125 77.707031 C 83.417969 77.1875 82.746094 76.769531 82.011719 76.449219 C 81.804688 75.019531 81.472656 73.617188 81.015625 72.246094 C 80.558594 70.875 79.984375 69.554688 79.289062 68.285156 C 78.597656 67.019531 77.800781 65.824219 76.894531 64.699219 C 75.988281 63.574219 74.988281 62.539062 73.898438 61.59375 C 72.808594 60.648438 71.644531 59.808594 70.402344 59.074219 C 69.164062 58.339844 67.867188 57.71875 66.515625 57.21875 C 65.167969 56.714844 63.78125 56.335938 62.363281 56.082031 C 60.945312 55.832031 59.519531 55.707031 58.078125 55.710938 C 56.636719 55.710938 55.207031 55.84375 53.792969 56.105469 C 52.375 56.367188 50.992188 56.75 49.644531 57.257812 C 48.296875 57.769531 47.003906 58.394531 45.769531 59.136719 C 44.53125 59.875 43.371094 60.722656 42.285156 61.671875 C 41.199219 62.621094 40.207031 63.664062 39.304688 64.789062 C 38.40625 65.917969 37.613281 67.121094 36.925781 68.390625 C 36.238281 69.664062 35.671875 70.984375 35.222656 72.359375 C 34.769531 73.730469 34.445312 75.136719 34.246094 76.566406 C 33.554688 76.910156 32.921875 77.34375 32.351562 77.867188 C 31.78125 78.386719 31.292969 78.976562 30.886719 79.636719 C 30.476562 80.292969 30.167969 80.996094 29.957031 81.742188 C 29.746094 82.488281 29.640625 83.246094 29.636719 84.023438 L 29.636719 87.457031 C 29.636719 88.273438 29.753906 89.074219 29.988281 89.855469 C 30.21875 90.640625 30.5625 91.375 31.007812 92.058594 C 31.457031 92.742188 31.992188 93.347656 32.613281 93.871094 C 33.238281 94.398438 33.925781 94.824219 34.671875 95.144531 L 34.671875 98.917969 C 34.671875 99.113281 34.710938 99.300781 34.785156 99.480469 C 34.859375 99.664062 34.964844 99.820312 35.101562 99.960938 C 35.238281 100.097656 35.398438 100.203125 35.578125 100.277344 C 35.757812 100.355469 35.945312 100.390625 36.140625 100.390625 L 42.199219 100.390625 C 44.492188 102.929688 47.234375 104.816406 50.417969 106.050781 C 42.714844 107.523438 36.390625 111.351562 33.921875 116.347656 Z M 84.09375 84.023438 L 84.09375 87.457031 C 84.09375 87.816406 84.058594 88.175781 83.984375 88.527344 C 83.914062 88.882812 83.808594 89.226562 83.671875 89.558594 C 83.535156 89.894531 83.363281 90.210938 83.164062 90.507812 C 82.964844 90.808594 82.734375 91.085938 82.480469 91.34375 C 82.226562 91.597656 81.949219 91.824219 81.652344 92.023438 C 81.351562 92.226562 81.035156 92.394531 80.703125 92.53125 C 80.371094 92.671875 80.027344 92.773438 79.675781 92.84375 C 79.320312 92.914062 78.964844 92.949219 78.605469 92.949219 C 79.4375 90.621094 79.851562 88.21875 79.851562 85.746094 C 79.851562 83.273438 79.4375 80.871094 78.605469 78.542969 C 78.964844 78.539062 79.320312 78.574219 79.675781 78.640625 C 80.027344 78.710938 80.371094 78.8125 80.703125 78.949219 C 81.035156 79.085938 81.351562 79.253906 81.652344 79.453125 C 81.953125 79.65625 82.230469 79.882812 82.484375 80.136719 C 82.738281 80.390625 82.96875 80.667969 83.167969 80.96875 C 83.367188 81.269531 83.539062 81.585938 83.675781 81.917969 C 83.8125 82.25 83.917969 82.59375 83.988281 82.949219 C 84.058594 83.304688 84.09375 83.660156 84.09375 84.023438 Z M 58.148438 58.59375 C 59.550781 58.589844 60.9375 58.722656 62.3125 58.996094 C 63.683594 59.269531 65.019531 59.671875 66.3125 60.210938 C 67.605469 60.75 68.835938 61.414062 69.996094 62.195312 C 71.160156 62.980469 72.234375 63.871094 73.21875 64.867188 C 74.707031 66.351562 75.953125 68.015625 76.949219 69.863281 C 77.949219 71.714844 78.664062 73.667969 79.089844 75.726562 L 78.648438 75.726562 C 78.226562 75.726562 77.804688 75.757812 77.386719 75.816406 C 76.933594 74.9375 76.425781 74.089844 75.859375 73.28125 C 75.289062 72.472656 74.667969 71.703125 73.996094 70.980469 C 73.324219 70.253906 72.605469 69.578125 71.84375 68.953125 C 71.078125 68.328125 70.273438 67.757812 69.429688 67.242188 C 68.589844 66.726562 67.714844 66.273438 66.8125 65.875 C 65.90625 65.480469 64.980469 65.152344 64.03125 64.882812 C 63.082031 64.617188 62.117188 64.414062 61.140625 64.277344 C 60.164062 64.144531 59.179688 64.078125 58.195312 64.078125 C 57.207031 64.078125 56.226562 64.144531 55.25 64.277344 C 54.273438 64.414062 53.308594 64.617188 52.359375 64.882812 C 51.410156 65.152344 50.480469 65.480469 49.578125 65.875 C 48.671875 66.273438 47.800781 66.726562 46.957031 67.242188 C 46.113281 67.757812 45.3125 68.328125 44.546875 68.953125 C 43.78125 69.578125 43.0625 70.253906 42.390625 70.980469 C 41.71875 71.703125 41.097656 72.472656 40.53125 73.28125 C 39.964844 74.089844 39.453125 74.9375 39 75.816406 C 38.660156 75.792969 38.316406 75.792969 37.972656 75.816406 L 37.285156 75.816406 C 37.519531 74.613281 37.855469 73.4375 38.296875 72.289062 C 38.734375 71.144531 39.265625 70.042969 39.894531 68.992188 C 40.519531 67.9375 41.234375 66.945312 42.03125 66.015625 C 42.828125 65.085938 43.699219 64.230469 44.644531 63.449219 C 45.585938 62.671875 46.589844 61.976562 47.65625 61.371094 C 48.71875 60.765625 49.824219 60.257812 50.976562 59.84375 C 52.128906 59.429688 53.304688 59.117188 54.507812 58.90625 C 55.714844 58.695312 56.929688 58.59375 58.148438 58.59375 Z M 32.472656 87.457031 L 32.472656 84.023438 C 32.472656 83.46875 32.554688 82.925781 32.71875 82.394531 C 32.886719 81.867188 33.125 81.371094 33.441406 80.917969 C 33.753906 80.460938 34.128906 80.0625 34.5625 79.71875 C 35 79.375 35.476562 79.105469 35.992188 78.910156 L 36.140625 78.910156 C 36.6875 78.695312 37.253906 78.582031 37.839844 78.570312 C 37.007812 80.894531 36.59375 83.292969 36.59375 85.761719 C 36.59375 88.230469 37.007812 90.628906 37.839844 92.949219 C 37.484375 92.945312 37.132812 92.90625 36.789062 92.832031 C 36.441406 92.753906 36.101562 92.648438 35.777344 92.507812 C 35.449219 92.367188 35.140625 92.195312 34.847656 91.992188 C 34.554688 91.792969 34.28125 91.5625 34.03125 91.308594 C 33.785156 91.054688 33.5625 90.777344 33.367188 90.480469 C 33.171875 90.183594 33.007812 89.867188 32.875 89.535156 C 32.738281 89.207031 32.636719 88.867188 32.570312 88.515625 C 32.503906 88.164062 32.46875 87.8125 32.472656 87.457031 Z M 37.605469 97.488281 L 37.605469 95.78125 L 38.003906 95.78125 C 38.351562 95.777344 38.699219 95.753906 39.042969 95.707031 C 39.351562 96.3125 39.6875 96.902344 40.058594 97.472656 Z M 50.269531 100.332031 C 50.523438 100.867188 50.898438 101.292969 51.398438 101.609375 C 51.894531 101.925781 52.441406 102.082031 53.027344 102.085938 L 55.964844 102.085938 C 56.371094 102.082031 56.761719 102.003906 57.136719 101.847656 C 57.515625 101.6875 57.847656 101.464844 58.132812 101.175781 C 58.421875 100.882812 58.640625 100.550781 58.796875 100.171875 C 58.953125 99.792969 59.03125 99.402344 59.03125 98.992188 L 59.03125 98.179688 C 59.03125 97.773438 58.953125 97.378906 58.796875 97 C 58.640625 96.621094 58.421875 96.289062 58.132812 96 C 57.847656 95.707031 57.515625 95.484375 57.136719 95.328125 C 56.761719 95.167969 56.371094 95.089844 55.964844 95.085938 L 53.027344 95.085938 C 52.6875 95.09375 52.351562 95.15625 52.03125 95.273438 C 51.707031 95.394531 51.414062 95.5625 51.148438 95.777344 C 50.882812 95.996094 50.660156 96.253906 50.476562 96.546875 C 50.296875 96.839844 50.167969 97.152344 50.09375 97.488281 L 43.476562 97.488281 C 43.230469 97.179688 42.996094 96.859375 42.769531 96.535156 C 42.542969 96.207031 42.328125 95.875 42.121094 95.535156 C 41.917969 95.195312 41.722656 94.851562 41.539062 94.5 C 41.355469 94.148438 41.183594 93.789062 41.023438 93.425781 C 40.863281 93.0625 40.714844 92.695312 40.578125 92.324219 C 40.4375 91.953125 40.3125 91.574219 40.199219 91.195312 C 40.085938 90.816406 39.984375 90.429688 39.894531 90.042969 C 39.804688 89.65625 39.726562 89.269531 39.660156 88.878906 C 39.597656 88.484375 39.542969 88.09375 39.503906 87.699219 C 39.464844 87.300781 39.433594 86.90625 39.421875 86.511719 C 39.40625 86.113281 39.402344 85.714844 39.410156 85.320312 C 39.421875 84.921875 39.441406 84.527344 39.476562 84.128906 C 39.511719 83.734375 39.558594 83.339844 39.617188 82.949219 C 39.675781 82.554688 39.75 82.164062 39.832031 81.777344 C 39.917969 81.390625 40.011719 81.003906 40.121094 80.621094 C 40.230469 80.242188 40.351562 79.863281 40.480469 79.488281 C 40.613281 79.113281 40.757812 78.746094 40.914062 78.378906 C 41.066406 78.015625 41.234375 77.65625 41.414062 77.300781 C 41.589844 76.945312 41.78125 76.597656 41.980469 76.253906 C 42.179688 75.910156 42.390625 75.574219 42.613281 75.246094 C 42.832031 74.917969 43.0625 74.597656 43.304688 74.28125 C 43.546875 73.96875 43.796875 73.660156 44.058594 73.363281 C 44.320312 73.0625 44.589844 72.773438 44.867188 72.492188 C 45.148438 72.210938 45.433594 71.9375 45.730469 71.675781 C 46.027344 71.410156 46.332031 71.160156 46.644531 70.914062 C 46.953125 70.671875 47.273438 70.4375 47.601562 70.214844 C 47.929688 69.988281 48.261719 69.777344 48.601562 69.574219 C 48.941406 69.371094 49.289062 69.179688 49.640625 69 C 49.992188 68.820312 50.351562 68.652344 50.714844 68.492188 C 51.078125 68.335938 51.445312 68.191406 51.816406 68.054688 C 52.1875 67.921875 52.5625 67.800781 52.945312 67.6875 C 53.324219 67.578125 53.707031 67.480469 54.09375 67.394531 C 54.480469 67.308594 54.867188 67.234375 55.257812 67.171875 C 55.648438 67.109375 56.039062 67.0625 56.433594 67.027344 C 56.828125 66.988281 57.222656 66.964844 57.617188 66.953125 C 58.011719 66.941406 58.410156 66.941406 58.804688 66.957031 C 59.199219 66.96875 59.59375 66.996094 59.988281 67.035156 C 60.378906 67.074219 60.773438 67.125 61.164062 67.1875 C 61.554688 67.253906 61.941406 67.328125 62.328125 67.417969 C 62.710938 67.503906 63.09375 67.605469 63.472656 67.71875 C 63.851562 67.832031 64.226562 67.953125 64.601562 68.089844 C 64.972656 68.226562 65.335938 68.375 65.699219 68.535156 C 66.0625 68.695312 66.417969 68.867188 66.769531 69.046875 C 67.121094 69.230469 67.464844 69.421875 67.804688 69.628906 C 68.144531 69.832031 68.476562 70.046875 68.800781 70.273438 C 69.128906 70.496094 69.445312 70.734375 69.757812 70.976562 C 70.066406 71.222656 70.371094 71.480469 70.664062 71.742188 C 70.960938 72.007812 71.246094 72.28125 71.523438 72.566406 C 71.800781 72.847656 72.070312 73.140625 72.328125 73.441406 C 72.585938 73.738281 72.835938 74.046875 73.074219 74.363281 C 73.316406 74.679688 73.546875 75.003906 73.765625 75.332031 C 73.984375 75.664062 74.191406 76 74.390625 76.34375 C 74.589844 76.6875 74.777344 77.039062 74.953125 77.394531 C 75.128906 77.75 75.292969 78.109375 75.445312 78.476562 C 75.597656 78.839844 75.742188 79.210938 75.871094 79.585938 C 76 79.960938 76.117188 80.339844 76.226562 80.722656 C 76.332031 81.105469 76.425781 81.492188 76.507812 81.878906 C 76.589844 82.269531 76.65625 82.660156 76.714844 83.050781 C 76.773438 83.445312 76.816406 83.839844 76.851562 84.234375 C 76.882812 84.628906 76.902344 85.027344 76.910156 85.421875 C 76.917969 85.820312 76.910156 86.21875 76.894531 86.613281 C 76.875 87.011719 76.847656 87.40625 76.804688 87.800781 C 76.761719 88.195312 76.707031 88.589844 76.640625 88.980469 C 76.570312 89.371094 76.492188 89.757812 76.402344 90.144531 C 76.308594 90.53125 76.203125 90.914062 76.089844 91.292969 C 75.972656 91.675781 75.84375 92.050781 75.707031 92.421875 C 75.566406 92.792969 75.414062 93.160156 75.253906 93.519531 C 75.089844 93.882812 74.914062 94.238281 74.730469 94.589844 C 74.546875 94.941406 74.347656 95.285156 74.144531 95.625 C 73.9375 95.960938 73.71875 96.292969 73.492188 96.617188 C 73.261719 96.941406 73.023438 97.261719 72.777344 97.570312 C 72.53125 97.878906 72.273438 98.179688 72.007812 98.472656 C 71.738281 98.765625 71.464844 99.050781 71.179688 99.328125 C 70.894531 99.601562 70.601562 99.867188 70.300781 100.125 C 70 100.382812 69.691406 100.628906 69.371094 100.867188 C 69.054688 101.105469 68.730469 101.332031 68.398438 101.550781 C 68.070312 101.765625 67.730469 101.972656 67.386719 102.167969 C 67.042969 102.363281 66.691406 102.546875 66.335938 102.71875 C 65.980469 102.894531 65.621094 103.054688 65.253906 103.207031 C 64.886719 103.355469 64.515625 103.492188 64.144531 103.621094 C 63.769531 103.746094 63.390625 103.863281 63.007812 103.964844 C 62.625 104.066406 62.242188 104.15625 61.851562 104.234375 C 61.464844 104.3125 61.074219 104.378906 60.683594 104.433594 C 60.292969 104.488281 59.898438 104.527344 59.503906 104.554688 C 59.109375 104.585938 58.714844 104.601562 58.320312 104.605469 C 57.925781 104.605469 57.527344 104.597656 57.132812 104.578125 C 56.738281 104.554688 56.34375 104.519531 55.953125 104.472656 C 55.558594 104.425781 55.167969 104.367188 54.78125 104.296875 C 54.390625 104.226562 54.003906 104.140625 53.621094 104.046875 C 53.238281 103.949219 52.855469 103.839844 52.480469 103.71875 C 52.105469 103.601562 51.730469 103.46875 51.363281 103.324219 C 50.992188 103.179688 50.628906 103.023438 50.269531 102.859375 C 49.914062 102.691406 49.558594 102.511719 49.210938 102.324219 C 48.863281 102.132812 48.523438 101.933594 48.1875 101.722656 C 47.851562 101.511719 47.523438 101.289062 47.203125 101.058594 C 46.882812 100.824219 46.570312 100.585938 46.265625 100.332031 Z M 52.941406 97.976562 L 55.964844 97.976562 C 56.121094 97.976562 56.199219 98.054688 56.199219 98.210938 L 56.199219 99.019531 C 56.199219 99.179688 56.121094 99.257812 55.964844 99.257812 L 53.160156 99.257812 C 53.175781 99.152344 53.175781 99.050781 53.160156 98.949219 C 53.183594 98.585938 53.085938 98.261719 52.867188 97.976562 Z M 57.914062 108.097656 L 58.53125 108.097656 C 68.1875 108.097656 77.183594 112.105469 79.910156 117.613281 L 88.171875 134.292969 C 78.089844 137.078125 67.816406 138.429688 57.359375 138.34375 C 47.464844 138.28125 37.75 136.929688 28.214844 134.292969 L 36.460938 117.628906 C 39.191406 112.105469 48.1875 108.097656 57.84375 108.097656 Z M 57.914062 108.097656 " fill-opacity="1" fill-rule="nonzero"/></g><path fill="#000000" d="M 76.761719 102.613281 L 87.410156 99.011719 L 88.613281 102.558594 L 77.960938 106.164062 M 90.960938 97.808594 L 101.613281 94.203125 L 102.8125 97.753906 L 92.164062 101.359375 M 105.164062 93.003906 L 114.84375 89.726562 L 116.042969 93.277344 L 106.363281 96.554688 " fill-opacity="1" fill-rule="nonzero"/><path fill="#000000" d="M 84.800781 74.242188 L 92.75 66.289062 L 95.402344 68.941406 L 87.449219 76.890625 M 95.402344 63.640625 L 96.726562 62.316406 L 99.378906 64.964844 L 98.050781 66.289062 " fill-opacity="1" fill-rule="nonzero"/><g clip-path="url(#e6e93b94bd)"><path fill="#000000" d="M 142.9375 112.5 L 128.414062 112.5 C 126.40625 113.035156 125.179688 114.257812 125.042969 116.480469 C 125.054688 116.90625 125.070312 117.335938 125.082031 117.757812 C 125.082031 118.539062 125.078125 119.265625 125.082031 120 C 125.082031 121.125 125.074219 122.257812 125.078125 123.382812 L 115.84375 123.382812 C 115.035156 123.554688 114.335938 123.921875 113.738281 124.496094 C 113.140625 125.066406 112.738281 125.75 112.53125 126.554688 L 112.53125 136.066406 C 112.585938 136.5625 112.746094 137.015625 113.019531 137.433594 C 113.417969 137.988281 113.933594 138.386719 114.566406 138.632812 C 115.175781 138.925781 115.816406 139.074219 116.488281 139.078125 L 117.546875 139.078125 L 117.546875 142.105469 C 117.574219 143.226562 117.605469 144.355469 117.632812 145.480469 C 118.171875 144.96875 118.636719 144.515625 118.996094 144.164062 C 120.132812 143.042969 120.683594 142.472656 121.371094 141.738281 C 121.953125 141.121094 121.980469 141.085938 122.253906 140.800781 C 123.507812 139.484375 123.839844 139.328125 124.007812 139.257812 C 124.351562 139.113281 124.707031 139.046875 125.078125 139.0625 C 126.625 139.121094 128.175781 139.089844 129.726562 139.078125 C 129.992188 139.089844 130.253906 139.074219 130.515625 139.03125 C 130.773438 138.988281 131.027344 138.917969 131.273438 138.820312 C 131.519531 138.722656 131.753906 138.601562 131.976562 138.457031 C 132.195312 138.3125 132.398438 138.144531 132.585938 137.957031 C 132.773438 137.769531 132.9375 137.566406 133.082031 137.34375 C 133.226562 137.121094 133.34375 136.882812 133.441406 136.636719 C 133.535156 136.390625 133.605469 136.132812 133.644531 135.871094 C 133.6875 135.609375 133.703125 135.347656 133.691406 135.082031 C 133.707031 133.683594 133.695312 132.28125 133.695312 130.882812 L 133.695312 128.644531 L 133.710938 128.175781 C 134.078125 128.164062 134.433594 128.226562 134.773438 128.375 C 134.9375 128.445312 135.265625 128.59375 136.519531 129.914062 C 136.792969 130.199219 136.828125 130.238281 137.402344 130.855469 C 138.09375 131.589844 138.648438 132.160156 139.78125 133.277344 C 140.140625 133.632812 140.601562 134.082031 141.144531 134.597656 C 141.175781 133.472656 141.203125 132.347656 141.230469 131.222656 L 141.230469 128.195312 L 142.289062 128.195312 C 142.960938 128.191406 143.601562 128.042969 144.207031 127.75 C 144.839844 127.503906 145.355469 127.101562 145.753906 126.546875 C 146.027344 126.132812 146.195312 125.675781 146.25 125.179688 L 146.25 115.667969 C 146.039062 114.867188 145.636719 114.183594 145.039062 113.613281 C 144.445312 113.042969 143.742188 112.671875 142.9375 112.5 Z M 132.429688 135.082031 C 132.453125 135.449219 132.402344 135.808594 132.273438 136.152344 C 132.144531 136.5 131.953125 136.804688 131.691406 137.066406 C 131.433594 137.328125 131.128906 137.523438 130.785156 137.652344 C 130.441406 137.78125 130.085938 137.835938 129.71875 137.808594 C 127.929688 137.824219 126.144531 137.832031 124.355469 137.800781 C 123.800781 137.769531 123.339844 137.964844 122.972656 138.378906 C 122.316406 139.0625 121.582031 139.671875 120.976562 140.402344 C 120.296875 141.226562 119.546875 141.984375 118.726562 142.671875 C 118.742188 142.3125 118.789062 140.621094 118.8125 138.769531 C 118.84375 138.480469 118.765625 138.222656 118.574219 138 C 118.371094 137.835938 118.136719 137.773438 117.878906 137.808594 C 117.410156 137.828125 116.933594 137.820312 116.460938 137.808594 C 116.101562 137.824219 115.753906 137.765625 115.417969 137.632812 C 115.082031 137.5 114.789062 137.304688 114.535156 137.046875 C 114.28125 136.789062 114.089844 136.488281 113.960938 136.152344 C 113.832031 135.8125 113.777344 135.460938 113.796875 135.101562 C 113.785156 132.542969 113.785156 129.980469 113.796875 127.417969 C 113.777344 127.054688 113.828125 126.703125 113.953125 126.363281 C 114.082031 126.023438 114.269531 125.722656 114.523438 125.464844 C 114.773438 125.203125 115.066406 125.003906 115.402344 124.871094 C 115.738281 124.734375 116.085938 124.671875 116.449219 124.6875 C 119.335938 124.671875 122.222656 124.667969 125.109375 124.671875 C 125.15625 125.324219 125.359375 125.925781 125.714844 126.472656 C 126.074219 127.023438 126.542969 127.445312 127.121094 127.75 C 127.726562 128.050781 128.367188 128.199219 129.046875 128.195312 C 129.558594 128.199219 130.070312 128.203125 130.585938 128.203125 C 131.199219 128.214844 131.816406 128.214844 132.429688 128.203125 C 132.441406 130.496094 132.441406 132.789062 132.429688 135.082031 Z M 144.980469 124.214844 C 145 124.578125 144.945312 124.929688 144.816406 125.269531 C 144.6875 125.605469 144.496094 125.90625 144.242188 126.164062 C 143.988281 126.421875 143.695312 126.617188 143.359375 126.75 C 143.023438 126.882812 142.675781 126.941406 142.3125 126.925781 C 141.84375 126.933594 141.367188 126.945312 140.894531 126.925781 C 140.636719 126.886719 140.40625 126.953125 140.203125 127.113281 C 140.011719 127.335938 139.933594 127.59375 139.960938 127.886719 C 139.984375 129.738281 140.039062 131.425781 140.046875 131.789062 C 139.230469 131.097656 138.480469 130.34375 137.796875 129.519531 C 137.195312 128.789062 136.460938 128.175781 135.804688 127.496094 C 135.4375 127.078125 134.972656 126.886719 134.417969 126.917969 C 134.175781 126.921875 133.933594 126.925781 133.691406 126.925781 C 133.257812 126.929688 132.828125 126.933594 132.390625 126.933594 C 131.28125 126.941406 130.167969 126.929688 129.054688 126.925781 C 127.5625 126.910156 126.566406 126.066406 126.382812 124.671875 C 126.359375 124.515625 126.347656 124.355469 126.347656 124.199219 L 126.347656 123.382812 C 126.335938 121.09375 126.332031 118.800781 126.347656 116.511719 C 126.324219 116.148438 126.375 115.796875 126.503906 115.457031 C 126.628906 115.117188 126.820312 114.816406 127.074219 114.558594 C 127.328125 114.300781 127.621094 114.105469 127.957031 113.972656 C 128.296875 113.839844 128.644531 113.785156 129.003906 113.800781 C 133.445312 113.777344 137.886719 113.777344 142.332031 113.800781 C 142.691406 113.789062 143.039062 113.851562 143.375 113.988281 C 143.710938 114.121094 144.003906 114.320312 144.257812 114.578125 C 144.507812 114.839844 144.699219 115.140625 144.824219 115.480469 C 144.949219 115.820312 145.003906 116.171875 144.980469 116.535156 C 144.996094 119.097656 144.996094 121.65625 144.980469 124.214844 Z M 142.246094 118.707031 L 129.277344 118.707031 C 129.085938 118.707031 128.925781 118.636719 128.789062 118.503906 C 128.65625 118.367188 128.589844 118.207031 128.589844 118.015625 C 128.589844 117.824219 128.65625 117.664062 128.789062 117.527344 C 128.925781 117.394531 129.085938 117.324219 129.277344 117.324219 L 142.246094 117.324219 C 142.433594 117.324219 142.597656 117.394531 142.730469 117.527344 C 142.863281 117.664062 142.929688 117.824219 142.929688 118.015625 C 142.929688 118.207031 142.863281 118.367188 142.730469 118.503906 C 142.597656 118.636719 142.433594 118.707031 142.246094 118.707031 Z M 137.613281 122.363281 L 129.671875 122.363281 C 129.484375 122.363281 129.320312 122.296875 129.1875 122.160156 C 129.054688 122.027344 128.988281 121.863281 128.988281 121.675781 C 128.988281 121.484375 129.054688 121.320312 129.1875 121.1875 C 129.320312 121.050781 129.484375 120.984375 129.671875 120.984375 L 137.613281 120.984375 C 137.800781 120.984375 137.964844 121.050781 138.097656 121.1875 C 138.230469 121.320312 138.300781 121.484375 138.300781 121.675781 C 138.300781 121.863281 138.230469 122.027344 138.097656 122.160156 C 137.964844 122.296875 137.800781 122.363281 137.613281 122.363281 Z M 129.5 133.730469 L 116.53125 133.730469 C 116.34375 133.730469 116.179688 133.664062 116.046875 133.527344 C 115.914062 133.394531 115.84375 133.230469 115.84375 133.039062 C 115.84375 132.851562 115.914062 132.6875 116.046875 132.550781 C 116.179688 132.417969 116.34375 132.351562 116.53125 132.351562 L 129.5 132.351562 C 129.691406 132.351562 129.851562 132.417969 129.984375 132.550781 C 130.121094 132.6875 130.1875 132.851562 130.1875 133.039062 C 130.1875 133.230469 130.121094 133.394531 129.984375 133.527344 C 129.851562 133.664062 129.691406 133.730469 129.5 133.730469 Z M 116.585938 128.644531 L 124.527344 128.644531 C 124.714844 128.644531 124.878906 128.714844 125.011719 128.847656 C 125.148438 128.984375 125.214844 129.144531 125.214844 129.335938 C 125.214844 129.527344 125.148438 129.6875 125.011719 129.824219 C 124.878906 129.957031 124.714844 130.027344 124.527344 130.027344 L 116.585938 130.027344 C 116.398438 130.027344 116.234375 129.957031 116.101562 129.824219 C 115.96875 129.6875 115.902344 129.527344 115.902344 129.335938 C 115.902344 129.144531 115.96875 128.984375 116.101562 128.847656 C 116.234375 128.714844 116.398438 128.644531 116.585938 128.644531 Z M 116.585938 128.644531 " fill-opacity="1" fill-rule="nonzero"/></g><g clip-path="url(#6850d99e5b)"><g clip-path="url(#5920a9390e)"><g clip-path="url(#52c1507da9)"><g clip-path="url(#b5a3e2e5c0)"><path fill="#000000" d="M 58.25 133.730469 L 58.816406 134.898438 C 59 135.277344 59.457031 135.445312 59.835938 135.261719 C 60.210938 135.082031 60.367188 134.621094 60.183594 134.242188 L 59.617188 133.074219 C 59.535156 132.894531 59.371094 132.75 59.179688 132.679688 C 58.527344 132.449219 57.957031 133.125 58.25 133.730469 Z M 55.683594 134.230469 C 55.589844 134.285156 55.320312 134.320312 55.21875 134.339844 C 54.144531 134.527344 53.976562 134.6875 54.023438 135.078125 C 54.054688 135.371094 54.316406 135.582031 54.605469 135.550781 L 55.671875 135.441406 C 56.097656 135.398438 56.441406 135.296875 56.824219 135.101562 L 57.574219 134.71875 C 57.386719 134.332031 57.175781 133.976562 57.136719 133.539062 Z M 65.164062 130.414062 L 65.730469 131.582031 C 65.914062 131.964844 66.371094 132.128906 66.75 131.945312 C 67.132812 131.765625 67.28125 131.304688 67.097656 130.925781 L 66.539062 129.765625 C 66.445312 129.574219 66.292969 129.4375 66.097656 129.367188 C 65.441406 129.132812 64.875 129.8125 65.164062 130.414062 Z M 60.554688 132.625 L 61.121094 133.792969 C 61.304688 134.175781 61.765625 134.339844 62.140625 134.160156 C 62.519531 133.980469 62.671875 133.519531 62.488281 133.136719 L 61.925781 131.96875 C 61.835938 131.789062 61.679688 131.648438 61.484375 131.578125 C 60.84375 131.34375 60.257812 132.011719 60.554688 132.625 Z M 62.859375 131.523438 L 63.425781 132.6875 C 63.613281 133.070312 64.070312 133.234375 64.445312 133.054688 C 64.828125 132.867188 64.976562 132.410156 64.796875 132.03125 L 64.230469 130.867188 C 64.144531 130.6875 63.984375 130.542969 63.792969 130.472656 C 63.152344 130.238281 62.566406 130.910156 62.859375 131.523438 Z M 59.835938 122.164062 C 60.070312 121.945312 60.457031 122 60.628906 122.277344 L 61.980469 124.441406 C 62.222656 124.828125 62.71875 124.945312 63.09375 124.710938 L 63.214844 124.636719 C 63.589844 124.402344 63.703125 123.902344 63.460938 123.519531 L 61.765625 120.804688 C 61.675781 120.65625 61.566406 120.558594 61.410156 120.488281 L 57.339844 118.609375 C 56.570312 118.253906 55.800781 118.195312 54.996094 118.4375 L 52.058594 119.324219 C 51.394531 119.523438 50.769531 119.5625 50.082031 119.445312 L 43.285156 118.265625 L 43.296875 118.238281 C 44.449219 115.710938 46.324219 113.488281 48.84375 111.914062 C 53.777344 108.832031 59.980469 109.003906 64.804688 112.167969 C 64.597656 112.738281 64.644531 113.398438 64.992188 113.957031 C 65.585938 114.902344 66.820312 115.199219 67.75 114.617188 C 68.679688 114.039062 68.957031 112.796875 68.367188 111.847656 C 67.726562 110.824219 66.351562 110.570312 65.40625 111.324219 C 60.238281 107.90625 53.570312 107.71875 48.285156 111.019531 C 42.929688 114.363281 40.164062 120.574219 41.089844 126.816406 L 42.117188 126.675781 L 46.703125 126.234375 C 47.300781 126.246094 47.769531 126.523438 48.179688 126.765625 C 48.515625 126.964844 48.808594 127.140625 49.128906 127.144531 C 50.074219 127.160156 51.199219 126.730469 52.171875 126.488281 C 53.199219 126.242188 58.925781 123.007812 59.835938 122.164062 Z M 65.359375 138.355469 C 59.152344 142.234375 51.109375 141.242188 45.871094 136.140625 C 44.96875 136.578125 43.847656 136.257812 43.296875 135.375 C 42.707031 134.425781 42.980469 133.183594 43.910156 132.601562 C 44.839844 132.019531 46.078125 132.320312 46.671875 133.265625 C 47.105469 133.960938 47.070312 134.820312 46.65625 135.460938 C 51.554688 140.171875 59.019531 141.070312 64.800781 137.460938 C 68.0625 135.425781 70.277344 132.277344 71.199219 128.742188 C 70.277344 128.675781 69.179688 128.789062 68.460938 129.152344 L 67.609375 129.59375 L 67.472656 129.3125 C 67.03125 128.40625 65.945312 128.015625 65.054688 128.445312 C 64.625 128.652344 64.296875 129.015625 64.144531 129.476562 C 64.140625 129.476562 64.140625 129.484375 64.140625 129.488281 C 64.136719 129.488281 64.132812 129.484375 64.128906 129.480469 C 63.671875 129.320312 63.183594 129.34375 62.75 129.546875 C 62.316406 129.757812 61.996094 130.125 61.835938 130.582031 C 61.839844 130.585938 61.835938 130.585938 61.835938 130.59375 C 61.832031 130.589844 61.824219 130.585938 61.824219 130.589844 C 60.867188 130.238281 59.84375 130.742188 59.53125 131.695312 C 59.523438 131.695312 59.519531 131.691406 59.519531 131.691406 C 59.058594 131.527344 58.570312 131.550781 58.140625 131.761719 C 57.9375 131.855469 57.757812 131.980469 57.613281 132.144531 L 55.304688 133.242188 L 53.292969 133.449219 C 53.011719 133.476562 52.742188 133.265625 52.707031 132.972656 C 52.683594 132.761719 52.734375 132.667969 52.777344 132.621094 C 52.90625 132.460938 53.222656 132.378906 53.5625 132.335938 L 54.644531 132.238281 L 54.777344 132.1875 L 57.785156 130.589844 C 58.039062 130.453125 58.132812 130.136719 57.996094 129.878906 C 57.855469 129.621094 57.539062 129.523438 57.285156 129.65625 L 54.363281 131.210938 L 54.09375 131.230469 C 53.875 131.242188 53.636719 131.257812 53.402344 131.289062 L 51.496094 131.453125 C 50.8125 131.515625 50.53125 130.695312 50.824219 130.355469 C 50.949219 130.199219 51.191406 130.097656 51.472656 130.023438 L 53.46875 129.835938 L 53.597656 129.804688 L 56.332031 128.230469 C 56.582031 128.085938 56.664062 127.765625 56.515625 127.515625 C 56.371094 127.261719 56.046875 127.167969 55.804688 127.316406 L 53.242188 128.800781 C 53.109375 128.804688 52.960938 128.816406 52.800781 128.820312 C 52.320312 128.847656 51.777344 128.875 51.28125 128.988281 L 49.929688 129.125 C 49.441406 129.167969 49.03125 128.703125 49.175781 128.191406 C 50.253906 128.203125 51.402344 127.773438 52.441406 127.515625 C 53.480469 127.257812 58.308594 124.574219 60.058594 123.324219 L 61.101562 124.992188 C 61.648438 125.867188 62.796875 126.148438 63.65625 125.609375 L 63.773438 125.535156 C 64.636719 125 64.890625 123.84375 64.34375 122.96875 L 62.644531 120.253906 C 62.292969 119.6875 61.890625 119.558594 61.332031 119.300781 L 63.375 118.945312 C 64.070312 118.820312 64.695312 118.90625 65.339844 119.203125 L 66.851562 119.902344 C 67.511719 120.210938 68.15625 120.335938 68.878906 120.304688 L 71.03125 120.210938 L 71.988281 120.066406 L 72.011719 120.148438 C 73.054688 123.488281 72.953125 127.015625 71.851562 130.195312 C 70.71875 133.476562 68.511719 136.390625 65.359375 138.355469 Z M 65.359375 138.355469 " fill-opacity="1" fill-rule="evenodd"/></g></g></g></g><g clip-path="url(#6bc6a7e10e)"><path fill="#100f0d" d="M 15.429688 39.714844 L 191.289062 39.714844 C 192.203125 39.699219 192.953125 40.429688 192.96875 41.34375 C 192.96875 41.34375 192.96875 41.363281 192.96875 41.378906 L 192.96875 151.65625 C 192.96875 152.570312 192.238281 153.316406 191.324219 153.316406 C 191.304688 153.316406 191.304688 153.316406 191.289062 153.316406 L 15.429688 153.316406 C 14.53125 153.335938 13.765625 152.601562 13.75 151.6875 C 13.75 151.6875 13.75 151.671875 13.75 151.65625 L 13.75 41.378906 C 13.75 40.464844 14.5 39.714844 15.398438 39.714844 C 15.414062 39.714844 15.429688 39.714844 15.429688 39.714844 Z M 13.71875 35.59375 C 11.453125 35.625 9.65625 37.472656 9.65625 39.714844 L 9.65625 161.898438 C 9.65625 164.160156 11.453125 165.988281 13.71875 166.039062 L 89.578125 166.039062 L 89.578125 179.089844 C 89.578125 180.003906 88.847656 180.753906 87.929688 180.753906 C 87.914062 180.753906 87.898438 180.753906 87.882812 180.753906 L 78.761719 180.753906 C 74.78125 180.785156 71.355469 183.511719 70.40625 187.371094 C 70.1875 188.253906 70.738281 189.152344 71.621094 189.367188 C 71.753906 189.398438 71.886719 189.417969 72.019531 189.417969 L 134.816406 189.417969 C 135.734375 189.417969 136.464844 188.667969 136.464844 187.753906 C 136.464844 187.621094 136.449219 187.488281 136.429688 187.371094 C 135.484375 183.480469 131.972656 180.738281 127.960938 180.753906 L 118.839844 180.753906 C 117.941406 180.71875 117.226562 179.988281 117.226562 179.089844 L 117.226562 166.039062 L 192.988281 166.039062 C 195.265625 166.054688 197.132812 164.207031 197.164062 161.929688 C 197.164062 161.929688 197.164062 161.914062 197.164062 161.898438 L 197.164062 39.714844 C 197.148438 37.4375 195.300781 35.59375 193.019531 35.59375 C 193.003906 35.59375 193.003906 35.59375 192.988281 35.59375 L 13.71875 35.59375 " fill-opacity="1" fill-rule="nonzero"/></g><g clip-path="url(#db093265d6)"><path fill="#000000" d="M 213.003906 154.714844 C 214.371094 154.714844 215.492188 153.59375 215.492188 152.226562 L 215.492188 146.214844 C 215.492188 144.847656 214.371094 143.726562 213.003906 143.726562 L 210.421875 143.726562 C 209.054688 143.726562 207.609375 142.65625 207.203125 141.347656 L 205 136 C 204.355469 134.796875 204.617188 133.019531 205.582031 132.050781 L 207.410156 130.222656 C 208.378906 129.257812 208.378906 127.675781 207.410156 126.707031 L 203.160156 122.453125 C 202.191406 121.488281 200.609375 121.488281 199.640625 122.453125 L 197.816406 124.28125 C 196.847656 125.25 195.070312 125.511719 193.863281 124.863281 L 188.515625 122.660156 C 187.207031 122.257812 186.140625 120.8125 186.140625 119.445312 L 186.140625 116.863281 C 186.140625 115.492188 185.019531 114.375 183.652344 114.375 L 177.640625 114.375 C 176.273438 114.375 175.152344 115.492188 175.152344 116.863281 L 175.152344 119.445312 C 175.152344 120.8125 174.082031 122.257812 172.777344 122.660156 L 167.425781 124.863281 C 166.222656 125.511719 164.445312 125.25 163.476562 124.28125 L 161.648438 122.453125 C 160.683594 121.488281 159.101562 121.488281 158.132812 122.453125 L 153.882812 126.707031 C 152.914062 127.671875 152.914062 129.253906 153.882812 130.222656 L 155.710938 132.050781 C 156.675781 133.019531 156.9375 134.796875 156.292969 136 L 154.089844 141.347656 C 153.6875 142.65625 152.238281 143.726562 150.871094 143.726562 L 148.289062 143.726562 C 146.921875 143.726562 145.800781 144.84375 145.800781 146.210938 L 145.800781 152.226562 C 145.800781 153.59375 146.921875 154.714844 148.289062 154.714844 L 150.871094 154.714844 C 152.238281 154.714844 153.6875 155.78125 154.089844 157.089844 L 156.292969 162.441406 C 156.941406 163.644531 156.679688 165.421875 155.710938 166.390625 L 153.882812 168.21875 C 152.914062 169.183594 152.914062 170.765625 153.882812 171.734375 L 158.132812 175.984375 C 159.101562 176.953125 160.683594 176.953125 161.648438 175.984375 L 163.480469 174.15625 C 164.445312 173.191406 166.222656 172.929688 167.429688 173.574219 L 172.777344 175.777344 C 174.085938 176.179688 175.152344 177.628906 175.152344 178.996094 L 175.152344 181.578125 C 175.152344 182.945312 176.273438 184.066406 177.640625 184.066406 L 183.652344 184.066406 C 185.019531 184.066406 186.140625 182.945312 186.140625 181.578125 L 186.140625 178.996094 C 186.140625 177.628906 187.210938 176.179688 188.515625 175.777344 L 193.867188 173.574219 C 195.070312 172.929688 196.847656 173.1875 197.816406 174.15625 L 199.644531 175.984375 C 200.609375 176.953125 202.195312 176.953125 203.160156 175.984375 L 207.410156 171.734375 C 208.378906 170.765625 208.378906 169.183594 207.410156 168.214844 L 205.585938 166.390625 C 204.617188 165.421875 204.355469 163.644531 205.003906 162.4375 L 207.203125 157.089844 C 207.605469 155.78125 209.054688 154.714844 210.421875 154.714844 Z M 180.644531 163.554688 C 172.730469 163.554688 166.308594 157.136719 166.308594 149.21875 C 166.308594 141.300781 172.730469 134.882812 180.644531 134.882812 C 188.5625 134.882812 194.980469 141.300781 194.980469 149.21875 C 194.980469 157.136719 188.5625 163.554688 180.644531 163.554688 Z M 180.644531 163.554688 " fill-opacity="1" fill-rule="nonzero"/></g><g clip-path="url(#806fb6b8e4)"><path fill="#ffbd59" d="M 203.351562 153.910156 C 203.441406 151.003906 203.441406 151 203.527344 148.09375 L 199.03125 146.339844 C 198.382812 144.628906 198.058594 143.769531 197.410156 142.054688 L 199.613281 137.761719 C 197.625 135.652344 197.617188 135.644531 195.625 133.53125 L 191.210938 135.46875 L 187.039062 133.582031 L 185.558594 128.992188 L 179.75 128.8125 L 177.992188 133.308594 C 176.285156 133.957031 175.417969 134.285156 173.710938 134.933594 L 169.417969 132.730469 C 167.300781 134.714844 167.292969 134.722656 165.179688 136.710938 L 167.117188 141.132812 C 166.371094 142.796875 165.992188 143.640625 165.238281 145.304688 L 160.640625 146.785156 C 160.550781 149.6875 160.550781 149.695312 160.460938 152.59375 L 164.960938 154.351562 C 165.609375 156.058594 165.933594 156.925781 166.582031 158.636719 L 164.378906 162.925781 C 166.371094 165.042969 166.375 165.046875 168.359375 167.164062 L 172.78125 165.226562 C 174.453125 165.972656 175.292969 166.351562 176.960938 167.105469 L 178.433594 171.703125 L 184.25 171.878906 L 186.003906 167.382812 C 187.714844 166.734375 188.574219 166.410156 190.289062 165.761719 L 194.582031 167.964844 L 198.816406 163.984375 L 196.878906 159.5625 C 197.632812 157.898438 198.007812 157.050781 198.761719 155.386719 Z M 181.996094 162.980469 C 181.167969 162.980469 180.34375 162.898438 179.53125 162.738281 C 178.71875 162.578125 177.925781 162.335938 177.160156 162.019531 C 176.394531 161.703125 175.667969 161.3125 174.976562 160.851562 C 174.289062 160.390625 173.648438 159.867188 173.0625 159.28125 C 172.476562 158.695312 171.953125 158.054688 171.492188 157.367188 C 171.03125 156.675781 170.640625 155.949219 170.324219 155.183594 C 170.007812 154.414062 169.769531 153.625 169.605469 152.8125 C 169.445312 152 169.363281 151.175781 169.363281 150.347656 C 169.363281 149.519531 169.445312 148.695312 169.605469 147.882812 C 169.769531 147.070312 170.007812 146.277344 170.324219 145.511719 C 170.640625 144.746094 171.03125 144.019531 171.492188 143.328125 C 171.953125 142.640625 172.476562 142 173.0625 141.414062 C 173.648438 140.828125 174.289062 140.304688 174.976562 139.84375 C 175.667969 139.382812 176.394531 138.992188 177.160156 138.675781 C 177.929688 138.359375 178.71875 138.117188 179.53125 137.957031 C 180.34375 137.796875 181.167969 137.714844 181.996094 137.714844 C 182.824219 137.714844 183.648438 137.796875 184.460938 137.957031 C 185.273438 138.117188 186.066406 138.359375 186.832031 138.675781 C 187.597656 138.992188 188.324219 139.382812 189.015625 139.84375 C 189.703125 140.304688 190.34375 140.828125 190.929688 141.414062 C 191.515625 142 192.039062 142.636719 192.5 143.328125 C 192.960938 144.019531 193.351562 144.746094 193.667969 145.511719 C 193.984375 146.277344 194.226562 147.070312 194.386719 147.882812 C 194.550781 148.695312 194.628906 149.515625 194.628906 150.347656 C 194.628906 151.175781 194.550781 151.996094 194.386719 152.8125 C 194.226562 153.625 193.984375 154.414062 193.667969 155.179688 C 193.351562 155.949219 192.960938 156.675781 192.5 157.363281 C 192.039062 158.054688 191.515625 158.691406 190.929688 159.28125 C 190.34375 159.867188 189.703125 160.390625 189.015625 160.851562 C 188.324219 161.3125 187.597656 161.699219 186.832031 162.019531 C 186.0625 162.335938 185.273438 162.574219 184.460938 162.738281 C 183.648438 162.898438 182.824219 162.980469 181.996094 162.980469 Z M 181.996094 162.980469 " fill-opacity="1" fill-rule="nonzero"/></g><g clip-path="url(#975bd43905)"><path fill="#000000" d="M 161.621094 95.886719 L 184.421875 95.886719 C 184.746094 95.886719 185.0625 95.949219 185.363281 96.070312 C 185.664062 96.195312 185.929688 96.371094 186.160156 96.597656 C 186.390625 96.828125 186.566406 97.089844 186.691406 97.390625 C 186.816406 97.6875 186.878906 98 186.878906 98.320312 L 186.878906 102.902344 C 186.878906 103.222656 186.816406 103.535156 186.691406 103.832031 C 186.566406 104.132812 186.390625 104.394531 186.160156 104.625 C 185.929688 104.851562 185.664062 105.027344 185.363281 105.152344 C 185.0625 105.273438 184.746094 105.335938 184.421875 105.335938 L 161.621094 105.335938 C 161.292969 105.335938 160.980469 105.273438 160.679688 105.152344 C 160.378906 105.027344 160.113281 104.851562 159.882812 104.625 C 159.652344 104.394531 159.472656 104.132812 159.347656 103.832031 C 159.222656 103.535156 159.160156 103.222656 159.160156 102.902344 L 159.160156 98.320312 C 159.160156 98 159.222656 97.6875 159.347656 97.390625 C 159.472656 97.089844 159.652344 96.828125 159.882812 96.597656 C 160.113281 96.371094 160.378906 96.195312 160.679688 96.070312 C 160.980469 95.949219 161.292969 95.886719 161.621094 95.886719 Z M 161.621094 95.886719 " fill-opacity="1" fill-rule="nonzero"/></g><g clip-path="url(#bfbde89501)"><path fill="#000000" d="M 180.308594 101.734375 L 186.894531 107.128906 L 186.863281 101.421875 L 180.308594 101.457031 " fill-opacity="1" fill-rule="nonzero"/></g><g clip-path="url(#68a60e8adb)"><path fill="#ffbd59" d="M 184.386719 69.082031 L 161.632812 69.082031 C 161.304688 69.082031 160.992188 69.144531 160.691406 69.265625 C 160.390625 69.390625 160.128906 69.570312 159.898438 69.800781 C 159.667969 70.027344 159.488281 70.292969 159.363281 70.59375 C 159.242188 70.894531 159.179688 71.207031 159.179688 71.535156 L 159.179688 76.148438 C 159.179688 76.472656 159.242188 76.785156 159.363281 77.085938 C 159.488281 77.386719 159.667969 77.652344 159.898438 77.882812 C 160.128906 78.113281 160.390625 78.289062 160.691406 78.414062 C 160.992188 78.539062 161.304688 78.601562 161.632812 78.601562 L 184.386719 78.601562 C 184.710938 78.601562 185.023438 78.539062 185.324219 78.414062 C 185.625 78.289062 185.890625 78.113281 186.121094 77.882812 C 186.351562 77.652344 186.527344 77.386719 186.652344 77.085938 C 186.777344 76.785156 186.839844 76.472656 186.839844 76.148438 L 186.839844 71.535156 C 186.839844 71.207031 186.777344 70.894531 186.652344 70.59375 C 186.527344 70.292969 186.351562 70.027344 186.121094 69.800781 C 185.890625 69.570312 185.625 69.390625 185.324219 69.265625 C 185.023438 69.144531 184.710938 69.082031 184.386719 69.082031 Z M 184.386719 69.082031 " fill-opacity="1" fill-rule="nonzero"/></g><g clip-path="url(#100ba0d311)"><path fill="#ffbd59" d="M 165.734375 74.972656 L 159.164062 80.40625 L 159.195312 74.660156 L 165.734375 74.691406 " fill-opacity="1" fill-rule="nonzero"/></g><g clip-path="url(#18f0d391fe)"><g clip-path="url(#c041daba0e)"><path fill="#000000" d="M 164.015625 45.996094 L 181.996094 45.996094 L 181.996094 64.960938 L 164.015625 64.960938 Z M 164.015625 45.996094 " fill-opacity="1" fill-rule="nonzero"/></g></g><path fill="#000000" d="M 85.925781 113.097656 L 96.785156 116.007812 L 95.816406 119.628906 L 84.957031 116.71875 M 100.40625 116.976562 L 111.269531 119.886719 L 110.296875 123.507812 L 99.4375 120.597656 " fill-opacity="1" fill-rule="nonzero"/></svg>