<svg xmlns="http://www.w3.org/2000/svg" xmlns:xlink="http://www.w3.org/1999/xlink" width="300" zoomAndPan="magnify" viewBox="0 0 224.87999 225" height="300" preserveAspectRatio="xMidYMid meet" version="1.0"><defs><clipPath id="8fcc9cb9cc"><path d="M 0 0.0585938 L 224.761719 0.0585938 L 224.761719 224.9375 L 0 224.9375 Z M 0 0.0585938 " clip-rule="nonzero"/></clipPath><clipPath id="80cbb0ee3a"><path d="M 151 145 L 153.15625 145 L 153.15625 147.285156 L 151 147.285156 Z M 151 145 " clip-rule="nonzero"/></clipPath><clipPath id="70cd05dbce"><path d="M 74 145 L 151 145 L 151 147.285156 L 74 147.285156 Z M 74 145 " clip-rule="nonzero"/></clipPath><clipPath id="b4571dd978"><path d="M 71.449219 145 L 74 145 L 74 147.285156 L 71.449219 147.285156 Z M 71.449219 145 " clip-rule="nonzero"/></clipPath><clipPath id="559c867bae"><path d="M 71.449219 68 L 74 68 L 74 145 L 71.449219 145 Z M 71.449219 68 " clip-rule="nonzero"/></clipPath><clipPath id="f638fefac1"><path d="M 71.449219 65.578125 L 74 65.578125 L 74 68 L 71.449219 68 Z M 71.449219 65.578125 " clip-rule="nonzero"/></clipPath><clipPath id="dc8a3e5157"><path d="M 74 65.578125 L 151 65.578125 L 151 68 L 74 68 Z M 74 65.578125 " clip-rule="nonzero"/></clipPath><clipPath id="e35baf636e"><path d="M 151 65.578125 L 153.15625 65.578125 L 153.15625 68 L 151 68 Z M 151 65.578125 " clip-rule="nonzero"/></clipPath><clipPath id="704c4b3d0e"><path d="M 151 68 L 153.15625 68 L 153.15625 145 L 151 145 Z M 151 68 " clip-rule="nonzero"/></clipPath><clipPath id="2acd7436ee"><path d="M 37.40625 37.207031 L 105.621094 37.207031 L 105.621094 85.183594 L 37.40625 85.183594 Z M 37.40625 37.207031 " clip-rule="nonzero"/></clipPath><clipPath id="c02ec1e154"><path d="M 158 121.488281 L 180.207031 121.488281 L 180.207031 159.71875 L 158 159.71875 Z M 158 121.488281 " clip-rule="nonzero"/></clipPath><clipPath id="5d305062a2"><path d="M 139.726562 141 L 157 141 L 157 144 L 139.726562 144 Z M 139.726562 141 " clip-rule="nonzero"/></clipPath><clipPath id="07050300b3"><path d="M 128.144531 57.371094 L 160.378906 57.371094 L 160.378906 97.429688 L 128.144531 97.429688 Z M 128.144531 57.371094 " clip-rule="nonzero"/></clipPath><clipPath id="49f88cab83"><path d="M 4.046875 25.226562 L 220.679688 25.226562 L 220.679688 202.132812 L 4.046875 202.132812 Z M 4.046875 25.226562 " clip-rule="nonzero"/></clipPath><clipPath id="2fb84b5219"><path d="M 101 91.480469 L 124 91.480469 L 124 116 L 101 116 Z M 101 91.480469 " clip-rule="nonzero"/></clipPath><clipPath id="cb9ea7f24c"><path d="M 91.25 115 L 133.980469 115 L 133.980469 137.957031 L 91.25 137.957031 Z M 91.25 115 " clip-rule="nonzero"/></clipPath><clipPath id="73374115f7"><path d="M 99 102 L 134 102 L 134 137.828125 L 99 137.828125 Z M 99 102 " clip-rule="nonzero"/></clipPath></defs><g clip-path="url(#8fcc9cb9cc)"><path fill="#ffffff" d="M 0 0.0585938 L 224.878906 0.0585938 L 224.878906 224.941406 L 0 224.941406 Z M 0 0.0585938 " fill-opacity="1" fill-rule="nonzero"/><path fill="#ffffff" d="M 0 0.0585938 L 224.878906 0.0585938 L 224.878906 224.941406 L 0 224.941406 Z M 0 0.0585938 " fill-opacity="1" fill-rule="nonzero"/></g><g clip-path="url(#80cbb0ee3a)"><path fill="#ffbd59" d="M 152.445312 147.550781 C 152.390625 147.550781 152.316406 147.550781 152.257812 147.535156 C 152.203125 147.515625 152.144531 147.496094 152.089844 147.476562 C 152.03125 147.457031 151.976562 147.421875 151.917969 147.382812 C 151.863281 147.347656 151.824219 147.308594 151.769531 147.269531 C 151.601562 147.101562 151.488281 146.855469 151.488281 146.59375 C 151.488281 146.347656 151.582031 146.105469 151.769531 145.917969 C 151.808594 145.878906 151.863281 145.839844 151.917969 145.804688 C 151.976562 145.765625 152.03125 145.746094 152.089844 145.710938 C 152.144531 145.691406 152.203125 145.671875 152.257812 145.652344 C 152.390625 145.636719 152.503906 145.636719 152.632812 145.652344 C 152.691406 145.671875 152.746094 145.691406 152.804688 145.710938 C 152.859375 145.730469 152.917969 145.765625 152.972656 145.804688 C 153.027344 145.839844 153.066406 145.878906 153.121094 145.917969 C 153.292969 146.085938 153.40625 146.332031 153.40625 146.59375 C 153.40625 146.839844 153.3125 147.101562 153.121094 147.269531 C 152.933594 147.441406 152.691406 147.550781 152.445312 147.550781 Z M 152.445312 147.550781 " fill-opacity="1" fill-rule="nonzero"/></g><g clip-path="url(#70cd05dbce)"><path fill="#ffbd59" d="M 148.160156 146.59375 C 148.160156 146.066406 148.589844 145.636719 149.117188 145.636719 C 149.644531 145.636719 150.078125 146.066406 150.078125 146.59375 C 150.078125 147.121094 149.644531 147.550781 149.117188 147.550781 C 148.589844 147.550781 148.160156 147.121094 148.160156 146.59375 Z M 144.8125 146.59375 C 144.8125 146.066406 145.246094 145.636719 145.769531 145.636719 C 146.296875 145.636719 146.730469 146.066406 146.730469 146.59375 C 146.730469 147.121094 146.296875 147.550781 145.769531 147.550781 C 145.246094 147.550781 144.8125 147.121094 144.8125 146.59375 Z M 141.484375 146.59375 C 141.484375 146.066406 141.917969 145.636719 142.445312 145.636719 C 142.96875 145.636719 143.402344 146.066406 143.402344 146.59375 C 143.402344 147.121094 142.96875 147.550781 142.445312 147.550781 C 141.917969 147.550781 141.484375 147.121094 141.484375 146.59375 Z M 138.15625 146.59375 C 138.15625 146.066406 138.589844 145.636719 139.117188 145.636719 C 139.640625 145.636719 140.074219 146.066406 140.074219 146.59375 C 140.074219 147.121094 139.640625 147.550781 139.117188 147.550781 C 138.589844 147.550781 138.15625 147.121094 138.15625 146.59375 Z M 134.828125 146.59375 C 134.828125 146.066406 135.261719 145.636719 135.789062 145.636719 C 136.3125 145.636719 136.746094 146.066406 136.746094 146.59375 C 136.746094 147.121094 136.3125 147.550781 135.789062 147.550781 C 135.242188 147.550781 134.828125 147.121094 134.828125 146.59375 Z M 131.480469 146.59375 C 131.480469 146.066406 131.914062 145.636719 132.441406 145.636719 C 132.96875 145.636719 133.398438 146.066406 133.398438 146.59375 C 133.398438 147.121094 132.96875 147.550781 132.441406 147.550781 C 131.914062 147.550781 131.480469 147.121094 131.480469 146.59375 Z M 128.152344 146.59375 C 128.152344 146.066406 128.585938 145.636719 129.113281 145.636719 C 129.640625 145.636719 130.070312 146.066406 130.070312 146.59375 C 130.070312 147.121094 129.640625 147.550781 129.113281 147.550781 C 128.585938 147.550781 128.152344 147.121094 128.152344 146.59375 Z M 124.828125 146.59375 C 124.828125 146.066406 125.257812 145.636719 125.785156 145.636719 C 126.3125 145.636719 126.742188 146.066406 126.742188 146.59375 C 126.742188 147.121094 126.3125 147.550781 125.785156 147.550781 C 125.238281 147.550781 124.828125 147.121094 124.828125 146.59375 Z M 121.5 146.59375 C 121.5 146.066406 121.929688 145.636719 122.457031 145.636719 C 122.984375 145.636719 123.417969 146.066406 123.417969 146.59375 C 123.417969 147.121094 122.984375 147.550781 122.457031 147.550781 C 121.910156 147.550781 121.5 147.121094 121.5 146.59375 Z M 118.152344 146.59375 C 118.152344 146.066406 118.585938 145.636719 119.109375 145.636719 C 119.636719 145.636719 120.070312 146.066406 120.070312 146.59375 C 120.070312 147.121094 119.636719 147.550781 119.109375 147.550781 C 118.585938 147.550781 118.152344 147.121094 118.152344 146.59375 Z M 114.824219 146.59375 C 114.824219 146.066406 115.257812 145.636719 115.78125 145.636719 C 116.308594 145.636719 116.742188 146.066406 116.742188 146.59375 C 116.742188 147.121094 116.308594 147.550781 115.78125 147.550781 C 115.257812 147.550781 114.824219 147.121094 114.824219 146.59375 Z M 111.496094 146.59375 C 111.496094 146.066406 111.929688 145.636719 112.453125 145.636719 C 112.980469 145.636719 113.414062 146.066406 113.414062 146.59375 C 113.414062 147.121094 112.980469 147.550781 112.453125 147.550781 C 111.910156 147.550781 111.496094 147.121094 111.496094 146.59375 Z M 108.148438 146.59375 C 108.148438 146.066406 108.582031 145.636719 109.109375 145.636719 C 109.632812 145.636719 110.066406 146.066406 110.066406 146.59375 C 110.066406 147.121094 109.632812 147.550781 109.109375 147.550781 C 108.582031 147.550781 108.148438 147.121094 108.148438 146.59375 Z M 104.820312 146.59375 C 104.820312 146.066406 105.253906 145.636719 105.78125 145.636719 C 106.304688 145.636719 106.738281 146.066406 106.738281 146.59375 C 106.738281 147.121094 106.304688 147.550781 105.78125 147.550781 C 105.253906 147.550781 104.820312 147.121094 104.820312 146.59375 Z M 101.492188 146.59375 C 101.492188 146.066406 101.925781 145.636719 102.453125 145.636719 C 102.980469 145.636719 103.410156 146.066406 103.410156 146.59375 C 103.410156 147.121094 102.980469 147.550781 102.453125 147.550781 C 101.90625 147.550781 101.492188 147.121094 101.492188 146.59375 Z M 98.148438 146.59375 C 98.148438 146.066406 98.578125 145.636719 99.105469 145.636719 C 99.632812 145.636719 100.0625 146.066406 100.0625 146.59375 C 100.0625 147.121094 99.632812 147.550781 99.105469 147.550781 C 98.578125 147.550781 98.148438 147.121094 98.148438 146.59375 Z M 94.820312 146.59375 C 94.820312 146.066406 95.25 145.636719 95.777344 145.636719 C 96.304688 145.636719 96.738281 146.066406 96.738281 146.59375 C 96.738281 147.121094 96.304688 147.550781 95.777344 147.550781 C 95.25 147.550781 94.820312 147.121094 94.820312 146.59375 Z M 91.492188 146.59375 C 91.492188 146.066406 91.921875 145.636719 92.449219 145.636719 C 92.976562 145.636719 93.410156 146.066406 93.410156 146.59375 C 93.410156 147.121094 92.976562 147.550781 92.449219 147.550781 C 91.90625 147.550781 91.492188 147.121094 91.492188 146.59375 Z M 88.164062 146.59375 C 88.164062 146.066406 88.59375 145.636719 89.121094 145.636719 C 89.648438 145.636719 90.082031 146.066406 90.082031 146.59375 C 90.082031 147.121094 89.648438 147.550781 89.121094 147.550781 C 88.578125 147.550781 88.164062 147.121094 88.164062 146.59375 Z M 84.816406 146.59375 C 84.816406 146.066406 85.25 145.636719 85.773438 145.636719 C 86.300781 145.636719 86.734375 146.066406 86.734375 146.59375 C 86.734375 147.121094 86.300781 147.550781 85.773438 147.550781 C 85.25 147.550781 84.816406 147.121094 84.816406 146.59375 Z M 81.488281 146.59375 C 81.488281 146.066406 81.921875 145.636719 82.445312 145.636719 C 82.972656 145.636719 83.40625 146.066406 83.40625 146.59375 C 83.40625 147.121094 82.972656 147.550781 82.445312 147.550781 C 81.921875 147.550781 81.488281 147.121094 81.488281 146.59375 Z M 78.160156 146.59375 C 78.160156 146.066406 78.59375 145.636719 79.117188 145.636719 C 79.644531 145.636719 80.078125 146.066406 80.078125 146.59375 C 80.078125 147.121094 79.644531 147.550781 79.117188 147.550781 C 78.574219 147.550781 78.160156 147.121094 78.160156 146.59375 Z M 74.8125 146.59375 C 74.8125 146.066406 75.246094 145.636719 75.773438 145.636719 C 76.300781 145.636719 76.730469 146.066406 76.730469 146.59375 C 76.730469 147.121094 76.300781 147.550781 75.773438 147.550781 C 75.246094 147.550781 74.8125 147.121094 74.8125 146.59375 Z M 74.8125 146.59375 " fill-opacity="1" fill-rule="nonzero"/></g><g clip-path="url(#b4571dd978)"><path fill="#ffbd59" d="M 72.445312 147.550781 C 72.386719 147.550781 72.3125 147.550781 72.257812 147.535156 C 72.199219 147.515625 72.125 147.496094 72.070312 147.476562 C 72.011719 147.457031 71.957031 147.421875 71.898438 147.382812 C 71.84375 147.347656 71.804688 147.308594 71.75 147.269531 C 71.5625 147.101562 71.46875 146.855469 71.46875 146.59375 C 71.46875 146.347656 71.5625 146.105469 71.75 145.917969 C 71.785156 145.878906 71.84375 145.839844 71.898438 145.804688 C 71.957031 145.765625 72.011719 145.746094 72.070312 145.710938 C 72.125 145.671875 72.179688 145.671875 72.257812 145.652344 C 72.386719 145.636719 72.5 145.636719 72.632812 145.652344 C 72.6875 145.671875 72.765625 145.691406 72.820312 145.710938 C 72.875 145.730469 72.933594 145.765625 72.988281 145.804688 C 73.046875 145.839844 73.082031 145.878906 73.140625 145.917969 C 73.308594 146.085938 73.421875 146.332031 73.421875 146.59375 C 73.421875 146.839844 73.328125 147.101562 73.140625 147.269531 C 73.101562 147.308594 73.046875 147.363281 72.988281 147.382812 C 72.933594 147.421875 72.875 147.441406 72.820312 147.476562 C 72.765625 147.496094 72.707031 147.515625 72.632812 147.535156 C 72.558594 147.535156 72.5 147.550781 72.445312 147.550781 Z M 72.445312 147.550781 " fill-opacity="1" fill-rule="nonzero"/></g><g clip-path="url(#559c867bae)"><path fill="#ffbd59" d="M 71.484375 143.265625 C 71.484375 142.738281 71.917969 142.308594 72.445312 142.308594 C 72.972656 142.308594 73.402344 142.738281 73.402344 143.265625 C 73.402344 143.792969 72.972656 144.226562 72.445312 144.226562 C 71.917969 144.207031 71.484375 143.792969 71.484375 143.265625 Z M 71.484375 139.917969 C 71.484375 139.394531 71.917969 138.960938 72.445312 138.960938 C 72.972656 138.960938 73.402344 139.394531 73.402344 139.917969 C 73.402344 140.445312 72.972656 140.878906 72.445312 140.878906 C 71.917969 140.878906 71.484375 140.445312 71.484375 139.917969 Z M 71.484375 136.589844 C 71.484375 136.066406 71.917969 135.632812 72.445312 135.632812 C 72.972656 135.632812 73.402344 136.066406 73.402344 136.589844 C 73.402344 137.117188 72.972656 137.550781 72.445312 137.550781 C 71.917969 137.550781 71.484375 137.117188 71.484375 136.589844 Z M 71.484375 133.261719 C 71.484375 132.738281 71.917969 132.304688 72.445312 132.304688 C 72.972656 132.304688 73.402344 132.738281 73.402344 133.261719 C 73.402344 133.789062 72.972656 134.222656 72.445312 134.222656 C 71.917969 134.203125 71.484375 133.789062 71.484375 133.261719 Z M 71.484375 129.917969 C 71.484375 129.390625 71.917969 128.957031 72.445312 128.957031 C 72.972656 128.957031 73.402344 129.390625 73.402344 129.917969 C 73.402344 130.441406 72.972656 130.875 72.445312 130.875 C 71.917969 130.875 71.484375 130.441406 71.484375 129.917969 Z M 71.484375 126.589844 C 71.484375 126.0625 71.917969 125.628906 72.445312 125.628906 C 72.972656 125.628906 73.402344 126.0625 73.402344 126.589844 C 73.402344 127.113281 72.972656 127.546875 72.445312 127.546875 C 71.917969 127.546875 71.484375 127.113281 71.484375 126.589844 Z M 71.484375 123.261719 C 71.484375 122.734375 71.917969 122.300781 72.445312 122.300781 C 72.972656 122.300781 73.402344 122.734375 73.402344 123.261719 C 73.402344 123.789062 72.972656 124.21875 72.445312 124.21875 C 71.917969 124.21875 71.484375 123.789062 71.484375 123.261719 Z M 71.484375 119.933594 C 71.484375 119.40625 71.917969 118.972656 72.445312 118.972656 C 72.972656 118.972656 73.402344 119.40625 73.402344 119.933594 C 73.402344 120.460938 72.972656 120.890625 72.445312 120.890625 C 71.917969 120.871094 71.484375 120.460938 71.484375 119.933594 Z M 71.484375 116.585938 C 71.484375 116.058594 71.917969 115.628906 72.445312 115.628906 C 72.972656 115.628906 73.402344 116.058594 73.402344 116.585938 C 73.402344 117.113281 72.972656 117.546875 72.445312 117.546875 C 71.917969 117.546875 71.484375 117.113281 71.484375 116.585938 Z M 71.484375 113.257812 C 71.484375 112.730469 71.917969 112.300781 72.445312 112.300781 C 72.972656 112.300781 73.402344 112.730469 73.402344 113.257812 C 73.402344 113.785156 72.972656 114.21875 72.445312 114.21875 C 71.917969 114.21875 71.484375 113.785156 71.484375 113.257812 Z M 71.484375 109.929688 C 71.484375 109.402344 71.917969 108.972656 72.445312 108.972656 C 72.972656 108.972656 73.402344 109.402344 73.402344 109.929688 C 73.402344 110.457031 72.972656 110.890625 72.445312 110.890625 C 71.917969 110.871094 71.484375 110.457031 71.484375 109.929688 Z M 71.484375 106.582031 C 71.484375 106.058594 71.917969 105.625 72.445312 105.625 C 72.972656 105.625 73.402344 106.058594 73.402344 106.582031 C 73.402344 107.109375 72.972656 107.542969 72.445312 107.542969 C 71.917969 107.542969 71.484375 107.109375 71.484375 106.582031 Z M 71.484375 103.253906 C 71.484375 102.730469 71.917969 102.296875 72.445312 102.296875 C 72.972656 102.296875 73.402344 102.730469 73.402344 103.253906 C 73.402344 103.78125 72.972656 104.214844 72.445312 104.214844 C 71.917969 104.214844 71.484375 103.78125 71.484375 103.253906 Z M 71.484375 99.929688 C 71.484375 99.402344 71.917969 98.96875 72.445312 98.96875 C 72.972656 98.96875 73.402344 99.402344 73.402344 99.929688 C 73.402344 100.453125 72.972656 100.886719 72.445312 100.886719 C 71.917969 100.886719 71.484375 100.453125 71.484375 99.929688 Z M 71.484375 96.582031 C 71.484375 96.054688 71.917969 95.621094 72.445312 95.621094 C 72.972656 95.621094 73.402344 96.054688 73.402344 96.582031 C 73.402344 97.109375 72.972656 97.539062 72.445312 97.539062 C 71.917969 97.539062 71.484375 97.109375 71.484375 96.582031 Z M 71.484375 93.253906 C 71.484375 92.726562 71.917969 92.292969 72.445312 92.292969 C 72.972656 92.292969 73.402344 92.726562 73.402344 93.253906 C 73.402344 93.78125 72.972656 94.210938 72.445312 94.210938 C 71.917969 94.210938 71.484375 93.78125 71.484375 93.253906 Z M 71.484375 89.925781 C 71.484375 89.398438 71.917969 88.964844 72.445312 88.964844 C 72.972656 88.964844 73.402344 89.398438 73.402344 89.925781 C 73.402344 90.453125 72.972656 90.882812 72.445312 90.882812 C 71.917969 90.882812 71.484375 90.453125 71.484375 89.925781 Z M 71.484375 86.597656 C 71.484375 86.070312 71.917969 85.636719 72.445312 85.636719 C 72.972656 85.636719 73.402344 86.070312 73.402344 86.597656 C 73.402344 87.125 72.972656 87.554688 72.445312 87.554688 C 71.917969 87.539062 71.484375 87.125 71.484375 86.597656 Z M 71.484375 83.25 C 71.484375 82.722656 71.917969 82.292969 72.445312 82.292969 C 72.972656 82.292969 73.402344 82.722656 73.402344 83.25 C 73.402344 83.777344 72.972656 84.210938 72.445312 84.210938 C 71.917969 84.210938 71.484375 83.777344 71.484375 83.25 Z M 71.484375 79.921875 C 71.484375 79.394531 71.917969 78.964844 72.445312 78.964844 C 72.972656 78.964844 73.402344 79.394531 73.402344 79.921875 C 73.402344 80.449219 72.972656 80.882812 72.445312 80.882812 C 71.917969 80.882812 71.484375 80.449219 71.484375 79.921875 Z M 71.484375 76.59375 C 71.484375 76.066406 71.917969 75.636719 72.445312 75.636719 C 72.972656 75.636719 73.402344 76.066406 73.402344 76.59375 C 73.402344 77.121094 72.972656 77.554688 72.445312 77.554688 C 71.917969 77.535156 71.484375 77.121094 71.484375 76.59375 Z M 71.484375 73.25 C 71.484375 72.722656 71.917969 72.289062 72.445312 72.289062 C 72.972656 72.289062 73.402344 72.722656 73.402344 73.25 C 73.402344 73.773438 72.972656 74.207031 72.445312 74.207031 C 71.917969 74.207031 71.484375 73.773438 71.484375 73.25 Z M 71.484375 69.921875 C 71.484375 69.394531 71.917969 68.960938 72.445312 68.960938 C 72.972656 68.960938 73.402344 69.394531 73.402344 69.921875 C 73.402344 70.445312 72.972656 70.878906 72.445312 70.878906 C 71.917969 70.878906 71.484375 70.445312 71.484375 69.921875 Z M 71.484375 69.921875 " fill-opacity="1" fill-rule="nonzero"/></g><g clip-path="url(#f638fefac1)"><path fill="#ffbd59" d="M 72.445312 67.550781 C 72.199219 67.550781 71.957031 67.457031 71.769531 67.269531 C 71.710938 67.210938 71.671875 67.175781 71.65625 67.117188 C 71.617188 67.0625 71.578125 67.007812 71.5625 66.949219 C 71.542969 66.894531 71.523438 66.835938 71.503906 66.761719 C 71.484375 66.703125 71.484375 66.648438 71.484375 66.59375 C 71.484375 66.347656 71.578125 66.085938 71.769531 65.914062 C 71.992188 65.691406 72.3125 65.597656 72.632812 65.652344 C 72.6875 65.671875 72.765625 65.691406 72.820312 65.707031 C 72.875 65.726562 72.933594 65.765625 72.988281 65.800781 C 73.027344 65.820312 73.066406 65.859375 73.121094 65.914062 C 73.308594 66.085938 73.402344 66.347656 73.402344 66.59375 C 73.402344 66.648438 73.402344 66.722656 73.382812 66.78125 C 73.367188 66.835938 73.347656 66.894531 73.328125 66.949219 C 73.289062 67.007812 73.273438 67.0625 73.234375 67.117188 C 73.195312 67.175781 73.160156 67.210938 73.121094 67.269531 C 73.066406 67.308594 73.027344 67.34375 72.972656 67.382812 C 72.914062 67.417969 72.859375 67.4375 72.800781 67.476562 C 72.746094 67.496094 72.6875 67.511719 72.613281 67.53125 C 72.558594 67.53125 72.5 67.550781 72.445312 67.550781 Z M 72.445312 67.550781 " fill-opacity="1" fill-rule="nonzero"/></g><g clip-path="url(#dc8a3e5157)"><path fill="#ffbd59" d="M 148.160156 66.59375 C 148.160156 66.066406 148.589844 65.632812 149.117188 65.632812 C 149.644531 65.632812 150.078125 66.066406 150.078125 66.59375 C 150.078125 67.117188 149.644531 67.550781 149.117188 67.550781 C 148.589844 67.550781 148.160156 67.117188 148.160156 66.59375 Z M 144.8125 66.59375 C 144.8125 66.066406 145.246094 65.632812 145.769531 65.632812 C 146.296875 65.632812 146.730469 66.066406 146.730469 66.59375 C 146.730469 67.117188 146.296875 67.550781 145.769531 67.550781 C 145.246094 67.550781 144.8125 67.117188 144.8125 66.59375 Z M 141.484375 66.59375 C 141.484375 66.066406 141.917969 65.632812 142.445312 65.632812 C 142.96875 65.632812 143.402344 66.066406 143.402344 66.59375 C 143.402344 67.117188 142.96875 67.550781 142.445312 67.550781 C 141.917969 67.550781 141.484375 67.117188 141.484375 66.59375 Z M 138.15625 66.59375 C 138.15625 66.066406 138.589844 65.632812 139.117188 65.632812 C 139.640625 65.632812 140.074219 66.066406 140.074219 66.59375 C 140.074219 67.117188 139.640625 67.550781 139.117188 67.550781 C 138.589844 67.550781 138.15625 67.117188 138.15625 66.59375 Z M 134.828125 66.59375 C 134.828125 66.066406 135.261719 65.632812 135.789062 65.632812 C 136.3125 65.632812 136.746094 66.066406 136.746094 66.59375 C 136.746094 67.117188 136.3125 67.550781 135.789062 67.550781 C 135.242188 67.550781 134.828125 67.117188 134.828125 66.59375 Z M 131.480469 66.59375 C 131.480469 66.066406 131.914062 65.632812 132.441406 65.632812 C 132.96875 65.632812 133.398438 66.066406 133.398438 66.59375 C 133.398438 67.117188 132.96875 67.550781 132.441406 67.550781 C 131.914062 67.550781 131.480469 67.117188 131.480469 66.59375 Z M 128.152344 66.59375 C 128.152344 66.066406 128.585938 65.632812 129.113281 65.632812 C 129.640625 65.632812 130.070312 66.066406 130.070312 66.59375 C 130.070312 67.117188 129.640625 67.550781 129.113281 67.550781 C 128.585938 67.550781 128.152344 67.117188 128.152344 66.59375 Z M 124.828125 66.59375 C 124.828125 66.066406 125.257812 65.632812 125.785156 65.632812 C 126.3125 65.632812 126.742188 66.066406 126.742188 66.59375 C 126.742188 67.117188 126.3125 67.550781 125.785156 67.550781 C 125.238281 67.550781 124.828125 67.117188 124.828125 66.59375 Z M 121.480469 66.59375 C 121.480469 66.066406 121.910156 65.632812 122.4375 65.632812 C 122.964844 65.632812 123.398438 66.066406 123.398438 66.59375 C 123.398438 67.117188 122.964844 67.550781 122.4375 67.550781 C 121.910156 67.550781 121.480469 67.117188 121.480469 66.59375 Z M 118.152344 66.59375 C 118.152344 66.066406 118.585938 65.632812 119.109375 65.632812 C 119.636719 65.632812 120.070312 66.066406 120.070312 66.59375 C 120.070312 67.117188 119.636719 67.550781 119.109375 67.550781 C 118.585938 67.550781 118.152344 67.117188 118.152344 66.59375 Z M 114.824219 66.59375 C 114.824219 66.066406 115.257812 65.632812 115.78125 65.632812 C 116.308594 65.632812 116.742188 66.066406 116.742188 66.59375 C 116.742188 67.117188 116.308594 67.550781 115.78125 67.550781 C 115.257812 67.550781 114.824219 67.117188 114.824219 66.59375 Z M 111.496094 66.59375 C 111.496094 66.066406 111.929688 65.632812 112.453125 65.632812 C 112.980469 65.632812 113.414062 66.066406 113.414062 66.59375 C 113.414062 67.117188 112.980469 67.550781 112.453125 67.550781 C 111.910156 67.550781 111.496094 67.117188 111.496094 66.59375 Z M 108.148438 66.59375 C 108.148438 66.066406 108.582031 65.632812 109.109375 65.632812 C 109.632812 65.632812 110.066406 66.066406 110.066406 66.59375 C 110.066406 67.117188 109.632812 67.550781 109.109375 67.550781 C 108.582031 67.550781 108.148438 67.117188 108.148438 66.59375 Z M 104.820312 66.59375 C 104.820312 66.066406 105.253906 65.632812 105.78125 65.632812 C 106.304688 65.632812 106.738281 66.066406 106.738281 66.59375 C 106.738281 67.117188 106.304688 67.550781 105.78125 67.550781 C 105.253906 67.550781 104.820312 67.117188 104.820312 66.59375 Z M 101.492188 66.59375 C 101.492188 66.066406 101.925781 65.632812 102.453125 65.632812 C 102.980469 65.632812 103.410156 66.066406 103.410156 66.59375 C 103.410156 67.117188 102.980469 67.550781 102.453125 67.550781 C 101.90625 67.550781 101.492188 67.117188 101.492188 66.59375 Z M 98.148438 66.59375 C 98.148438 66.066406 98.578125 65.632812 99.105469 65.632812 C 99.632812 65.632812 100.0625 66.066406 100.0625 66.59375 C 100.0625 67.117188 99.632812 67.550781 99.105469 67.550781 C 98.578125 67.550781 98.148438 67.117188 98.148438 66.59375 Z M 94.820312 66.59375 C 94.820312 66.066406 95.25 65.632812 95.777344 65.632812 C 96.304688 65.632812 96.738281 66.066406 96.738281 66.59375 C 96.738281 67.117188 96.304688 67.550781 95.777344 67.550781 C 95.25 67.550781 94.820312 67.117188 94.820312 66.59375 Z M 91.492188 66.59375 C 91.492188 66.066406 91.921875 65.632812 92.449219 65.632812 C 92.976562 65.632812 93.410156 66.066406 93.410156 66.59375 C 93.410156 67.117188 92.976562 67.550781 92.449219 67.550781 C 91.90625 67.550781 91.492188 67.117188 91.492188 66.59375 Z M 88.144531 66.59375 C 88.144531 66.066406 88.578125 65.632812 89.101562 65.632812 C 89.628906 65.632812 90.0625 66.066406 90.0625 66.59375 C 90.0625 67.117188 89.628906 67.550781 89.101562 67.550781 C 88.578125 67.550781 88.144531 67.117188 88.144531 66.59375 Z M 84.816406 66.59375 C 84.816406 66.066406 85.25 65.632812 85.773438 65.632812 C 86.300781 65.632812 86.734375 66.066406 86.734375 66.59375 C 86.734375 67.117188 86.300781 67.550781 85.773438 67.550781 C 85.25 67.550781 84.816406 67.117188 84.816406 66.59375 Z M 81.488281 66.59375 C 81.488281 66.066406 81.921875 65.632812 82.445312 65.632812 C 82.972656 65.632812 83.40625 66.066406 83.40625 66.59375 C 83.40625 67.117188 82.972656 67.550781 82.445312 67.550781 C 81.921875 67.550781 81.488281 67.117188 81.488281 66.59375 Z M 78.160156 66.59375 C 78.160156 66.066406 78.59375 65.632812 79.117188 65.632812 C 79.644531 65.632812 80.078125 66.066406 80.078125 66.59375 C 80.078125 67.117188 79.644531 67.550781 79.117188 67.550781 C 78.574219 67.550781 78.160156 67.117188 78.160156 66.59375 Z M 74.8125 66.59375 C 74.8125 66.066406 75.246094 65.632812 75.773438 65.632812 C 76.300781 65.632812 76.730469 66.066406 76.730469 66.59375 C 76.730469 67.117188 76.300781 67.550781 75.773438 67.550781 C 75.246094 67.550781 74.8125 67.117188 74.8125 66.59375 Z M 74.8125 66.59375 " fill-opacity="1" fill-rule="nonzero"/></g><g clip-path="url(#e35baf636e)"><path fill="#ffbd59" d="M 152.445312 67.550781 C 152.203125 67.550781 151.9375 67.4375 151.769531 67.269531 C 151.730469 67.230469 151.675781 67.175781 151.65625 67.117188 C 151.617188 67.0625 151.601562 67.007812 151.5625 66.949219 C 151.542969 66.894531 151.523438 66.835938 151.507812 66.761719 C 151.488281 66.703125 151.488281 66.628906 151.488281 66.574219 C 151.488281 66.515625 151.488281 66.441406 151.507812 66.386719 C 151.523438 66.328125 151.542969 66.273438 151.5625 66.214844 C 151.582031 66.160156 151.617188 66.101562 151.65625 66.046875 C 151.695312 65.992188 151.730469 65.933594 151.769531 65.898438 C 151.808594 65.859375 151.863281 65.820312 151.917969 65.785156 C 151.976562 65.746094 152.03125 65.726562 152.089844 65.691406 C 152.144531 65.671875 152.203125 65.652344 152.257812 65.632812 C 152.578125 65.578125 152.898438 65.671875 153.121094 65.898438 C 153.160156 65.933594 153.21875 65.992188 153.234375 66.046875 C 153.273438 66.101562 153.292969 66.160156 153.328125 66.214844 C 153.347656 66.273438 153.367188 66.328125 153.386719 66.386719 C 153.40625 66.441406 153.40625 66.515625 153.40625 66.574219 C 153.40625 66.628906 153.40625 66.703125 153.386719 66.761719 C 153.367188 66.816406 153.347656 66.894531 153.328125 66.949219 C 153.3125 67.007812 153.273438 67.0625 153.234375 67.117188 C 153.199219 67.175781 153.160156 67.210938 153.121094 67.269531 C 152.933594 67.4375 152.691406 67.550781 152.445312 67.550781 Z M 152.445312 67.550781 " fill-opacity="1" fill-rule="nonzero"/></g><g clip-path="url(#704c4b3d0e)"><path fill="#ffbd59" d="M 151.488281 143.265625 C 151.488281 142.738281 151.917969 142.308594 152.445312 142.308594 C 152.972656 142.308594 153.40625 142.738281 153.40625 143.265625 C 153.40625 143.792969 152.972656 144.226562 152.445312 144.226562 C 151.917969 144.207031 151.488281 143.792969 151.488281 143.265625 Z M 151.488281 139.917969 C 151.488281 139.394531 151.917969 138.960938 152.445312 138.960938 C 152.972656 138.960938 153.40625 139.394531 153.40625 139.917969 C 153.40625 140.445312 152.972656 140.878906 152.445312 140.878906 C 151.917969 140.878906 151.488281 140.445312 151.488281 139.917969 Z M 151.488281 136.589844 C 151.488281 136.066406 151.917969 135.632812 152.445312 135.632812 C 152.972656 135.632812 153.40625 136.066406 153.40625 136.589844 C 153.40625 137.117188 152.972656 137.550781 152.445312 137.550781 C 151.917969 137.550781 151.488281 137.117188 151.488281 136.589844 Z M 151.488281 133.261719 C 151.488281 132.738281 151.917969 132.304688 152.445312 132.304688 C 152.972656 132.304688 153.40625 132.738281 153.40625 133.261719 C 153.40625 133.789062 152.972656 134.222656 152.445312 134.222656 C 151.917969 134.203125 151.488281 133.789062 151.488281 133.261719 Z M 151.488281 129.917969 C 151.488281 129.390625 151.917969 128.957031 152.445312 128.957031 C 152.972656 128.957031 153.40625 129.390625 153.40625 129.917969 C 153.40625 130.441406 152.972656 130.875 152.445312 130.875 C 151.917969 130.875 151.488281 130.441406 151.488281 129.917969 Z M 151.488281 126.589844 C 151.488281 126.0625 151.917969 125.628906 152.445312 125.628906 C 152.972656 125.628906 153.40625 126.0625 153.40625 126.589844 C 153.40625 127.113281 152.972656 127.546875 152.445312 127.546875 C 151.917969 127.546875 151.488281 127.113281 151.488281 126.589844 Z M 151.488281 123.261719 C 151.488281 122.734375 151.917969 122.300781 152.445312 122.300781 C 152.972656 122.300781 153.40625 122.734375 153.40625 123.261719 C 153.40625 123.789062 152.972656 124.21875 152.445312 124.21875 C 151.917969 124.21875 151.488281 123.789062 151.488281 123.261719 Z M 151.488281 119.914062 C 151.488281 119.386719 151.917969 118.957031 152.445312 118.957031 C 152.972656 118.957031 153.40625 119.386719 153.40625 119.914062 C 153.40625 120.441406 152.972656 120.871094 152.445312 120.871094 C 151.917969 120.871094 151.488281 120.460938 151.488281 119.914062 Z M 151.488281 116.585938 C 151.488281 116.058594 151.917969 115.628906 152.445312 115.628906 C 152.972656 115.628906 153.40625 116.058594 153.40625 116.585938 C 153.40625 117.113281 152.972656 117.546875 152.445312 117.546875 C 151.917969 117.546875 151.488281 117.113281 151.488281 116.585938 Z M 151.488281 113.257812 C 151.488281 112.730469 151.917969 112.300781 152.445312 112.300781 C 152.972656 112.300781 153.40625 112.730469 153.40625 113.257812 C 153.40625 113.785156 152.972656 114.21875 152.445312 114.21875 C 151.917969 114.21875 151.488281 113.785156 151.488281 113.257812 Z M 151.488281 109.929688 C 151.488281 109.402344 151.917969 108.972656 152.445312 108.972656 C 152.972656 108.972656 153.40625 109.402344 153.40625 109.929688 C 153.40625 110.457031 152.972656 110.890625 152.445312 110.890625 C 151.917969 110.871094 151.488281 110.457031 151.488281 109.929688 Z M 151.488281 106.582031 C 151.488281 106.058594 151.917969 105.625 152.445312 105.625 C 152.972656 105.625 153.40625 106.058594 153.40625 106.582031 C 153.40625 107.109375 152.972656 107.542969 152.445312 107.542969 C 151.917969 107.542969 151.488281 107.109375 151.488281 106.582031 Z M 151.488281 103.253906 C 151.488281 102.730469 151.917969 102.296875 152.445312 102.296875 C 152.972656 102.296875 153.40625 102.730469 153.40625 103.253906 C 153.40625 103.78125 152.972656 104.214844 152.445312 104.214844 C 151.917969 104.214844 151.488281 103.78125 151.488281 103.253906 Z M 151.488281 99.929688 C 151.488281 99.402344 151.917969 98.96875 152.445312 98.96875 C 152.972656 98.96875 153.40625 99.402344 153.40625 99.929688 C 153.40625 100.453125 152.972656 100.886719 152.445312 100.886719 C 151.917969 100.886719 151.488281 100.453125 151.488281 99.929688 Z M 151.488281 96.582031 C 151.488281 96.054688 151.917969 95.621094 152.445312 95.621094 C 152.972656 95.621094 153.40625 96.054688 153.40625 96.582031 C 153.40625 97.109375 152.972656 97.539062 152.445312 97.539062 C 151.917969 97.539062 151.488281 97.109375 151.488281 96.582031 Z M 151.488281 93.253906 C 151.488281 92.726562 151.917969 92.292969 152.445312 92.292969 C 152.972656 92.292969 153.40625 92.726562 153.40625 93.253906 C 153.40625 93.78125 152.972656 94.210938 152.445312 94.210938 C 151.917969 94.210938 151.488281 93.78125 151.488281 93.253906 Z M 151.488281 89.925781 C 151.488281 89.398438 151.917969 88.964844 152.445312 88.964844 C 152.972656 88.964844 153.40625 89.398438 153.40625 89.925781 C 153.40625 90.453125 152.972656 90.882812 152.445312 90.882812 C 151.917969 90.882812 151.488281 90.453125 151.488281 89.925781 Z M 151.488281 86.578125 C 151.488281 86.050781 151.917969 85.621094 152.445312 85.621094 C 152.972656 85.621094 153.40625 86.050781 153.40625 86.578125 C 153.40625 87.105469 152.972656 87.539062 152.445312 87.539062 C 151.917969 87.539062 151.488281 87.125 151.488281 86.578125 Z M 151.488281 83.25 C 151.488281 82.722656 151.917969 82.292969 152.445312 82.292969 C 152.972656 82.292969 153.40625 82.722656 153.40625 83.25 C 153.40625 83.777344 152.972656 84.210938 152.445312 84.210938 C 151.917969 84.210938 151.488281 83.777344 151.488281 83.25 Z M 151.488281 79.921875 C 151.488281 79.394531 151.917969 78.964844 152.445312 78.964844 C 152.972656 78.964844 153.40625 79.394531 153.40625 79.921875 C 153.40625 80.449219 152.972656 80.882812 152.445312 80.882812 C 151.917969 80.882812 151.488281 80.449219 151.488281 79.921875 Z M 151.488281 76.59375 C 151.488281 76.066406 151.917969 75.636719 152.445312 75.636719 C 152.972656 75.636719 153.40625 76.066406 153.40625 76.59375 C 153.40625 77.121094 152.972656 77.554688 152.445312 77.554688 C 151.917969 77.535156 151.488281 77.121094 151.488281 76.59375 Z M 151.488281 73.25 C 151.488281 72.722656 151.917969 72.289062 152.445312 72.289062 C 152.972656 72.289062 153.40625 72.722656 153.40625 73.25 C 153.40625 73.773438 152.972656 74.207031 152.445312 74.207031 C 151.917969 74.207031 151.488281 73.773438 151.488281 73.25 Z M 151.488281 69.921875 C 151.488281 69.394531 151.917969 68.960938 152.445312 68.960938 C 152.972656 68.960938 153.40625 69.394531 153.40625 69.921875 C 153.40625 70.445312 152.972656 70.878906 152.445312 70.878906 C 151.917969 70.878906 151.488281 70.445312 151.488281 69.921875 Z M 151.488281 69.921875 " fill-opacity="1" fill-rule="nonzero"/></g><g clip-path="url(#2acd7436ee)"><path fill="#000000" d="M 99.933594 37.210938 C 96.746094 37.210938 94.25 40.722656 94.25 45.207031 C 94.25 49.140625 96.171875 52.324219 98.796875 53.046875 L 98.796875 84.039062 C 98.796875 84.667969 99.308594 85.179688 99.933594 85.179688 C 100.5625 85.179688 101.070312 84.667969 101.070312 84.039062 L 101.070312 53.046875 C 103.695312 52.324219 105.621094 49.140625 105.621094 45.207031 C 105.621094 40.722656 103.121094 37.210938 99.933594 37.210938 Z M 99.933594 50.917969 C 98.085938 50.917969 96.523438 48.300781 96.523438 45.207031 C 96.523438 42.113281 98.085938 39.496094 99.933594 39.496094 C 101.785156 39.496094 103.347656 42.113281 103.347656 45.207031 C 103.347656 48.300781 101.785156 50.917969 99.933594 50.917969 Z M 71.511719 37.210938 C 58.347656 37.210938 47.636719 47.972656 47.636719 61.195312 C 47.636719 74.421875 58.347656 85.179688 71.511719 85.179688 C 84.675781 85.179688 95.386719 74.421875 95.386719 61.195312 C 95.386719 47.972656 84.675781 37.210938 71.511719 37.210938 Z M 71.511719 82.894531 C 59.601562 82.894531 49.910156 73.160156 49.910156 61.195312 C 49.910156 49.230469 59.601562 39.496094 71.511719 39.496094 C 83.421875 39.496094 93.113281 49.230469 93.113281 61.195312 C 93.113281 73.160156 83.421875 82.894531 71.511719 82.894531 Z M 71.511719 46.347656 C 63.363281 46.347656 56.734375 53.007812 56.734375 61.195312 C 56.734375 61.828125 56.222656 62.339844 55.597656 62.339844 C 54.96875 62.339844 54.460938 61.828125 54.460938 61.195312 C 54.460938 51.75 62.109375 44.066406 71.511719 44.066406 C 72.140625 44.066406 72.648438 44.574219 72.648438 45.207031 C 72.648438 45.835938 72.140625 46.347656 71.511719 46.347656 Z M 87.429688 60.054688 C 88.058594 60.054688 88.566406 60.566406 88.566406 61.195312 C 88.566406 70.640625 80.917969 78.328125 71.511719 78.328125 C 70.886719 78.328125 70.375 77.816406 70.375 77.183594 C 70.375 76.554688 70.886719 76.042969 71.511719 76.042969 C 79.664062 76.042969 86.292969 69.382812 86.292969 61.195312 C 86.292969 60.566406 86.800781 60.054688 87.429688 60.054688 Z M 70.375 69.191406 C 70.375 69.820312 70.886719 70.332031 71.511719 70.332031 C 72.140625 70.332031 72.648438 69.820312 72.648438 69.191406 L 72.648438 65.652344 C 76.964844 65.113281 79.910156 63.554688 81.40625 61.019531 C 83.613281 57.277344 81.726562 52.921875 81.648438 52.738281 C 81.425781 52.242188 80.890625 51.96875 80.363281 52.085938 C 74.585938 53.375 72.171875 56.75 71.164062 59.355469 C 71.117188 59.472656 71.078125 59.589844 71.035156 59.703125 C 70.730469 59.277344 70.371094 58.867188 69.941406 58.484375 C 68.097656 56.851562 65.519531 56.230469 62.277344 56.636719 C 61.769531 56.699219 61.363281 57.097656 61.292969 57.609375 C 61.273438 57.753906 60.816406 61.160156 63.167969 63.597656 C 64.628906 65.113281 66.792969 65.875 69.613281 65.875 C 69.859375 65.875 70.117188 65.867188 70.375 65.855469 Z M 79.871094 54.570312 C 80.203125 55.785156 80.550781 58 79.441406 59.867188 C 78.34375 61.71875 76.050781 62.886719 72.617188 63.355469 C 72.710938 61.15625 73.65625 56.390625 79.871094 54.570312 Z M 64.8125 62.019531 C 63.832031 61.011719 63.578125 59.679688 63.527344 58.816406 C 65.621094 58.707031 67.261719 59.164062 68.421875 60.183594 C 69.585938 61.207031 70.054688 62.621094 70.246094 63.578125 C 67.757812 63.691406 65.933594 63.167969 64.8125 62.019531 Z M 48.773438 47.492188 L 48.773438 38.355469 C 48.773438 37.722656 48.265625 37.210938 47.636719 37.210938 C 47.011719 37.210938 46.5 37.722656 46.5 38.355469 L 46.5 44.066406 L 44.226562 44.066406 L 44.226562 38.355469 C 44.226562 37.722656 43.71875 37.210938 43.089844 37.210938 C 42.460938 37.210938 41.953125 37.722656 41.953125 38.355469 L 41.953125 44.066406 L 39.679688 44.066406 L 39.679688 38.355469 C 39.679688 37.722656 39.171875 37.210938 38.542969 37.210938 C 37.914062 37.210938 37.40625 37.722656 37.40625 38.355469 L 37.40625 47.492188 C 37.40625 50.25 39.363281 52.554688 41.953125 53.085938 L 41.953125 84.039062 C 41.953125 84.667969 42.460938 85.179688 43.089844 85.179688 C 43.71875 85.179688 44.226562 84.667969 44.226562 84.039062 L 44.226562 53.085938 C 46.820312 52.554688 48.773438 50.25 48.773438 47.492188 Z M 46.5 47.492188 C 46.5 49.378906 44.972656 50.917969 43.089844 50.917969 C 41.210938 50.917969 39.679688 49.378906 39.679688 47.492188 L 39.679688 46.347656 L 46.5 46.347656 Z M 46.5 47.492188 " fill-opacity="1" fill-rule="nonzero"/></g><g clip-path="url(#c02ec1e154)"><path fill="#000000" d="M 174.382812 130.589844 L 175.792969 129.1875 L 177.1875 130.570312 L 180.175781 127.605469 L 176.632812 124.125 L 173.644531 127.089844 L 174.839844 128.28125 L 173.378906 129.730469 C 171.792969 128.394531 170.027344 127.355469 168.089844 126.613281 C 166.148438 125.867188 164.136719 125.460938 162.058594 125.390625 L 162.058594 122.808594 L 163.421875 122.808594 C 163.605469 122.808594 163.761719 122.742188 163.890625 122.613281 C 164.019531 122.484375 164.085938 122.328125 164.085938 122.148438 C 164.085938 121.964844 164.019531 121.808594 163.890625 121.683594 C 163.761719 121.554688 163.605469 121.488281 163.421875 121.488281 L 159.234375 121.488281 C 159.050781 121.488281 158.894531 121.554688 158.765625 121.683594 C 158.632812 121.808594 158.570312 121.964844 158.570312 122.148438 C 158.570312 122.328125 158.632812 122.484375 158.765625 122.613281 C 158.894531 122.742188 159.050781 122.808594 159.234375 122.808594 L 160.730469 122.808594 L 160.730469 126.703125 L 161.394531 126.703125 C 163.457031 126.6875 165.460938 127.035156 167.398438 127.742188 C 169.335938 128.449219 171.085938 129.472656 172.648438 130.8125 C 172.667969 130.960938 172.730469 131.085938 172.835938 131.191406 C 172.960938 131.3125 173.109375 131.378906 173.285156 131.382812 C 173.566406 131.648438 173.84375 131.917969 174.105469 132.207031 C 177.183594 135.535156 178.726562 139.851562 178.34375 144.070312 C 177.613281 152.019531 170.160156 158.398438 161.667969 158.398438 L 161.394531 158.398438 C 161.210938 158.398438 161.054688 158.464844 160.925781 158.59375 C 160.796875 158.722656 160.730469 158.878906 160.730469 159.058594 C 160.730469 159.242188 160.796875 159.398438 160.925781 159.523438 C 161.054688 159.652344 161.210938 159.71875 161.394531 159.71875 L 161.683594 159.71875 C 163.917969 159.722656 166.078125 159.335938 168.171875 158.558594 C 170.265625 157.785156 172.152344 156.667969 173.835938 155.210938 C 175.492188 153.8125 176.824219 152.160156 177.832031 150.25 C 178.84375 148.339844 179.457031 146.3125 179.675781 144.167969 C 180.082031 139.613281 178.421875 134.910156 175.101562 131.308594 C 174.859375 131.0625 174.621094 130.820312 174.382812 130.589844 Z M 174.382812 130.589844 " fill-opacity="1" fill-rule="nonzero"/></g><path fill="#000000" d="M 161.824219 146.796875 C 162.167969 146.796875 162.5 146.738281 162.820312 146.625 C 163.140625 146.511719 163.433594 146.347656 163.699219 146.136719 C 163.964844 145.921875 164.1875 145.671875 164.363281 145.382812 C 164.542969 145.09375 164.667969 144.785156 164.738281 144.453125 C 164.894531 143.730469 164.804688 141.253906 164.476562 137.085938 C 164.453125 136.820312 164.355469 136.585938 164.175781 136.386719 C 164 136.1875 163.78125 136.058594 163.515625 136.003906 C 163.253906 135.945312 163 135.972656 162.757812 136.082031 C 162.511719 136.195312 162.324219 136.367188 162.195312 136.597656 C 160.167969 140.273438 159.042969 142.480469 158.886719 143.203125 C 158.804688 143.589844 158.796875 143.972656 158.867188 144.363281 C 158.941406 144.75 159.082031 145.109375 159.296875 145.4375 C 159.511719 145.769531 159.78125 146.046875 160.109375 146.269531 C 160.433594 146.492188 160.792969 146.648438 161.179688 146.730469 C 161.390625 146.773438 161.609375 146.796875 161.824219 146.796875 Z M 161.824219 146.796875 " fill-opacity="1" fill-rule="nonzero"/><path fill="#000000" d="M 157.140625 130.257812 L 142.535156 130.257812 C 142.351562 130.257812 142.195312 130.324219 142.0625 130.453125 C 141.933594 130.582031 141.871094 130.734375 141.871094 130.917969 C 141.871094 131.097656 141.933594 131.253906 142.0625 131.382812 C 142.195312 131.511719 142.351562 131.578125 142.535156 131.578125 L 157.140625 131.578125 C 157.320312 131.578125 157.480469 131.511719 157.609375 131.382812 C 157.738281 131.253906 157.804688 131.097656 157.804688 130.917969 C 157.804688 130.734375 157.738281 130.582031 157.609375 130.453125 C 157.480469 130.324219 157.320312 130.257812 157.140625 130.257812 Z M 157.140625 130.257812 " fill-opacity="1" fill-rule="nonzero"/><path fill="#000000" d="M 155.765625 135.988281 L 142.667969 135.988281 C 142.488281 135.988281 142.328125 136.054688 142.199219 136.183594 C 142.070312 136.3125 142.007812 136.464844 142.007812 136.648438 C 142.007812 136.832031 142.070312 136.984375 142.199219 137.113281 C 142.328125 137.242188 142.488281 137.308594 142.667969 137.308594 L 155.765625 137.308594 C 155.949219 137.308594 156.105469 137.242188 156.234375 137.113281 C 156.363281 136.984375 156.429688 136.832031 156.429688 136.648438 C 156.429688 136.464844 156.363281 136.3125 156.234375 136.183594 C 156.105469 136.054688 155.949219 135.988281 155.765625 135.988281 Z M 155.765625 135.988281 " fill-opacity="1" fill-rule="nonzero"/><g clip-path="url(#5d305062a2)"><path fill="#000000" d="M 155.632812 141.890625 L 140.441406 141.890625 C 140.257812 141.890625 140.101562 141.957031 139.972656 142.085938 C 139.84375 142.214844 139.777344 142.371094 139.777344 142.550781 C 139.777344 142.734375 139.84375 142.886719 139.972656 143.015625 C 140.101562 143.144531 140.257812 143.210938 140.441406 143.210938 L 155.632812 143.210938 C 155.816406 143.210938 155.972656 143.144531 156.101562 143.015625 C 156.230469 142.886719 156.296875 142.734375 156.296875 142.550781 C 156.296875 142.371094 156.230469 142.214844 156.101562 142.085938 C 155.972656 141.957031 155.816406 141.890625 155.632812 141.890625 Z M 155.632812 141.890625 " fill-opacity="1" fill-rule="nonzero"/></g><path fill="#000000" d="M 155.445312 148.53125 C 155.445312 148.351562 155.382812 148.195312 155.25 148.066406 C 155.121094 147.9375 154.964844 147.875 154.78125 147.875 L 143.519531 147.875 C 143.335938 147.875 143.179688 147.9375 143.050781 148.066406 C 142.921875 148.195312 142.855469 148.351562 142.855469 148.53125 C 142.855469 148.714844 142.921875 148.871094 143.050781 149 C 143.179688 149.128906 143.335938 149.191406 143.519531 149.191406 L 154.78125 149.191406 C 154.964844 149.191406 155.121094 149.128906 155.25 149 C 155.382812 148.871094 155.445312 148.714844 155.445312 148.53125 Z M 155.445312 148.53125 " fill-opacity="1" fill-rule="nonzero"/><path fill="#000000" d="M 155.632812 153.007812 L 144.828125 153.007812 C 144.644531 153.007812 144.488281 153.074219 144.359375 153.203125 C 144.226562 153.332031 144.164062 153.484375 144.164062 153.667969 C 144.164062 153.847656 144.226562 154.003906 144.359375 154.132812 C 144.488281 154.261719 144.644531 154.328125 144.828125 154.328125 L 155.632812 154.328125 C 155.816406 154.328125 155.972656 154.261719 156.101562 154.132812 C 156.230469 154.003906 156.296875 153.847656 156.296875 153.667969 C 156.296875 153.484375 156.230469 153.332031 156.101562 153.203125 C 155.972656 153.074219 155.816406 153.007812 155.632812 153.007812 Z M 155.632812 153.007812 " fill-opacity="1" fill-rule="nonzero"/><g clip-path="url(#07050300b3)"><path fill="#040606" d="M 142.917969 72.441406 L 146.109375 72.441406 L 146.109375 74.417969 C 147.871094 75.082031 149.039062 76.769531 149.039062 78.65625 L 145.898438 78.65625 C 145.898438 77.886719 145.277344 77.269531 144.511719 77.269531 C 143.746094 77.269531 143.128906 77.886719 143.128906 78.65625 C 143.128906 79.195312 143.445312 79.695312 143.941406 79.917969 L 146.402344 81.226562 C 148.613281 82.394531 149.453125 85.136719 148.28125 87.34375 C 147.808594 88.242188 147.039062 88.957031 146.109375 89.367188 L 146.109375 91.4375 L 142.917969 91.4375 L 142.917969 89.539062 C 141.035156 88.945312 139.753906 87.199219 139.753906 85.222656 L 142.898438 85.222656 C 142.898438 85.988281 143.519531 86.609375 144.28125 86.609375 C 145.046875 86.609375 145.667969 85.988281 145.667969 85.222656 C 145.667969 84.710938 145.386719 84.238281 144.929688 84 L 142.390625 82.652344 C 140.183594 81.484375 139.339844 78.746094 140.511719 76.535156 C 141.027344 75.558594 141.886719 74.808594 142.917969 74.417969 Z M 145.714844 57.375 C 145.464844 57.386719 145.210938 57.460938 144.996094 57.59375 L 143.644531 58.410156 C 143.324219 58.601562 142.925781 58.632812 142.578125 58.480469 L 141.261719 57.917969 C 141.011719 57.804688 140.714844 57.828125 140.480469 57.976562 L 138.667969 59.113281 C 138.402344 59.277344 138.082031 59.328125 137.777344 59.246094 L 136.875 59.003906 C 136.53125 58.914062 136.164062 58.996094 135.894531 59.234375 L 133.835938 61.054688 C 133.617188 61.25 133.59375 61.585938 133.789062 61.808594 C 133.839844 61.867188 133.90625 61.914062 133.980469 61.945312 C 136.050781 62.828125 137.867188 64.214844 139.265625 65.976562 C 139.355469 66.09375 139.339844 66.257812 139.222656 66.351562 C 139.175781 66.386719 139.113281 66.410156 139.054688 66.410156 L 138.257812 66.410156 C 137.832031 66.414062 137.484375 66.765625 137.488281 67.191406 C 137.492188 67.613281 137.835938 67.960938 138.257812 67.960938 L 138.613281 67.960938 C 138.757812 67.960938 138.878906 68.082031 138.878906 68.230469 C 138.878906 68.320312 138.835938 68.398438 138.761719 68.449219 C 133 72.441406 129.179688 78.667969 128.226562 85.609375 C 127.707031 89.402344 129.671875 93.105469 133.105469 94.808594 C 140.148438 98.300781 148.417969 98.300781 155.464844 94.808594 C 158.898438 93.105469 160.859375 89.402344 160.335938 85.609375 C 159.386719 78.667969 155.5625 72.441406 149.800781 68.449219 C 149.683594 68.363281 149.648438 68.199219 149.734375 68.078125 C 149.785156 68.003906 149.867188 67.960938 149.957031 67.960938 L 150.308594 67.960938 C 150.734375 67.960938 151.082031 67.605469 151.078125 67.179688 C 151.074219 66.753906 150.730469 66.414062 150.308594 66.410156 L 148.863281 66.410156 C 148.714844 66.410156 148.59375 66.289062 148.597656 66.140625 C 148.597656 66.105469 148.601562 66.074219 148.617188 66.042969 C 149.648438 63.464844 151.648438 61.390625 154.1875 60.269531 C 154.460938 60.148438 154.582031 59.835938 154.464844 59.566406 C 154.460938 59.558594 154.457031 59.550781 154.453125 59.542969 C 153.824219 58.285156 152.402344 57.640625 151.042969 57.988281 L 149.253906 58.714844 C 148.910156 58.855469 148.523438 58.820312 148.210938 58.621094 L 146.597656 57.605469 C 146.335938 57.441406 146.03125 57.359375 145.714844 57.371094 L 145.714844 57.375 " fill-opacity="1" fill-rule="nonzero"/></g><g clip-path="url(#49f88cab83)"><path fill="#100f0d" d="M 11.085938 29.992188 L 213.5625 29.992188 C 214.617188 29.972656 215.480469 30.816406 215.5 31.871094 C 215.5 31.871094 215.5 31.886719 215.5 31.90625 L 215.5 158.859375 C 215.5 159.914062 214.65625 160.773438 213.601562 160.773438 C 213.582031 160.773438 213.582031 160.773438 213.5625 160.773438 L 11.085938 160.773438 C 10.050781 160.792969 9.167969 159.949219 9.152344 158.898438 C 9.152344 158.898438 9.152344 158.878906 9.152344 158.859375 L 9.152344 31.90625 C 9.152344 30.855469 10.011719 29.992188 11.046875 29.992188 C 11.066406 29.992188 11.085938 29.992188 11.085938 29.992188 Z M 9.113281 25.246094 C 6.507812 25.285156 4.4375 27.410156 4.4375 29.992188 L 4.4375 170.652344 C 4.4375 173.253906 6.507812 175.359375 9.113281 175.417969 L 96.457031 175.417969 L 96.457031 190.445312 C 96.457031 191.496094 95.613281 192.359375 94.558594 192.359375 C 94.542969 192.359375 94.523438 192.359375 94.503906 192.359375 L 84 192.359375 C 79.421875 192.398438 75.472656 195.535156 74.382812 199.976562 C 74.132812 200.992188 74.765625 202.027344 75.78125 202.273438 C 75.933594 202.3125 76.085938 202.332031 76.242188 202.332031 L 148.542969 202.332031 C 149.597656 202.332031 150.441406 201.46875 150.441406 200.417969 C 150.441406 200.265625 150.421875 200.109375 150.402344 199.976562 C 149.308594 195.496094 145.265625 192.339844 140.648438 192.359375 L 130.144531 192.359375 C 129.109375 192.320312 128.289062 191.476562 128.289062 190.445312 L 128.289062 175.417969 L 215.515625 175.417969 C 218.144531 175.4375 220.289062 173.3125 220.328125 170.691406 C 220.328125 170.691406 220.328125 170.671875 220.328125 170.652344 L 220.328125 29.992188 C 220.308594 27.371094 218.179688 25.246094 215.554688 25.246094 C 215.535156 25.246094 215.535156 25.246094 215.515625 25.246094 L 9.113281 25.246094 " fill-opacity="1" fill-rule="nonzero"/></g><path stroke-linecap="butt" transform="matrix(0.7496, 0, 0, 0.7496, 32.00948, 136.109973)" fill="none" stroke-linejoin="miter" d="M -0.00222485 2.500536 L 14.401292 2.500536 " stroke="#000000" stroke-width="5" stroke-opacity="1" stroke-miterlimit="4"/><path stroke-linecap="butt" transform="matrix(0.7496, 0.000000000000001224, -0.000000000000001224, 0.7496, 32.00948, 119.614704)" fill="none" stroke-linejoin="miter" d="M -0.00222485 2.499436 L 34.818432 2.499436 " stroke="#000000" stroke-width="5" stroke-opacity="1" stroke-miterlimit="4"/><path stroke-linecap="butt" transform="matrix(0.7496, 0.000000000000000612, -0.000000000000000612, 0.7496, 167.030338, 99.898381)" fill="none" stroke-linejoin="miter" d="M 0.00121609 14.997658 L 34.816662 14.997658 " stroke="#ffbd59" stroke-width="30" stroke-opacity="1" stroke-miterlimit="4"/><path stroke-linecap="butt" transform="matrix(0.7496, 0.000000000000001224, -0.000000000000001224, 0.7496, 176.292993, 107.394381)" fill="none" stroke-linejoin="miter" d="M -0.0000316906 2.501535 L 34.815415 2.501535 " stroke="#000000" stroke-width="5" stroke-opacity="1" stroke-miterlimit="4"/><g clip-path="url(#2fb84b5219)"><path fill="#ffbd59" d="M 112.441406 115.597656 C 118.664062 115.597656 123.726562 108.992188 123.726562 102.769531 C 123.726562 96.542969 118.664062 91.480469 112.441406 91.480469 C 106.214844 91.480469 101.152344 96.542969 101.152344 102.769531 C 101.152344 108.992188 106.214844 115.597656 112.441406 115.597656 Z M 112.441406 115.597656 " fill-opacity="1" fill-rule="nonzero"/></g><g clip-path="url(#cb9ea7f24c)"><path fill="#ffbd59" d="M 120.914062 115.714844 C 118.722656 117.382812 115.992188 118.375 113.035156 118.375 L 111.84375 118.375 C 108.886719 118.375 106.152344 117.382812 103.964844 115.714844 C 96.816406 116.871094 91.355469 123.066406 91.355469 130.542969 C 91.355469 134.648438 100.796875 137.980469 112.441406 137.980469 C 124.082031 137.980469 133.523438 134.648438 133.523438 130.542969 C 133.523438 123.066406 128.0625 116.871094 120.914062 115.714844 Z M 120.914062 115.714844 " fill-opacity="1" fill-rule="nonzero"/></g><g clip-path="url(#73374115f7)"><path fill="#000000" d="M 104.558594 118.257812 C 107.757812 121.445312 110.042969 124.628906 112.328125 128.726562 C 122.992188 108.703125 135.945312 99.597656 133.203125 102.785156 C 124.515625 113.859375 118.574219 125.085938 112.785156 137.828125 C 109.433594 131.761719 105.167969 123.71875 99.988281 122.050781 C 98.464844 120.535156 102.121094 116.894531 104.558594 118.257812 Z M 104.558594 118.257812 " fill-opacity="1" fill-rule="nonzero"/></g></svg>