<svg xmlns="http://www.w3.org/2000/svg" xmlns:xlink="http://www.w3.org/1999/xlink" width="300" zoomAndPan="magnify" viewBox="0 0 224.87999 225" height="300" preserveAspectRatio="xMidYMid meet" version="1.0"><defs><clipPath id="b4d2744c3c"><path d="M 0 0.0585938 L 224.761719 0.0585938 L 224.761719 224.9375 L 0 224.9375 Z M 0 0.0585938 " clip-rule="nonzero"/></clipPath><clipPath id="570f4b0346"><path d="M 40.210938 22.546875 L 220.117188 22.546875 L 220.117188 202.453125 L 40.210938 202.453125 Z M 40.210938 22.546875 " clip-rule="nonzero"/></clipPath><clipPath id="d2a08dc6b3"><path d="M 4.761719 44.707031 L 200.410156 44.707031 L 200.410156 170.640625 L 4.761719 170.640625 Z M 4.761719 44.707031 " clip-rule="nonzero"/></clipPath><clipPath id="0021ab7e81"><path d="M 7.8125 61.027344 L 72.277344 61.027344 L 72.277344 116.5 L 7.8125 116.5 Z M 7.8125 61.027344 " clip-rule="nonzero"/></clipPath><clipPath id="ce4556b9d2"><path d="M 134.371094 114.96875 L 189.84375 114.96875 L 189.84375 170.4375 L 134.371094 170.4375 Z M 134.371094 114.96875 " clip-rule="nonzero"/></clipPath><clipPath id="706733eaab"><path d="M 158.011719 136.210938 L 196.1875 136.210938 L 196.1875 174.390625 L 158.011719 174.390625 Z M 158.011719 136.210938 " clip-rule="nonzero"/></clipPath><clipPath id="797ce2cb1c"><path d="M 177.101562 136.210938 C 166.558594 136.210938 158.011719 144.757812 158.011719 155.300781 C 158.011719 165.84375 166.558594 174.390625 177.101562 174.390625 C 187.640625 174.390625 196.1875 165.84375 196.1875 155.300781 C 196.1875 144.757812 187.640625 136.210938 177.101562 136.210938 Z M 177.101562 136.210938 " clip-rule="nonzero"/></clipPath><clipPath id="23c787cdb3"><path d="M 158.011719 137.816406 L 194.617188 137.816406 L 194.617188 174.382812 L 158.011719 174.382812 Z M 158.011719 137.816406 " clip-rule="nonzero"/></clipPath><clipPath id="15164e7131"><path d="M 163.59375 135.59375 L 200.527344 135.59375 L 200.527344 166.363281 L 163.59375 166.363281 Z M 163.59375 135.59375 " clip-rule="nonzero"/></clipPath><clipPath id="3e86d88231"><path d="M 21.9375 119.152344 L 57.917969 119.152344 L 57.917969 155.136719 L 21.9375 155.136719 Z M 21.9375 119.152344 " clip-rule="nonzero"/></clipPath><clipPath id="c8b0dc76ca"><path d="M 40.011719 79.671875 L 72.242188 79.671875 L 72.242188 117.902344 L 40.011719 117.902344 Z M 40.011719 79.671875 " clip-rule="nonzero"/></clipPath><clipPath id="fc190639e8"><path d="M 43 86 L 68 86 L 68 112.714844 L 43 112.714844 Z M 43 86 " clip-rule="nonzero"/></clipPath></defs><g clip-path="url(#b4d2744c3c)"><path fill="#ffffff" d="M 0 0.0585938 L 224.878906 0.0585938 L 224.878906 224.941406 L 0 224.941406 Z M 0 0.0585938 " fill-opacity="1" fill-rule="nonzero"/><path fill="#ffffff" d="M 0 0.0585938 L 224.878906 0.0585938 L 224.878906 224.941406 L 0 224.941406 Z M 0 0.0585938 " fill-opacity="1" fill-rule="nonzero"/></g><g clip-path="url(#570f4b0346)"><path fill="#231f20" d="M 55.945312 160.238281 C 57.441406 162.582031 59.101562 164.886719 60.808594 167.058594 L 59.488281 168.125 C 57.738281 165.910156 56.03125 163.5625 54.496094 161.175781 Z M 41.917969 112.5625 L 40.210938 112.5625 C 40.210938 115.421875 40.339844 118.277344 40.640625 121.09375 L 42.34375 120.921875 C 42.046875 118.191406 41.917969 115.335938 41.917969 112.5625 Z M 41.832031 129.578125 C 42.386719 132.347656 43.070312 135.164062 43.835938 137.894531 L 45.457031 137.425781 C 44.691406 134.738281 44.007812 132.007812 43.496094 129.28125 Z M 78.035156 185.777344 C 80.339844 187.441406 82.769531 188.976562 85.242188 190.425781 L 86.09375 188.933594 C 83.664062 187.527344 81.320312 185.992188 79.015625 184.414062 Z M 92.832031 194.308594 C 95.433594 195.5 98.078125 196.566406 100.761719 197.503906 L 101.316406 195.886719 C 98.675781 194.988281 96.074219 193.921875 93.515625 192.773438 Z M 109.035156 199.894531 C 111.808594 200.574219 114.621094 201.085938 117.4375 201.515625 L 117.691406 199.808594 C 114.921875 199.425781 112.148438 198.871094 109.460938 198.230469 Z M 66.351562 173.414062 L 65.113281 174.605469 C 67.078125 176.652344 69.167969 178.65625 71.296875 180.492188 L 72.40625 179.210938 C 70.316406 177.378906 68.269531 175.417969 66.351562 173.414062 Z M 109.207031 26.683594 L 108.824219 25.019531 C 106.050781 25.703125 103.277344 26.511719 100.59375 27.453125 L 101.148438 29.070312 C 103.789062 28.175781 106.519531 27.367188 109.207031 26.683594 Z M 117.222656 23.445312 L 117.480469 25.148438 C 120.25 24.765625 123.066406 24.46875 125.835938 24.339844 L 125.75 22.632812 C 122.894531 22.761719 120.039062 23.015625 117.222656 23.445312 Z M 93.386719 32.226562 L 92.660156 30.691406 C 90.058594 31.886719 87.542969 33.207031 85.070312 34.617188 L 85.925781 36.109375 C 88.355469 34.65625 90.828125 33.378906 93.386719 32.226562 Z M 219.691406 103.695312 C 219.433594 100.878906 219.007812 98.023438 218.453125 95.207031 L 216.789062 95.550781 C 217.300781 98.277344 217.730469 101.09375 217.984375 103.863281 Z M 43.496094 95.847656 L 41.832031 95.550781 C 41.320312 98.320312 40.894531 101.179688 40.640625 104.035156 L 42.34375 104.207031 C 42.558594 101.390625 42.941406 98.578125 43.496094 95.847656 Z M 78.886719 40.628906 L 77.90625 39.222656 C 75.605469 40.882812 73.34375 42.675781 71.171875 44.507812 L 72.277344 45.789062 C 74.367188 43.996094 76.585938 42.25 78.886719 40.628906 Z M 48.1875 79.773438 L 46.609375 79.132812 C 45.542969 81.777344 44.605469 84.507812 43.835938 87.234375 L 45.457031 87.703125 C 46.226562 85.019531 47.121094 82.332031 48.1875 79.773438 Z M 66.222656 51.628906 L 64.988281 50.433594 C 63.027344 52.480469 61.148438 54.65625 59.402344 56.917969 L 60.722656 57.984375 C 62.429688 55.808594 64.304688 53.675781 66.222656 51.628906 Z M 55.863281 64.847656 L 54.410156 63.910156 C 52.878906 66.296875 51.425781 68.8125 50.148438 71.328125 L 51.683594 72.097656 C 52.917969 69.625 54.328125 67.195312 55.863281 64.847656 Z M 46.652344 145.996094 C 47.71875 148.636719 48.910156 151.238281 50.234375 153.753906 L 51.769531 152.988281 C 50.488281 150.515625 49.296875 147.957031 48.273438 145.355469 Z M 187.964844 179.128906 L 189.074219 180.40625 C 191.207031 178.53125 193.296875 176.570312 195.257812 174.480469 L 194.019531 173.285156 C 192.144531 175.332031 190.097656 177.292969 187.964844 179.128906 Z M 205.746094 63.65625 L 204.296875 64.59375 C 205.832031 66.9375 207.238281 69.367188 208.519531 71.839844 L 210.054688 71.074219 C 208.730469 68.558594 207.28125 66.042969 205.746094 63.65625 Z M 195.128906 50.265625 L 193.890625 51.457031 C 195.8125 53.464844 197.6875 55.59375 199.394531 57.8125 L 200.714844 56.746094 C 199.007812 54.488281 197.132812 52.3125 195.128906 50.265625 Z M 208.644531 152.859375 L 210.179688 153.628906 C 211.503906 151.113281 212.695312 148.46875 213.71875 145.824219 L 212.140625 145.183594 C 211.078125 147.828125 209.925781 150.386719 208.644531 152.859375 Z M 199.5625 166.972656 L 200.886719 168.039062 C 202.632812 165.824219 204.296875 163.476562 205.875 161.089844 L 204.425781 160.152344 C 202.933594 162.496094 201.269531 164.800781 199.5625 166.972656 Z M 218.410156 112.265625 L 218.410156 112.480469 C 218.410156 115.292969 218.28125 118.105469 218.027344 120.878906 L 219.734375 121.050781 C 219.988281 118.234375 220.117188 115.335938 220.117188 112.519531 L 220.117188 112.308594 L 218.410156 112.308594 Z M 214.871094 137.296875 L 216.492188 137.765625 C 217.300781 135.035156 217.984375 132.222656 218.496094 129.449219 L 216.832031 129.109375 C 216.320312 131.878906 215.640625 134.652344 214.871094 137.296875 Z M 213.636719 78.835938 L 212.058594 79.472656 C 213.082031 82.074219 214.019531 84.71875 214.828125 87.40625 L 216.449219 86.9375 C 215.640625 84.207031 214.699219 81.476562 213.636719 78.835938 Z M 126.007812 200.617188 L 125.921875 202.324219 C 127.328125 202.410156 128.734375 202.410156 130.144531 202.410156 C 131.59375 202.410156 133.042969 202.367188 134.492188 202.324219 L 134.40625 200.617188 C 131.636719 200.746094 128.820312 200.746094 126.007812 200.617188 Z M 151.207031 24.980469 L 150.824219 26.640625 C 153.554688 27.28125 156.238281 28.089844 158.882812 28.988281 L 159.4375 27.367188 C 156.75 26.429688 153.980469 25.617188 151.207031 24.980469 Z M 142.765625 199.808594 L 143.019531 201.515625 C 145.835938 201.128906 148.648438 200.574219 151.421875 199.894531 L 151.039062 198.230469 C 148.308594 198.871094 145.535156 199.425781 142.765625 199.808594 Z M 182.207031 39.050781 L 181.226562 40.457031 C 183.488281 42.078125 185.703125 43.824219 187.835938 45.660156 L 188.945312 44.378906 C 186.769531 42.503906 184.511719 40.714844 182.207031 39.050781 Z M 134.28125 22.589844 L 134.195312 24.296875 C 136.964844 24.425781 139.78125 24.679688 142.550781 25.0625 L 142.808594 23.359375 C 139.992188 22.972656 137.136719 22.71875 134.28125 22.589844 Z M 174.320312 188.890625 L 175.171875 190.382812 C 177.644531 188.976562 180.035156 187.398438 182.378906 185.738281 L 181.398438 184.328125 C 179.09375 185.949219 176.75 187.484375 174.320312 188.890625 Z M 159.054688 195.84375 L 159.609375 197.464844 C 162.292969 196.523438 164.980469 195.457031 167.539062 194.265625 L 166.859375 192.730469 C 164.339844 193.882812 161.699219 194.945312 159.054688 195.84375 Z M 167.367188 30.523438 L 166.644531 32.058594 C 169.160156 33.207031 171.675781 34.488281 174.105469 35.894531 L 174.960938 34.402344 C 172.527344 33.039062 169.96875 31.714844 167.367188 30.523438 Z M 167.367188 30.523438 " fill-opacity="1" fill-rule="nonzero"/></g><g clip-path="url(#d2a08dc6b3)"><path fill="#000000" d="M 10.625 44.707031 L 194.304688 44.707031 C 197.519531 44.707031 200.160156 47.347656 200.160156 50.566406 L 200.160156 164.933594 C 200.160156 168.152344 197.519531 170.792969 194.304688 170.792969 L 10.625 170.792969 C 7.40625 170.792969 4.765625 168.152344 4.765625 164.933594 L 4.765625 50.566406 C 4.765625 47.347656 7.40625 44.707031 10.625 44.707031 Z M 10.625 44.707031 " fill-opacity="1" fill-rule="evenodd"/></g><path fill="#ffffff" d="M 198.511719 58.234375 L 198.511719 164.933594 C 198.511719 167.246094 196.613281 169.140625 194.304688 169.140625 L 10.625 169.140625 C 8.3125 169.140625 6.417969 167.246094 6.417969 164.933594 L 6.417969 58.234375 Z M 198.511719 58.234375 " fill-opacity="1" fill-rule="evenodd"/><path fill="#ffbd59" d="M 12.191406 49.765625 C 12.871094 49.765625 13.425781 50.320312 13.425781 51.003906 C 13.425781 51.683594 12.871094 52.238281 12.191406 52.238281 C 11.507812 52.238281 10.953125 51.683594 10.953125 51.003906 C 10.953125 50.320312 11.507812 49.765625 12.191406 49.765625 Z M 12.191406 49.765625 " fill-opacity="1" fill-rule="evenodd"/><path fill="#ffbd59" d="M 17.386719 49.703125 C 18.070312 49.703125 18.625 50.257812 18.625 50.9375 C 18.625 51.621094 18.070312 52.175781 17.386719 52.175781 C 16.707031 52.175781 16.152344 51.621094 16.152344 50.9375 C 16.152344 50.257812 16.707031 49.703125 17.386719 49.703125 Z M 17.386719 49.703125 " fill-opacity="1" fill-rule="evenodd"/><path fill="#ffbd59" d="M 22.585938 49.640625 C 23.265625 49.640625 23.820312 50.191406 23.820312 50.875 C 23.820312 51.554688 23.265625 52.109375 22.585938 52.109375 C 21.902344 52.109375 21.351562 51.554688 21.351562 50.875 C 21.351562 50.191406 21.902344 49.640625 22.585938 49.640625 Z M 22.585938 49.640625 " fill-opacity="1" fill-rule="evenodd"/><g clip-path="url(#0021ab7e81)"><path fill="#000000" d="M 71.183594 86.628906 C 68.609375 86.613281 66.101562 86.1875 63.667969 85.359375 L 63.667969 66.363281 C 63.667969 66.011719 63.632812 65.664062 63.5625 65.320312 C 63.496094 64.980469 63.394531 64.644531 63.257812 64.320312 C 63.121094 64 62.957031 63.691406 62.761719 63.398438 C 62.566406 63.109375 62.34375 62.839844 62.09375 62.589844 C 61.84375 62.34375 61.574219 62.121094 61.28125 61.929688 C 60.988281 61.734375 60.679688 61.570312 60.351562 61.433594 C 60.027344 61.300781 59.691406 61.199219 59.34375 61.132812 C 59 61.0625 58.652344 61.027344 58.296875 61.027344 L 13.199219 61.027344 C 12.847656 61.027344 12.5 61.0625 12.152344 61.132812 C 11.808594 61.199219 11.472656 61.300781 11.144531 61.433594 C 10.820312 61.570312 10.511719 61.734375 10.21875 61.929688 C 9.925781 62.121094 9.652344 62.34375 9.402344 62.589844 C 9.15625 62.839844 8.933594 63.109375 8.738281 63.398438 C 8.539062 63.691406 8.375 64 8.242188 64.320312 C 8.105469 64.644531 8.003906 64.980469 7.933594 65.320312 C 7.867188 65.664062 7.832031 66.011719 7.832031 66.363281 L 7.832031 94.097656 C 7.832031 94.449219 7.867188 94.792969 7.933594 95.136719 C 8.003906 95.480469 8.105469 95.816406 8.242188 96.136719 C 8.375 96.460938 8.539062 96.769531 8.738281 97.058594 C 8.933594 97.351562 9.15625 97.621094 9.402344 97.867188 C 9.652344 98.117188 9.925781 98.335938 10.21875 98.53125 C 10.511719 98.726562 10.820312 98.890625 11.144531 99.023438 C 11.472656 99.160156 11.808594 99.261719 12.152344 99.328125 C 12.5 99.398438 12.847656 99.429688 13.199219 99.429688 L 42.222656 99.429688 C 42.984375 111.816406 56.75 116.402344 56.890625 116.445312 C 57.113281 116.519531 57.335938 116.519531 57.558594 116.445312 C 57.707031 116.402344 72.257812 111.558594 72.257812 98.363281 L 72.257812 87.695312 C 72.257812 87.554688 72.230469 87.421875 72.175781 87.289062 C 72.121094 87.160156 72.042969 87.042969 71.941406 86.945312 C 71.839844 86.84375 71.726562 86.765625 71.59375 86.710938 C 71.460938 86.660156 71.324219 86.632812 71.183594 86.628906 Z M 9.980469 66.363281 C 9.980469 65.9375 10.0625 65.53125 10.226562 65.140625 C 10.390625 64.746094 10.625 64.402344 10.925781 64.101562 C 11.226562 63.800781 11.574219 63.570312 11.96875 63.410156 C 12.363281 63.246094 12.773438 63.164062 13.199219 63.164062 L 58.296875 63.164062 C 58.726562 63.164062 59.136719 63.246094 59.53125 63.410156 C 59.921875 63.570312 60.269531 63.800781 60.574219 64.101562 C 60.875 64.402344 61.109375 64.746094 61.273438 65.140625 C 61.4375 65.53125 61.519531 65.9375 61.519531 66.363281 L 61.519531 67.429688 L 9.980469 67.429688 Z M 43.265625 86.628906 C 43.125 86.632812 42.984375 86.660156 42.855469 86.710938 C 42.722656 86.765625 42.609375 86.84375 42.507812 86.945312 C 42.40625 87.042969 42.328125 87.160156 42.273438 87.289062 C 42.21875 87.421875 42.191406 87.554688 42.191406 87.695312 L 42.191406 97.296875 L 13.199219 97.296875 C 12.773438 97.296875 12.363281 97.214844 11.96875 97.050781 C 11.574219 96.890625 11.226562 96.65625 10.925781 96.359375 C 10.625 96.058594 10.390625 95.710938 10.226562 95.320312 C 10.0625 94.929688 9.980469 94.523438 9.980469 94.097656 L 9.980469 78.097656 L 61.519531 78.097656 L 61.519531 84.539062 C 60.238281 83.996094 59.015625 83.339844 57.859375 82.566406 C 57.667969 82.433594 57.457031 82.367188 57.222656 82.367188 C 56.992188 82.367188 56.78125 82.433594 56.589844 82.566406 C 54.609375 83.855469 52.484375 84.847656 50.21875 85.539062 C 47.953125 86.230469 45.636719 86.59375 43.265625 86.628906 Z M 65.503906 95.921875 L 55.839844 105.523438 C 55.738281 105.621094 55.621094 105.699219 55.488281 105.75 C 55.355469 105.804688 55.21875 105.832031 55.078125 105.832031 C 54.933594 105.832031 54.796875 105.804688 54.664062 105.75 C 54.53125 105.699219 54.417969 105.621094 54.3125 105.523438 L 48.945312 100.1875 C 48.84375 100.089844 48.769531 99.972656 48.714844 99.839844 C 48.660156 99.710938 48.632812 99.574219 48.632812 99.433594 C 48.632812 99.289062 48.660156 99.15625 48.714844 99.023438 C 48.769531 98.894531 48.847656 98.777344 48.949219 98.675781 C 49.050781 98.578125 49.164062 98.5 49.296875 98.445312 C 49.429688 98.390625 49.566406 98.363281 49.707031 98.363281 C 49.851562 98.363281 49.988281 98.390625 50.121094 98.445312 C 50.253906 98.496094 50.367188 98.574219 50.46875 98.675781 L 55.078125 103.261719 L 63.976562 94.40625 C 64.078125 94.308594 64.195312 94.230469 64.328125 94.175781 C 64.460938 94.121094 64.597656 94.097656 64.738281 94.097656 C 64.882812 94.097656 65.019531 94.125 65.152344 94.179688 C 65.28125 94.234375 65.398438 94.308594 65.5 94.410156 C 65.601562 94.511719 65.679688 94.625 65.734375 94.757812 C 65.789062 94.886719 65.816406 95.023438 65.816406 95.164062 C 65.816406 95.308594 65.789062 95.441406 65.734375 95.574219 C 65.679688 95.707031 65.601562 95.820312 65.503906 95.921875 Z M 27.160156 83.429688 L 27.160156 91.964844 C 27.160156 92.105469 27.132812 92.242188 27.078125 92.371094 C 27.023438 92.503906 26.945312 92.617188 26.84375 92.71875 C 26.742188 92.816406 26.625 92.894531 26.496094 92.949219 C 26.363281 93.003906 26.226562 93.03125 26.085938 93.03125 L 15.347656 93.03125 C 15.207031 93.03125 15.070312 93.003906 14.9375 92.949219 C 14.804688 92.894531 14.691406 92.816406 14.589844 92.71875 C 14.488281 92.617188 14.410156 92.503906 14.355469 92.371094 C 14.300781 92.242188 14.273438 92.105469 14.273438 91.964844 L 14.273438 83.429688 C 14.273438 83.289062 14.300781 83.152344 14.355469 83.023438 C 14.410156 82.890625 14.488281 82.777344 14.589844 82.675781 C 14.691406 82.578125 14.804688 82.5 14.9375 82.445312 C 15.070312 82.390625 15.207031 82.363281 15.347656 82.363281 L 26.085938 82.363281 C 26.226562 82.363281 26.363281 82.390625 26.496094 82.445312 C 26.625 82.5 26.742188 82.578125 26.84375 82.675781 C 26.945312 82.777344 27.023438 82.890625 27.078125 83.023438 C 27.132812 83.152344 27.160156 83.289062 27.160156 83.429688 Z M 27.160156 83.429688 " fill-opacity="1" fill-rule="nonzero"/></g><g clip-path="url(#ce4556b9d2)"><path fill="#000000" d="M 189.84375 142.703125 C 189.84375 135.976562 187.4375 129.804688 183.4375 125 C 183.414062 124.957031 183.386719 124.917969 183.355469 124.878906 C 183.320312 124.835938 183.28125 124.796875 183.238281 124.761719 C 178.148438 118.773438 170.5625 114.96875 162.105469 114.96875 C 153.648438 114.96875 146.066406 118.773438 140.972656 124.761719 C 140.933594 124.796875 140.894531 124.835938 140.859375 124.878906 C 140.828125 124.917969 140.800781 124.957031 140.773438 125 C 136.777344 129.804688 134.371094 135.976562 134.371094 142.703125 C 134.371094 149.882812 137.113281 156.433594 141.605469 161.363281 C 141.617188 161.378906 141.625 161.394531 141.636719 161.40625 C 141.691406 161.476562 141.75 161.539062 141.820312 161.59375 C 146.886719 167.03125 154.105469 170.4375 162.105469 170.4375 C 170.109375 170.4375 177.328125 167.03125 182.394531 161.59375 C 182.460938 161.542969 182.523438 161.480469 182.578125 161.40625 C 182.589844 161.394531 182.597656 161.378906 182.605469 161.363281 C 187.097656 156.433594 189.84375 149.882812 189.84375 142.703125 Z M 178.714844 157.628906 C 180.585938 153.5 181.644531 148.734375 181.777344 143.746094 L 187.734375 143.746094 C 187.496094 149.695312 185.222656 155.132812 181.585938 159.375 C 180.683594 158.742188 179.726562 158.160156 178.714844 157.628906 Z M 142.628906 159.375 C 138.992188 155.132812 136.71875 149.695312 136.476562 143.746094 L 142.4375 143.746094 C 142.566406 148.734375 143.628906 153.5 145.5 157.628906 C 144.488281 158.160156 143.53125 158.742188 142.628906 159.375 Z M 141.832031 127.007812 C 142.804688 127.746094 143.851562 128.425781 144.957031 129.042969 C 143.421875 132.867188 142.554688 137.171875 142.4375 141.660156 L 136.476562 141.660156 C 136.699219 136.15625 138.664062 131.09375 141.832031 127.007812 Z M 187.734375 141.660156 L 181.777344 141.660156 C 181.660156 137.171875 180.792969 132.867188 179.257812 129.042969 C 180.363281 128.425781 181.410156 127.746094 182.382812 127.007812 C 185.550781 131.09375 187.515625 136.15625 187.734375 141.660156 Z M 179.691406 141.660156 L 171.183594 141.660156 C 171.144531 138.40625 170.933594 135.25 170.566406 132.308594 C 172.980469 131.765625 175.277344 130.984375 177.390625 129.996094 C 178.753906 133.460938 179.574219 137.429688 179.691406 141.660156 Z M 163.148438 167.988281 L 163.148438 155.816406 C 164.785156 155.863281 166.398438 156.015625 167.976562 156.273438 C 167.648438 158.074219 167.253906 159.753906 166.792969 161.277344 C 165.761719 164.703125 164.433594 167.109375 163.148438 167.988281 Z M 157.417969 161.277344 C 156.960938 159.753906 156.566406 158.074219 156.238281 156.273438 C 157.8125 156.015625 159.429688 155.863281 161.066406 155.816406 L 161.066406 167.988281 C 159.78125 167.109375 158.449219 164.703125 157.417969 161.277344 Z M 161.066406 117.417969 L 161.066406 131.144531 C 159.335938 131.097656 157.636719 130.929688 155.984375 130.652344 C 156.351562 128.269531 156.832031 126.070312 157.417969 124.128906 C 158.449219 120.703125 159.78125 118.296875 161.066406 117.417969 Z M 166.792969 124.128906 C 167.378906 126.070312 167.863281 128.269531 168.230469 130.652344 C 166.578125 130.929688 164.878906 131.097656 163.148438 131.144531 L 163.148438 117.417969 C 164.433594 118.296875 165.761719 120.703125 166.792969 124.128906 Z M 161.066406 133.226562 L 161.066406 141.660156 L 155.117188 141.660156 C 155.152344 138.542969 155.347656 135.523438 155.695312 132.714844 C 157.445312 133.007812 159.242188 133.179688 161.066406 133.226562 Z M 161.066406 143.746094 L 161.066406 153.734375 C 159.316406 153.78125 157.589844 153.945312 155.902344 154.21875 C 155.425781 150.984375 155.15625 147.433594 155.117188 143.746094 Z M 163.148438 153.734375 L 163.148438 143.746094 L 169.097656 143.746094 C 169.054688 147.433594 168.785156 150.984375 168.3125 154.21875 C 166.625 153.945312 164.894531 153.78125 163.148438 153.734375 Z M 163.148438 141.660156 L 163.148438 133.226562 C 164.972656 133.179688 166.769531 133.007812 168.519531 132.714844 C 168.863281 135.523438 169.0625 138.542969 169.097656 141.660156 Z M 170.273438 130.242188 C 169.890625 127.800781 169.394531 125.535156 168.789062 123.527344 C 168.0625 121.113281 167.21875 119.1875 166.277344 117.78125 C 170.507812 119.285156 174.144531 123.023438 176.5625 128.089844 C 174.617188 129.003906 172.503906 129.726562 170.273438 130.242188 Z M 157.9375 117.78125 C 156.996094 119.1875 156.152344 121.113281 155.425781 123.527344 C 154.820312 125.535156 154.320312 127.800781 153.9375 130.242188 C 151.710938 129.726562 149.597656 129.003906 147.652344 128.089844 C 150.070312 123.023438 153.703125 119.285156 157.9375 117.78125 Z M 153.648438 132.308594 C 153.277344 135.25 153.070312 138.40625 153.03125 141.660156 L 144.523438 141.660156 C 144.640625 137.429688 145.460938 133.460938 146.820312 129.996094 C 148.9375 130.984375 151.234375 131.765625 153.648438 132.308594 Z M 144.523438 143.746094 L 153.03125 143.746094 C 153.074219 147.566406 153.359375 151.25 153.855469 154.613281 C 151.578125 155.113281 149.398438 155.824219 147.375 156.71875 C 145.683594 152.960938 144.652344 148.519531 144.523438 143.746094 Z M 154.191406 156.667969 C 154.535156 158.539062 154.945312 160.289062 155.425781 161.878906 C 156.152344 164.292969 156.996094 166.21875 157.9375 167.625 C 154.066406 166.25 150.695312 163.003906 148.296875 158.585938 C 150.136719 157.777344 152.121094 157.132812 154.191406 156.667969 Z M 166.277344 167.625 C 167.21875 166.21875 168.0625 164.292969 168.789062 161.878906 C 169.269531 160.289062 169.679688 158.539062 170.019531 156.667969 C 172.09375 157.132812 174.078125 157.777344 175.917969 158.585938 C 173.519531 163.003906 170.148438 166.25 166.277344 167.625 Z M 170.359375 154.613281 C 170.855469 151.25 171.140625 147.566406 171.183594 143.746094 L 179.691406 143.746094 C 179.558594 148.519531 178.53125 152.960938 176.839844 156.71875 C 174.816406 155.824219 172.636719 155.113281 170.359375 154.613281 Z M 181.039062 125.414062 C 180.21875 126.03125 179.339844 126.605469 178.414062 127.132812 C 177.746094 125.75 176.988281 124.445312 176.144531 123.230469 C 175.121094 121.765625 174 120.484375 172.804688 119.390625 C 175.941406 120.835938 178.738281 122.894531 181.039062 125.414062 Z M 151.40625 119.390625 C 150.214844 120.484375 149.09375 121.765625 148.070312 123.230469 C 147.222656 124.445312 146.464844 125.75 145.800781 127.132812 C 144.875 126.605469 143.996094 126.03125 143.175781 125.414062 C 145.476562 122.894531 148.273438 120.835938 151.40625 119.390625 Z M 144.058594 160.914062 C 144.808594 160.40625 145.597656 159.933594 146.421875 159.492188 C 146.929688 160.429688 147.476562 161.324219 148.070312 162.175781 C 149.09375 163.640625 150.214844 164.921875 151.40625 166.015625 C 148.664062 164.75 146.179688 163.015625 144.058594 160.914062 Z M 176.144531 162.175781 C 176.738281 161.324219 177.285156 160.429688 177.792969 159.492188 C 178.617188 159.933594 179.40625 160.40625 180.152344 160.914062 C 178.035156 163.015625 175.550781 164.75 172.804688 166.015625 C 174 164.921875 175.121094 163.640625 176.144531 162.175781 Z M 176.144531 162.175781 " fill-opacity="1" fill-rule="nonzero"/></g><g clip-path="url(#706733eaab)"><g clip-path="url(#797ce2cb1c)"><path fill="#231f20" d="M 158.011719 136.210938 L 196.1875 136.210938 L 196.1875 174.390625 L 158.011719 174.390625 Z M 158.011719 136.210938 " fill-opacity="1" fill-rule="nonzero"/></g></g><g clip-path="url(#23c787cdb3)"><path fill="#ffbd59" d="M 189.90625 148.339844 C 189.761719 148.574219 189.613281 148.816406 189.46875 149.054688 C 190.597656 151.160156 191.242188 153.558594 191.242188 156.109375 C 191.242188 164.351562 184.53125 171.0625 176.289062 171.0625 C 172.164062 171.0625 168.425781 169.382812 165.71875 166.675781 C 163.011719 163.96875 161.335938 160.230469 161.335938 156.109375 C 161.335938 147.863281 168.042969 141.15625 176.289062 141.15625 C 179.316406 141.15625 182.136719 142.0625 184.492188 143.617188 C 184.5 143.605469 184.511719 143.589844 184.519531 143.578125 C 185.230469 142.671875 185.941406 141.824219 186.632812 141.050781 C 183.691406 139.023438 180.125 137.832031 176.289062 137.832031 C 166.210938 137.832031 158.011719 146.03125 158.011719 156.109375 C 158.011719 161.148438 160.0625 165.714844 163.371094 169.023438 C 166.679688 172.335938 171.25 174.382812 176.289062 174.382812 C 186.363281 174.382812 194.5625 166.183594 194.5625 156.109375 C 194.5625 152.347656 193.421875 148.851562 191.46875 145.945312 C 190.960938 146.683594 190.449219 147.472656 189.90625 148.339844 " fill-opacity="1" fill-rule="nonzero"/></g><g clip-path="url(#15164e7131)"><path fill="#ffbd59" d="M 187.992188 142.085938 C 187.269531 142.886719 186.558594 143.742188 185.859375 144.632812 C 182.230469 149.261719 178.972656 154.890625 176.289062 159.535156 C 171.875 155.921875 169.539062 152.964844 163.628906 152.761719 C 165.328125 153.796875 166.726562 154.941406 167.910156 156.121094 C 171.203125 159.417969 172.820312 163.015625 174.570312 165.382812 C 174.644531 165.480469 174.722656 165.570312 174.804688 165.652344 C 175.265625 166.113281 175.871094 166.339844 176.46875 166.339844 C 177.273438 166.339844 178.074219 165.9375 178.519531 165.15625 C 181.9375 159.203125 185.125 152.785156 188.460938 147.4375 C 189.101562 146.414062 189.742188 145.433594 190.394531 144.5 C 193.488281 140.070312 196.773438 136.765625 200.527344 135.730469 C 200.027344 135.640625 199.523438 135.59375 199.023438 135.59375 C 195.167969 135.59375 191.441406 138.265625 187.992188 142.085938 " fill-opacity="1" fill-rule="nonzero"/></g><g clip-path="url(#3e86d88231)"><path fill="#000000" d="M 39.925781 154.117188 C 30.570312 154.117188 22.957031 146.503906 22.957031 137.144531 C 22.957031 136.558594 23.429688 136.085938 24.015625 136.085938 C 24.601562 136.085938 25.078125 136.558594 25.078125 137.144531 C 25.078125 145.332031 31.738281 151.996094 39.925781 151.996094 C 48.117188 151.996094 54.777344 145.332031 54.777344 137.144531 C 54.777344 128.957031 48.117188 122.292969 39.925781 122.292969 C 35.980469 122.292969 32.316406 123.828125 29.558594 126.539062 L 33.5625 126.539062 C 34.148438 126.539062 34.625 127.011719 34.625 127.597656 C 34.625 128.183594 34.148438 128.660156 33.5625 128.660156 L 27.199219 128.660156 C 26.613281 128.660156 26.136719 128.183594 26.136719 127.597656 L 26.136719 121.234375 C 26.136719 120.648438 26.613281 120.171875 27.199219 120.171875 C 27.785156 120.171875 28.257812 120.648438 28.257812 121.234375 L 28.257812 124.851562 C 31.390625 121.863281 35.5 120.171875 39.925781 120.171875 C 49.285156 120.171875 56.898438 127.785156 56.898438 137.144531 C 56.898438 146.503906 49.285156 154.117188 39.925781 154.117188 Z M 39.925781 119.15625 C 36.058594 119.15625 32.347656 120.386719 29.277344 122.664062 L 29.277344 121.234375 C 29.277344 120.085938 28.34375 119.15625 27.199219 119.15625 C 26.050781 119.15625 25.121094 120.085938 25.121094 121.234375 L 25.121094 127.597656 C 25.121094 128.742188 26.050781 129.675781 27.199219 129.675781 L 33.5625 129.675781 C 34.710938 129.675781 35.640625 128.742188 35.640625 127.597656 C 35.640625 126.453125 34.710938 125.519531 33.5625 125.519531 L 32.445312 125.519531 C 34.65625 124.082031 37.234375 123.3125 39.925781 123.3125 C 47.554688 123.3125 53.761719 129.519531 53.761719 137.144531 C 53.761719 144.773438 47.554688 150.976562 39.925781 150.976562 C 32.300781 150.976562 26.09375 144.773438 26.09375 137.144531 C 26.09375 136 25.164062 135.066406 24.015625 135.066406 C 22.871094 135.066406 21.9375 136 21.9375 137.144531 C 21.9375 147.066406 30.007812 155.136719 39.925781 155.136719 C 49.847656 155.136719 57.917969 147.066406 57.917969 137.144531 C 57.917969 127.226562 49.847656 119.15625 39.925781 119.15625 " fill-opacity="1" fill-rule="nonzero"/></g><path fill="#000000" d="M 40.988281 138.207031 L 38.867188 138.207031 C 37.113281 138.207031 35.683594 136.777344 35.683594 135.023438 C 35.683594 133.269531 37.113281 131.839844 38.867188 131.839844 L 38.867188 130.78125 C 38.867188 130.195312 39.339844 129.71875 39.925781 129.71875 C 40.511719 129.71875 40.988281 130.195312 40.988281 130.78125 L 40.988281 131.839844 L 43.109375 131.839844 C 43.695312 131.839844 44.167969 132.316406 44.167969 132.902344 C 44.167969 133.488281 43.695312 133.960938 43.109375 133.960938 L 38.867188 133.960938 C 38.28125 133.960938 37.804688 134.4375 37.804688 135.023438 C 37.804688 135.609375 38.28125 136.085938 38.867188 136.085938 L 40.988281 136.085938 C 42.742188 136.085938 44.167969 137.511719 44.167969 139.265625 C 44.167969 141.019531 42.742188 142.449219 40.988281 142.449219 L 40.988281 143.507812 C 40.988281 144.09375 40.511719 144.570312 39.925781 144.570312 C 39.339844 144.570312 38.867188 144.09375 38.867188 143.507812 L 38.867188 142.449219 L 36.746094 142.449219 C 36.160156 142.449219 35.683594 141.972656 35.683594 141.386719 C 35.683594 140.800781 36.160156 140.328125 36.746094 140.328125 L 40.988281 140.328125 C 41.574219 140.328125 42.050781 139.851562 42.050781 139.265625 C 42.050781 138.679688 41.574219 138.207031 40.988281 138.207031 Z M 36.746094 139.308594 C 35.597656 139.308594 34.667969 140.242188 34.667969 141.386719 C 34.667969 142.535156 35.597656 143.46875 36.746094 143.46875 L 37.847656 143.46875 L 37.847656 143.507812 C 37.847656 144.65625 38.78125 145.589844 39.925781 145.589844 C 41.074219 145.589844 42.007812 144.65625 42.007812 143.507812 L 42.007812 143.34375 C 43.832031 142.886719 45.1875 141.230469 45.1875 139.265625 C 45.1875 136.949219 43.304688 135.066406 40.988281 135.066406 L 38.867188 135.066406 L 38.867188 134.980469 L 43.109375 134.980469 C 44.257812 134.980469 45.1875 134.046875 45.1875 132.902344 C 45.1875 131.753906 44.257812 130.824219 43.109375 130.824219 L 42.007812 130.824219 L 42.007812 130.78125 C 42.007812 129.632812 41.074219 128.703125 39.925781 128.703125 C 38.78125 128.703125 37.847656 129.632812 37.847656 130.78125 L 37.847656 130.949219 C 36.023438 131.402344 34.667969 133.058594 34.667969 135.023438 C 34.667969 137.339844 36.550781 139.222656 38.867188 139.222656 L 40.988281 139.222656 L 40.988281 139.308594 L 36.746094 139.308594 " fill-opacity="1" fill-rule="nonzero"/><g clip-path="url(#c8b0dc76ca)"><path fill="#ffbd59" d="M 71.859375 85.222656 C 71.382812 84.683594 70.589844 84.824219 69.957031 84.679688 C 65.351562 83.921875 61.027344 82.042969 56.894531 79.933594 C 56.699219 79.839844 56.492188 79.757812 56.285156 79.6875 L 55.988281 79.6875 C 55.273438 79.902344 54.636719 80.3125 53.960938 80.625 C 50.335938 82.402344 46.535156 83.9375 42.542969 84.636719 C 41.964844 84.753906 41.367188 84.746094 40.804688 84.914062 C 40.359375 85.109375 40.03125 85.578125 40.058594 86.074219 C 40.011719 88.828125 40.109375 91.585938 40.328125 94.332031 C 40.636719 97.824219 41.140625 101.339844 42.316406 104.660156 C 42.886719 106.203125 43.609375 107.714844 44.703125 108.957031 C 47.683594 112.488281 51.386719 115.378906 55.441406 117.582031 C 55.613281 117.667969 55.792969 117.738281 55.980469 117.792969 L 56.238281 117.792969 C 56.960938 117.589844 57.558594 117.105469 58.21875 116.765625 C 61.359375 114.910156 64.230469 112.59375 66.707031 109.910156 C 67.453125 109.066406 68.222656 108.21875 68.753906 107.21875 C 70 105.007812 70.65625 102.527344 71.148438 100.058594 C 71.992188 95.554688 72.210938 90.957031 72.1875 86.382812 C 72.199219 85.972656 72.167969 85.527344 71.859375 85.222656 Z M 70.109375 99.042969 C 69.605469 101.820312 68.945312 104.644531 67.453125 107.074219 C 66.128906 108.992188 64.421875 110.605469 62.675781 112.132812 C 60.660156 113.851562 58.445312 115.328125 56.117188 116.597656 C 52.039062 114.382812 48.304688 111.46875 45.355469 107.871094 C 43.835938 105.925781 43.117188 103.507812 42.546875 101.144531 C 41.449219 96.1875 41.1875 91.082031 41.261719 86.015625 C 46.523438 85.421875 51.441406 83.257812 56.121094 80.886719 C 60.796875 83.261719 65.722656 85.421875 70.988281 86.015625 C 71.050781 90.371094 70.84375 94.746094 70.109375 99.042969 Z M 70.109375 99.042969 " fill-opacity="1" fill-rule="nonzero"/></g><path fill="#ffbd59" d="M 43.625 88.085938 C 43.710938 92.773438 43.980469 97.511719 45.21875 102.050781 C 45.703125 103.726562 46.328125 105.429688 47.523438 106.738281 C 49.929688 109.609375 52.910156 111.953125 56.121094 113.863281 C 59.539062 111.832031 62.695312 109.296875 65.175781 106.175781 C 66.351562 104.5625 66.910156 102.605469 67.367188 100.6875 C 68.296875 96.558594 68.542969 92.308594 68.613281 88.085938 C 64.242188 87.242188 60.089844 85.539062 56.121094 83.558594 C 52.148438 85.539062 48 87.246094 43.625 88.085938 Z M 43.625 88.085938 " fill-opacity="1" fill-rule="nonzero"/><g clip-path="url(#fc190639e8)"><path fill="#000000" d="M 47.066406 98.519531 C 49.367188 100.828125 51.015625 103.140625 52.660156 106.113281 C 60.339844 91.585938 69.664062 84.980469 67.6875 87.292969 C 61.4375 95.328125 57.15625 103.472656 52.988281 112.714844 C 50.574219 108.3125 47.503906 102.480469 43.773438 101.269531 C 42.675781 100.167969 45.308594 97.527344 47.066406 98.519531 Z M 47.066406 98.519531 " fill-opacity="1" fill-rule="nonzero"/></g><path stroke-linecap="butt" transform="matrix(0.7496, 0, 0, 0.7496, 80.337568, 151.122673)" fill="none" stroke-linejoin="miter" d="M -0.00217557 2.499227 L 53.729611 2.499227 " stroke="#000000" stroke-width="5" stroke-opacity="1" stroke-miterlimit="4"/><path stroke-linecap="butt" transform="matrix(0.7496, 0, 0, 0.7496, 94.095099, 143.004156)" fill="none" stroke-linejoin="miter" d="M -0.00180024 2.501002 L 53.729986 2.501002 " stroke="#ffbd59" stroke-width="5" stroke-opacity="1" stroke-miterlimit="4"/><path stroke-linecap="butt" transform="matrix(0.7496, 0, 0, 0.7496, 80.337568, 133.359673)" fill="none" stroke-linejoin="miter" d="M -0.00217557 2.500936 L 53.729611 2.500936 " stroke="#000000" stroke-width="5" stroke-opacity="1" stroke-miterlimit="4"/><path stroke-linecap="butt" transform="matrix(0.7496, 0, 0, 0.7496, 94.095099, 119.27428)" fill="none" stroke-linejoin="miter" d="M -0.00180024 2.50021 L 53.729986 2.50021 " stroke="#ffbd59" stroke-width="5" stroke-opacity="1" stroke-miterlimit="4"/><path stroke-linecap="butt" transform="matrix(0.7496, 0, 0, 0.7496, 137.873345, 98.740512)" fill="none" stroke-linejoin="miter" d="M 0.00220754 2.498358 L 26.865495 2.498358 " stroke="#000000" stroke-width="5" stroke-opacity="1" stroke-miterlimit="4"/><path stroke-linecap="butt" transform="matrix(0.7496, 0, 0, 0.7496, 137.873345, 88.921398)" fill="none" stroke-linejoin="miter" d="M 0.00220754 2.50197 L 26.865495 2.50197 " stroke="#000000" stroke-width="5" stroke-opacity="1" stroke-miterlimit="4"/><path stroke-linecap="butt" transform="matrix(0.7496, 0, 0, 0.7496, 137.873345, 79.102224)" fill="none" stroke-linejoin="miter" d="M 0.00220754 2.500451 L 26.865495 2.500451 " stroke="#ffbd59" stroke-width="5" stroke-opacity="1" stroke-miterlimit="4"/><path stroke-linecap="butt" transform="matrix(0.7496, 0, 0, 0.7496, 167.030881, 74.378514)" fill="none" stroke-linejoin="miter" d="M 0.000492886 20.000775 L 26.863781 20.000775 " stroke="#ffbd59" stroke-width="40" stroke-opacity="1" stroke-miterlimit="4"/></svg>