<svg xmlns="http://www.w3.org/2000/svg" xmlns:xlink="http://www.w3.org/1999/xlink" width="300" zoomAndPan="magnify" viewBox="0 0 224.87999 225" height="300" preserveAspectRatio="xMidYMid meet" version="1.0"><defs><clipPath id="a26afcb4fe"><path d="M 0 0.0585938 L 224.761719 0.0585938 L 224.761719 224.9375 L 0 224.9375 Z M 0 0.0585938 " clip-rule="nonzero"/></clipPath><clipPath id="8fb0958532"><path d="M 64.132812 42.023438 L 208.804688 42.023438 L 208.804688 186.695312 L 64.132812 186.695312 Z M 64.132812 42.023438 " clip-rule="nonzero"/></clipPath><clipPath id="23bb90d946"><path d="M 3.746094 48.277344 L 76.460938 48.277344 L 76.460938 120.988281 L 3.746094 120.988281 Z M 3.746094 48.277344 " clip-rule="nonzero"/></clipPath><clipPath id="d1dc1819cd"><path d="M 52.054688 29.945312 L 221.464844 29.945312 L 221.464844 199.355469 L 52.054688 199.355469 Z M 52.054688 29.945312 " clip-rule="nonzero"/></clipPath><clipPath id="e0a35d4983"><path d="M 99.28125 155 L 174 155 L 174 219.253906 L 99.28125 219.253906 Z M 99.28125 155 " clip-rule="nonzero"/></clipPath><clipPath id="8219d9bd2e"><path d="M 136.59375 18 L 213.800781 18 L 213.800781 59.605469 L 136.59375 59.605469 Z M 136.59375 18 " clip-rule="nonzero"/></clipPath></defs><g clip-path="url(#a26afcb4fe)"><path fill="#ffffff" d="M 0 0.0585938 L 224.878906 0.0585938 L 224.878906 224.941406 L 0 224.941406 Z M 0 0.0585938 " fill-opacity="1" fill-rule="nonzero"/><path fill="#ffffff" d="M 0 0.0585938 L 224.878906 0.0585938 L 224.878906 224.941406 L 0 224.941406 Z M 0 0.0585938 " fill-opacity="1" fill-rule="nonzero"/></g><g clip-path="url(#8fb0958532)"><path fill="#ffbd59" d="M 209.050781 114.480469 C 209.050781 115.667969 209.023438 116.851562 208.964844 118.035156 C 208.90625 119.222656 208.820312 120.402344 208.703125 121.582031 C 208.585938 122.765625 208.441406 123.941406 208.265625 125.113281 C 208.09375 126.285156 207.890625 127.453125 207.660156 128.617188 C 207.425781 129.78125 207.167969 130.9375 206.878906 132.085938 C 206.589844 133.238281 206.273438 134.378906 205.929688 135.515625 C 205.585938 136.648438 205.214844 137.777344 204.816406 138.890625 C 204.414062 140.007812 203.988281 141.113281 203.535156 142.210938 C 203.082031 143.304688 202.601562 144.390625 202.09375 145.460938 C 201.585938 146.535156 201.054688 147.59375 200.496094 148.636719 C 199.9375 149.683594 199.351562 150.714844 198.742188 151.734375 C 198.132812 152.75 197.5 153.75 196.839844 154.738281 C 196.179688 155.722656 195.5 156.691406 194.792969 157.644531 C 194.085938 158.597656 193.355469 159.53125 192.605469 160.449219 C 191.851562 161.367188 191.078125 162.261719 190.28125 163.140625 C 189.484375 164.019531 188.667969 164.878906 187.828125 165.71875 C 186.988281 166.554688 186.132812 167.375 185.253906 168.171875 C 184.375 168.964844 183.476562 169.742188 182.558594 170.492188 C 181.644531 171.246094 180.707031 171.976562 179.753906 172.679688 C 178.804688 173.386719 177.835938 174.070312 176.847656 174.730469 C 175.863281 175.386719 174.859375 176.023438 173.84375 176.632812 C 172.828125 177.242188 171.792969 177.824219 170.75 178.382812 C 169.703125 178.945312 168.644531 179.476562 167.570312 179.984375 C 166.5 180.492188 165.417969 180.972656 164.320312 181.425781 C 163.226562 181.878906 162.121094 182.304688 161.003906 182.703125 C 159.886719 183.105469 158.761719 183.476562 157.625 183.820312 C 156.492188 184.164062 155.347656 184.480469 154.199219 184.769531 C 153.046875 185.058594 151.890625 185.316406 150.726562 185.546875 C 149.566406 185.78125 148.398438 185.980469 147.222656 186.15625 C 146.050781 186.332031 144.875 186.476562 143.695312 186.589844 C 142.515625 186.707031 141.332031 186.796875 140.148438 186.851562 C 138.960938 186.910156 137.777344 186.941406 136.59375 186.941406 C 135.40625 186.941406 134.222656 186.910156 133.035156 186.851562 C 131.851562 186.796875 130.667969 186.707031 129.488281 186.589844 C 128.308594 186.476562 127.132812 186.332031 125.960938 186.15625 C 124.785156 185.980469 123.617188 185.78125 122.457031 185.546875 C 121.292969 185.316406 120.136719 185.058594 118.984375 184.769531 C 117.835938 184.480469 116.691406 184.164062 115.558594 183.820312 C 114.421875 183.476562 113.296875 183.105469 112.179688 182.703125 C 111.0625 182.304688 109.957031 181.878906 108.863281 181.425781 C 107.765625 180.972656 106.683594 180.492188 105.613281 179.984375 C 104.539062 179.476562 103.480469 178.945312 102.433594 178.382812 C 101.390625 177.824219 100.355469 177.242188 99.339844 176.632812 C 98.324219 176.023438 97.320312 175.386719 96.335938 174.730469 C 95.347656 174.070312 94.378906 173.386719 93.429688 172.679688 C 92.476562 171.976562 91.539062 171.246094 90.625 170.492188 C 89.707031 169.742188 88.808594 168.964844 87.929688 168.171875 C 87.050781 167.375 86.195312 166.554688 85.355469 165.71875 C 84.515625 164.878906 83.699219 164.019531 82.902344 163.140625 C 82.105469 162.261719 81.332031 161.367188 80.578125 160.449219 C 79.828125 159.53125 79.097656 158.597656 78.390625 157.644531 C 77.683594 156.691406 77.003906 155.722656 76.34375 154.738281 C 75.683594 153.75 75.050781 152.75 74.441406 151.734375 C 73.832031 150.714844 73.246094 149.683594 72.6875 148.636719 C 72.128906 147.59375 71.597656 146.535156 71.089844 145.460938 C 70.582031 144.390625 70.101562 143.304688 69.648438 142.210938 C 69.195312 141.113281 68.769531 140.007812 68.367188 138.890625 C 67.96875 137.777344 67.597656 136.648438 67.253906 135.515625 C 66.910156 134.378906 66.59375 133.238281 66.304688 132.085938 C 66.015625 130.9375 65.757812 129.78125 65.523438 128.617188 C 65.292969 127.453125 65.089844 126.285156 64.917969 125.113281 C 64.742188 123.941406 64.597656 122.765625 64.480469 121.582031 C 64.363281 120.402344 64.277344 119.222656 64.21875 118.035156 C 64.160156 116.851562 64.132812 115.667969 64.132812 114.480469 C 64.132812 113.296875 64.160156 112.109375 64.21875 110.925781 C 64.277344 109.742188 64.363281 108.558594 64.480469 107.378906 C 64.597656 106.199219 64.742188 105.023438 64.917969 103.847656 C 65.089844 102.675781 65.292969 101.507812 65.523438 100.34375 C 65.757812 99.183594 66.015625 98.027344 66.304688 96.875 C 66.59375 95.726562 66.910156 94.582031 67.253906 93.449219 C 67.597656 92.3125 67.96875 91.1875 68.367188 90.070312 C 68.769531 88.953125 69.195312 87.847656 69.648438 86.753906 C 70.101562 85.65625 70.582031 84.574219 71.089844 83.5 C 71.597656 82.429688 72.128906 81.371094 72.6875 80.324219 C 73.246094 79.277344 73.832031 78.246094 74.441406 77.230469 C 75.050781 76.210938 75.683594 75.210938 76.34375 74.226562 C 77.003906 73.238281 77.683594 72.269531 78.390625 71.316406 C 79.097656 70.363281 79.828125 69.429688 80.578125 68.511719 C 81.332031 67.597656 82.105469 66.699219 82.902344 65.820312 C 83.699219 64.941406 84.515625 64.082031 85.355469 63.246094 C 86.195312 62.40625 87.050781 61.589844 87.929688 60.792969 C 88.808594 59.996094 89.707031 59.222656 90.625 58.46875 C 91.539062 57.71875 92.476562 56.988281 93.429688 56.28125 C 94.378906 55.574219 95.347656 54.890625 96.335938 54.234375 C 97.320312 53.574219 98.324219 52.941406 99.339844 52.332031 C 100.355469 51.722656 101.390625 51.136719 102.433594 50.578125 C 103.480469 50.019531 104.539062 49.484375 105.613281 48.980469 C 106.683594 48.472656 107.765625 47.992188 108.863281 47.539062 C 109.957031 47.082031 111.0625 46.65625 112.179688 46.257812 C 113.296875 45.859375 114.421875 45.484375 115.558594 45.140625 C 116.691406 44.796875 117.835938 44.480469 118.984375 44.195312 C 120.136719 43.90625 121.292969 43.644531 122.457031 43.414062 C 123.617188 43.183594 124.785156 42.980469 125.960938 42.804688 C 127.132812 42.632812 128.308594 42.488281 129.488281 42.371094 C 130.667969 42.253906 131.851562 42.167969 133.035156 42.109375 C 134.222656 42.050781 135.40625 42.023438 136.59375 42.023438 C 137.777344 42.023438 138.960938 42.050781 140.148438 42.109375 C 141.332031 42.167969 142.515625 42.253906 143.695312 42.371094 C 144.875 42.488281 146.050781 42.632812 147.222656 42.804688 C 148.398438 42.980469 149.566406 43.183594 150.726562 43.414062 C 151.890625 43.644531 153.046875 43.90625 154.199219 44.195312 C 155.347656 44.480469 156.492188 44.796875 157.625 45.140625 C 158.761719 45.484375 159.886719 45.859375 161.003906 46.257812 C 162.121094 46.65625 163.226562 47.082031 164.320312 47.539062 C 165.417969 47.992188 166.5 48.472656 167.570312 48.980469 C 168.644531 49.484375 169.703125 50.019531 170.75 50.578125 C 171.792969 51.136719 172.828125 51.722656 173.84375 52.332031 C 174.859375 52.941406 175.863281 53.574219 176.847656 54.234375 C 177.835938 54.890625 178.804688 55.574219 179.753906 56.28125 C 180.707031 56.988281 181.644531 57.71875 182.558594 58.46875 C 183.476562 59.222656 184.375 59.996094 185.253906 60.792969 C 186.132812 61.589844 186.988281 62.40625 187.828125 63.246094 C 188.667969 64.082031 189.484375 64.941406 190.28125 65.820312 C 191.078125 66.699219 191.851562 67.597656 192.605469 68.511719 C 193.355469 69.429688 194.085938 70.363281 194.792969 71.316406 C 195.5 72.269531 196.179688 73.238281 196.839844 74.226562 C 197.5 75.210938 198.132812 76.210938 198.742188 77.230469 C 199.351562 78.246094 199.9375 79.277344 200.496094 80.324219 C 201.054688 81.371094 201.585938 82.429688 202.09375 83.5 C 202.601562 84.574219 203.082031 85.65625 203.535156 86.753906 C 203.988281 87.847656 204.414062 88.953125 204.816406 90.070312 C 205.214844 91.1875 205.585938 92.3125 205.929688 93.449219 C 206.273438 94.582031 206.589844 95.726562 206.878906 96.875 C 207.167969 98.027344 207.425781 99.183594 207.660156 100.34375 C 207.890625 101.507812 208.09375 102.675781 208.265625 103.847656 C 208.441406 105.023438 208.585938 106.199219 208.703125 107.378906 C 208.820312 108.558594 208.90625 109.742188 208.964844 110.925781 C 209.023438 112.109375 209.050781 113.296875 209.050781 114.480469 Z M 209.050781 114.480469 " fill-opacity="1" fill-rule="nonzero"/></g><path fill="#000000" d="M 181.925781 155.792969 L 95.605469 155.792969 C 95.007812 155.792969 94.519531 155.304688 94.519531 154.707031 L 94.519531 81.757812 C 94.519531 81.160156 95.007812 80.671875 95.605469 80.671875 C 96.203125 80.671875 96.691406 81.160156 96.691406 81.757812 L 96.691406 153.621094 L 181.925781 153.621094 C 182.523438 153.621094 183.011719 154.109375 183.011719 154.707031 C 183.011719 155.304688 182.523438 155.792969 181.925781 155.792969 Z M 181.925781 155.792969 " fill-opacity="1" fill-rule="evenodd"/><path fill="#000000" d="M 120.449219 107.359375 C 119.847656 107.359375 119.359375 106.871094 119.359375 106.273438 L 119.359375 103.664062 C 119.359375 103.066406 119.847656 102.578125 120.449219 102.578125 C 121.101562 102.578125 121.535156 103.066406 121.535156 103.664062 L 121.535156 106.273438 C 121.535156 106.871094 121.101562 107.359375 120.449219 107.359375 Z M 120.449219 89.964844 C 119.847656 89.964844 119.359375 89.476562 119.359375 88.878906 L 119.359375 86.269531 C 119.359375 85.671875 119.847656 85.183594 120.449219 85.183594 C 121.101562 85.183594 121.535156 85.671875 121.535156 86.269531 L 121.535156 88.878906 C 121.535156 89.476562 121.101562 89.964844 120.449219 89.964844 Z M 120.449219 89.964844 " fill-opacity="1" fill-rule="evenodd"/><path fill="#000000" d="M 119.46875 104.804688 C 118.328125 104.804688 117.242188 104.589844 116.207031 104.207031 C 115.664062 103.9375 115.445312 103.285156 115.664062 102.738281 C 115.882812 102.195312 116.535156 101.925781 117.078125 102.195312 C 118.707031 102.902344 120.9375 102.792969 122.242188 101.925781 C 122.894531 101.488281 123.21875 100.890625 123.21875 100.128906 C 123.21875 98.664062 122.242188 98.175781 120.011719 97.25 C 118.4375 96.597656 116.589844 95.890625 115.882812 94.097656 C 115.175781 92.410156 115.554688 90.671875 116.859375 89.421875 C 118.707031 87.628906 122.023438 87.195312 124.742188 88.390625 C 125.339844 88.605469 125.558594 89.257812 125.339844 89.800781 C 125.066406 90.402344 124.46875 90.617188 123.925781 90.402344 C 121.699219 89.421875 119.414062 89.964844 118.382812 91 C 117.675781 91.652344 117.511719 92.410156 117.894531 93.28125 C 118.21875 94.207031 119.523438 94.695312 120.828125 95.238281 C 122.894531 96.054688 125.394531 97.085938 125.394531 100.128906 C 125.394531 101.652344 124.6875 102.902344 123.4375 103.773438 C 122.351562 104.480469 120.9375 104.804688 119.46875 104.804688 Z M 119.46875 104.804688 " fill-opacity="1" fill-rule="evenodd"/><path fill="#000000" d="M 120.449219 110.023438 C 112.890625 110.023438 106.75 103.828125 106.75 96.269531 C 106.75 88.714844 112.890625 82.519531 120.449219 82.519531 C 128.058594 82.519531 134.199219 88.714844 134.199219 96.269531 C 134.199219 103.828125 128.058594 110.023438 120.449219 110.023438 Z M 120.449219 84.691406 C 114.085938 84.691406 108.921875 89.910156 108.921875 96.269531 C 108.921875 102.632812 114.085938 107.851562 120.449219 107.851562 C 126.863281 107.851562 132.027344 102.632812 132.027344 96.269531 C 132.027344 89.910156 126.863281 84.691406 120.449219 84.691406 Z M 120.449219 84.691406 " fill-opacity="1" fill-rule="evenodd"/><path fill="#000000" d="M 120.449219 80.234375 C 119.847656 80.234375 119.359375 79.746094 119.359375 79.148438 L 119.359375 70.015625 C 119.359375 69.417969 119.847656 68.929688 120.449219 68.929688 C 121.101562 68.929688 121.535156 69.417969 121.535156 70.015625 L 121.535156 79.148438 C 121.535156 79.746094 121.101562 80.234375 120.449219 80.234375 Z M 120.449219 80.234375 " fill-opacity="1" fill-rule="evenodd"/><path fill="#000000" d="M 123.871094 74.855469 C 123.601562 74.855469 123.328125 74.691406 123.109375 74.472656 L 120.449219 71.59375 L 117.839844 74.472656 C 117.457031 74.910156 116.75 74.964844 116.316406 74.527344 C 115.882812 74.148438 115.828125 73.441406 116.261719 73.007812 L 119.6875 69.253906 C 120.066406 68.820312 120.882812 68.820312 121.261719 69.253906 L 124.6875 73.007812 C 125.121094 73.441406 125.066406 74.148438 124.632812 74.527344 C 124.414062 74.746094 124.144531 74.855469 123.871094 74.855469 Z M 123.871094 74.855469 " fill-opacity="1" fill-rule="evenodd"/><path fill="#000000" d="M 134.851562 88.007812 C 134.253906 88.007812 133.765625 87.519531 133.765625 86.921875 L 133.765625 77.789062 C 133.765625 77.191406 134.253906 76.703125 134.851562 76.703125 C 135.449219 76.703125 135.941406 77.191406 135.941406 77.789062 L 135.941406 86.921875 C 135.941406 87.519531 135.449219 88.007812 134.851562 88.007812 Z M 134.851562 88.007812 " fill-opacity="1" fill-rule="evenodd"/><path fill="#000000" d="M 138.277344 82.628906 C 138.003906 82.628906 137.679688 82.519531 137.515625 82.246094 L 134.851562 79.421875 L 132.242188 82.246094 C 131.863281 82.734375 131.15625 82.734375 130.722656 82.355469 C 130.285156 81.921875 130.230469 81.269531 130.667969 80.777344 L 134.089844 77.082031 C 134.253906 76.867188 134.582031 76.703125 134.851562 76.703125 C 135.179688 76.703125 135.449219 76.867188 135.667969 77.082031 L 139.09375 80.777344 C 139.527344 81.214844 139.472656 81.921875 139.039062 82.355469 C 138.820312 82.519531 138.546875 82.628906 138.277344 82.628906 Z M 138.277344 82.628906 " fill-opacity="1" fill-rule="evenodd"/><path fill="#000000" d="M 106.097656 88.007812 C 105.5 88.007812 105.007812 87.519531 105.007812 86.921875 L 105.007812 77.789062 C 105.007812 77.191406 105.5 76.703125 106.097656 76.703125 C 106.695312 76.703125 107.183594 77.191406 107.183594 77.789062 L 107.183594 86.921875 C 107.183594 87.519531 106.695312 88.007812 106.097656 88.007812 Z M 106.097656 88.007812 " fill-opacity="1" fill-rule="evenodd"/><path fill="#000000" d="M 109.519531 82.628906 C 109.195312 82.628906 108.921875 82.519531 108.707031 82.246094 L 106.097656 79.421875 L 103.433594 82.246094 C 103.054688 82.734375 102.347656 82.734375 101.910156 82.355469 C 101.476562 81.921875 101.421875 81.269531 101.855469 80.777344 L 105.28125 77.082031 C 105.660156 76.59375 106.476562 76.59375 106.859375 77.082031 L 110.28125 80.777344 C 110.71875 81.214844 110.664062 81.921875 110.226562 82.355469 C 110.011719 82.519531 109.738281 82.628906 109.519531 82.628906 Z M 109.519531 82.628906 " fill-opacity="1" fill-rule="evenodd"/><path fill="#000000" d="M 167.847656 155.792969 L 150.832031 155.792969 C 150.234375 155.792969 149.746094 155.304688 149.746094 154.707031 L 149.746094 103.011719 C 149.746094 100.566406 151.757812 98.609375 154.148438 98.609375 L 164.53125 98.609375 C 166.976562 98.609375 168.933594 100.566406 168.933594 103.011719 L 168.933594 154.707031 C 168.933594 155.304688 168.445312 155.792969 167.847656 155.792969 Z M 151.921875 153.621094 L 166.761719 153.621094 L 166.761719 103.011719 C 166.761719 101.761719 165.78125 100.78125 164.53125 100.78125 L 154.148438 100.78125 C 152.953125 100.78125 151.921875 101.761719 151.921875 103.011719 Z M 151.921875 153.621094 " fill-opacity="1" fill-rule="evenodd"/><path fill="#000000" d="M 143.765625 155.792969 L 126.753906 155.792969 C 126.15625 155.792969 125.664062 155.304688 125.664062 154.707031 L 125.664062 116.382812 C 125.664062 113.9375 127.675781 111.980469 130.070312 111.980469 L 140.453125 111.980469 C 142.898438 111.980469 144.855469 113.9375 144.855469 116.382812 L 144.855469 154.707031 C 144.855469 155.304688 144.363281 155.792969 143.765625 155.792969 Z M 127.839844 153.621094 L 142.679688 153.621094 L 142.679688 116.382812 C 142.679688 115.132812 141.703125 114.15625 140.453125 114.15625 L 130.070312 114.15625 C 128.871094 114.15625 127.839844 115.132812 127.839844 116.382812 Z M 127.839844 153.621094 " fill-opacity="1" fill-rule="evenodd"/><path fill="#000000" d="M 119.6875 155.792969 L 102.671875 155.792969 C 102.074219 155.792969 101.585938 155.304688 101.585938 154.707031 L 101.585938 129.757812 C 101.585938 127.308594 103.542969 125.351562 105.988281 125.351562 L 116.371094 125.351562 C 118.816406 125.351562 120.773438 127.308594 120.773438 129.757812 L 120.773438 154.707031 C 120.773438 155.304688 120.285156 155.792969 119.6875 155.792969 Z M 103.757812 153.621094 L 118.597656 153.621094 L 118.597656 129.757812 C 118.597656 128.503906 117.621094 127.527344 116.371094 127.527344 L 105.988281 127.527344 C 104.738281 127.527344 103.757812 128.503906 103.757812 129.757812 Z M 103.757812 153.621094 " fill-opacity="1" fill-rule="evenodd"/><path fill="#000000" d="M 99.847656 87.519531 C 99.574219 87.519531 99.300781 87.410156 99.085938 87.195312 L 95.605469 83.386719 L 92.125 87.195312 C 91.691406 87.628906 91.039062 87.628906 90.550781 87.246094 C 90.117188 86.867188 90.117188 86.160156 90.496094 85.726562 L 94.789062 81.050781 C 95.226562 80.617188 95.984375 80.617188 96.367188 81.050781 L 100.660156 85.726562 C 101.097656 86.160156 101.042969 86.867188 100.605469 87.246094 C 100.390625 87.410156 100.117188 87.519531 99.847656 87.519531 Z M 99.847656 87.519531 " fill-opacity="1" fill-rule="evenodd"/><path fill="#000000" d="M 177.25 160.085938 C 176.925781 160.085938 176.652344 159.980469 176.4375 159.707031 C 176.054688 159.273438 176.054688 158.621094 176.492188 158.183594 L 180.296875 154.707031 L 176.492188 151.226562 C 176.054688 150.847656 176.054688 150.140625 176.4375 149.707031 C 176.816406 149.269531 177.523438 149.214844 177.957031 149.652344 L 182.632812 153.890625 C 182.851562 154.109375 183.011719 154.378906 183.011719 154.707031 C 183.011719 155.03125 182.851562 155.304688 182.632812 155.523438 L 177.957031 159.816406 C 177.742188 159.980469 177.523438 160.085938 177.25 160.085938 Z M 177.25 160.085938 " fill-opacity="1" fill-rule="evenodd"/><g clip-path="url(#23bb90d946)"><path fill="#000000" d="M 42.507812 84.972656 C 42.621094 86.050781 42.320312 87.175781 41.582031 88.078125 L 41.503906 88.167969 C 41.046875 88.625 40.308594 88.625 39.851562 88.171875 C 39.40625 87.726562 39.394531 87.007812 39.820312 86.550781 C 40.113281 86.15625 40.234375 85.675781 40.1875 85.210938 C 40.140625 84.746094 39.925781 84.300781 39.554688 83.976562 L 38.125 82.8125 C 37.722656 82.480469 37.214844 82.347656 36.730469 82.398438 C 36.242188 82.449219 35.773438 82.679688 35.445312 83.085938 C 35.117188 83.488281 34.984375 83.996094 35.035156 84.480469 C 35.082031 84.96875 35.316406 85.433594 35.722656 85.765625 L 37.097656 86.882812 C 38 87.617188 38.523438 88.65625 38.632812 89.734375 C 38.742188 90.816406 38.445312 91.9375 37.707031 92.84375 C 36.96875 93.746094 35.933594 94.269531 34.851562 94.378906 C 33.863281 94.480469 32.835938 94.234375 31.972656 93.621094 L 31.078125 94.722656 C 30.671875 95.222656 29.9375 95.296875 29.4375 94.890625 C 28.9375 94.484375 28.863281 93.75 29.269531 93.25 L 30.164062 92.148438 C 29.394531 91.429688 28.9375 90.472656 28.835938 89.484375 C 28.726562 88.40625 29.027344 87.285156 29.761719 86.378906 L 29.84375 86.289062 C 30.296875 85.832031 31.039062 85.832031 31.496094 86.285156 C 31.941406 86.730469 31.949219 87.445312 31.53125 87.902344 C 31.230469 88.300781 31.113281 88.78125 31.160156 89.246094 C 31.207031 89.707031 31.421875 90.15625 31.792969 90.480469 L 33.222656 91.644531 C 33.625 91.976562 34.128906 92.105469 34.617188 92.058594 C 35.105469 92.007812 35.570312 91.773438 35.898438 91.371094 C 36.230469 90.964844 36.363281 90.460938 36.3125 89.972656 C 36.261719 89.488281 36.027344 89.019531 35.625 88.691406 L 34.25 87.574219 C 33.347656 86.835938 32.824219 85.800781 32.714844 84.71875 C 32.605469 83.640625 32.902344 82.519531 33.640625 81.613281 C 34.375 80.707031 35.414062 80.1875 36.492188 80.074219 C 37.484375 79.972656 38.511719 80.222656 39.371094 80.835938 L 40.269531 79.734375 C 40.675781 79.234375 41.410156 79.15625 41.910156 79.5625 C 42.40625 79.96875 42.484375 80.707031 42.078125 81.203125 L 41.179688 82.308594 C 41.953125 83.027344 42.40625 83.980469 42.507812 84.972656 Z M 34.179688 102.253906 L 21.261719 91.746094 C 20.765625 91.339844 20.03125 91.417969 19.625 91.914062 C 19.21875 92.414062 19.292969 93.148438 19.792969 93.554688 L 32.710938 104.0625 C 33.207031 104.46875 33.941406 104.394531 34.347656 103.894531 C 34.753906 103.398438 34.679688 102.660156 34.179688 102.253906 Z M 30.785156 106.425781 L 17.871094 95.917969 C 17.371094 95.511719 16.636719 95.585938 16.230469 96.085938 C 15.824219 96.585938 15.898438 97.320312 16.398438 97.726562 L 29.316406 108.234375 C 29.8125 108.640625 30.546875 108.566406 30.953125 108.066406 C 31.359375 107.566406 31.285156 106.832031 30.785156 106.425781 Z M 76.460938 65.222656 C 76.460938 69.902344 74.5625 74.136719 71.496094 77.203125 C 68.429688 80.269531 64.195312 82.164062 59.507812 82.164062 C 58.871094 82.164062 58.246094 82.136719 57.636719 82.074219 C 57.433594 82.054688 57.234375 82.03125 57.035156 82.003906 L 56.195312 89.03125 C 56.164062 89.289062 56.054688 89.515625 55.890625 89.6875 L 30.894531 120.410156 C 30.488281 120.910156 29.753906 120.988281 29.253906 120.582031 L 4.324219 100.292969 C 3.824219 99.886719 3.746094 99.152344 4.15625 98.652344 L 29.199219 67.871094 C 29.34375 67.695312 29.53125 67.570312 29.734375 67.5 L 42.691406 63.15625 C 43.160156 59.304688 44.921875 55.847656 47.527344 53.238281 C 50.59375 50.171875 54.832031 48.277344 59.511719 48.277344 C 64.191406 48.277344 68.429688 50.171875 71.496094 53.238281 C 74.5625 56.308594 76.460938 60.542969 76.460938 65.222656 Z M 53.917969 88.425781 L 55.808594 72.582031 L 45.921875 64.535156 L 44.914062 64.875 C 44.910156 64.992188 44.902344 65.109375 44.902344 65.226562 C 44.902344 66.925781 45.203125 68.546875 45.738281 70.050781 C 45.875 70.023438 46.015625 70.007812 46.152344 69.996094 L 46.160156 69.996094 C 47.285156 69.90625 48.34375 70.28125 49.144531 70.960938 C 49.945312 71.644531 50.488281 72.632812 50.582031 73.765625 L 50.582031 73.769531 C 50.671875 74.894531 50.296875 75.953125 49.617188 76.753906 C 48.933594 77.558594 47.945312 78.101562 46.8125 78.191406 C 45.6875 78.285156 44.625 77.90625 43.824219 77.226562 C 43.019531 76.546875 42.476562 75.554688 42.382812 74.421875 C 42.292969 73.296875 42.667969 72.234375 43.347656 71.433594 C 43.445312 71.324219 43.542969 71.21875 43.648438 71.117188 C 43.003906 69.410156 42.621094 67.578125 42.570312 65.660156 L 30.796875 69.605469 L 6.699219 99.21875 L 29.824219 118.035156 Z M 44.714844 74.238281 C 44.753906 74.726562 44.984375 75.152344 45.332031 75.445312 C 45.609375 75.683594 45.96875 75.832031 46.351562 75.859375 C 45.773438 75.132812 45.253906 74.359375 44.792969 73.546875 C 44.722656 73.761719 44.695312 73.996094 44.714844 74.238281 Z M 48.25 73.988281 L 48.246094 73.910156 C 48.199219 73.4375 47.96875 73.027344 47.632812 72.742188 C 47.398438 72.542969 47.109375 72.40625 46.792969 72.351562 C 47.210938 73.089844 47.683594 73.796875 48.214844 74.457031 C 48.246094 74.304688 48.261719 74.148438 48.25 73.988281 Z M 74.117188 65.222656 C 74.117188 61.1875 72.484375 57.535156 69.839844 54.894531 C 67.199219 52.25 63.546875 50.617188 59.511719 50.617188 C 55.476562 50.617188 51.824219 52.253906 49.179688 54.894531 C 47.191406 56.882812 45.773438 59.449219 45.191406 62.316406 L 45.789062 62.117188 C 46.1875 61.984375 46.609375 62.078125 46.914062 62.332031 L 57.78125 71.175781 C 58.101562 71.4375 58.246094 71.835938 58.203125 72.21875 L 57.3125 79.6875 C 57.496094 79.714844 57.683594 79.738281 57.867188 79.753906 C 58.410156 79.808594 58.960938 79.835938 59.511719 79.835938 C 63.542969 79.835938 67.195312 78.195312 69.84375 75.550781 C 72.484375 72.90625 74.117188 69.257812 74.117188 65.222656 Z M 74.117188 65.222656 " fill-opacity="1" fill-rule="nonzero"/></g><g clip-path="url(#d1dc1819cd)"><path fill="#231f20" d="M 66.871094 159.601562 C 68.277344 161.8125 69.84375 163.980469 71.449219 166.027344 L 70.207031 167.03125 C 68.558594 164.941406 66.953125 162.734375 65.507812 160.484375 Z M 53.660156 114.710938 L 52.054688 114.710938 C 52.054688 117.402344 52.175781 120.089844 52.457031 122.742188 L 54.0625 122.582031 C 53.78125 120.011719 53.660156 117.320312 53.660156 114.710938 Z M 53.582031 130.730469 C 54.101562 133.339844 54.746094 135.992188 55.46875 138.5625 L 56.996094 138.121094 C 56.273438 135.589844 55.628906 133.019531 55.148438 130.449219 Z M 87.671875 183.65625 C 89.839844 185.21875 92.128906 186.664062 94.457031 188.03125 L 95.261719 186.625 C 92.972656 185.300781 90.765625 183.855469 88.59375 182.371094 Z M 101.605469 191.683594 C 104.054688 192.808594 106.542969 193.8125 109.074219 194.695312 L 109.597656 193.171875 C 107.105469 192.328125 104.65625 191.324219 102.246094 190.238281 Z M 116.863281 196.945312 C 119.472656 197.585938 122.125 198.070312 124.773438 198.472656 L 125.015625 196.863281 C 122.40625 196.503906 119.796875 195.980469 117.265625 195.378906 Z M 76.671875 172.011719 L 75.503906 173.132812 C 77.351562 175.0625 79.320312 176.949219 81.328125 178.675781 L 82.371094 177.472656 C 80.402344 175.742188 78.476562 173.898438 76.671875 172.011719 Z M 117.023438 33.839844 L 116.664062 32.273438 C 114.054688 32.917969 111.441406 33.679688 108.914062 34.5625 L 109.4375 36.089844 C 111.925781 35.246094 114.496094 34.484375 117.023438 33.839844 Z M 124.574219 30.789062 L 124.816406 32.394531 C 127.425781 32.03125 130.074219 31.753906 132.683594 31.632812 L 132.605469 30.023438 C 129.914062 30.144531 127.222656 30.386719 124.574219 30.789062 Z M 102.128906 39.058594 L 101.445312 37.613281 C 98.996094 38.738281 96.625 39.984375 94.296875 41.308594 L 95.101562 42.714844 C 97.390625 41.347656 99.71875 40.144531 102.128906 39.058594 Z M 221.0625 106.359375 C 220.824219 103.707031 220.421875 101.015625 219.898438 98.367188 L 218.332031 98.6875 C 218.816406 101.257812 219.214844 103.910156 219.457031 106.519531 Z M 55.148438 98.96875 L 53.582031 98.6875 C 53.097656 101.296875 52.699219 103.988281 52.457031 106.679688 L 54.0625 106.839844 C 54.265625 104.191406 54.625 101.539062 55.148438 98.96875 Z M 88.476562 46.96875 L 87.550781 45.644531 C 85.382812 47.210938 83.253906 48.898438 81.207031 50.625 L 82.25 51.828125 C 84.21875 50.140625 86.308594 48.496094 88.476562 46.96875 Z M 59.5625 83.832031 L 58.078125 83.230469 C 57.074219 85.71875 56.191406 88.289062 55.46875 90.859375 L 56.996094 91.300781 C 57.71875 88.769531 58.558594 86.242188 59.5625 83.832031 Z M 76.550781 57.328125 L 75.386719 56.207031 C 73.539062 58.132812 71.769531 60.179688 70.125 62.308594 L 71.371094 63.3125 C 72.976562 61.265625 74.742188 59.257812 76.550781 57.328125 Z M 66.792969 69.777344 L 65.425781 68.894531 C 63.980469 71.144531 62.617188 73.511719 61.410156 75.882812 L 62.855469 76.605469 C 64.019531 74.273438 65.347656 71.984375 66.792969 69.777344 Z M 58.117188 146.191406 C 59.121094 148.679688 60.246094 151.128906 61.492188 153.5 L 62.9375 152.777344 C 61.734375 150.445312 60.609375 148.039062 59.644531 145.589844 Z M 191.1875 177.390625 L 192.234375 178.59375 C 194.242188 176.828125 196.207031 174.980469 198.054688 173.011719 L 196.890625 171.890625 C 195.125 173.816406 193.195312 175.664062 191.1875 177.390625 Z M 207.933594 68.652344 L 206.566406 69.535156 C 208.011719 71.746094 209.339844 74.035156 210.542969 76.363281 L 211.988281 75.640625 C 210.742188 73.269531 209.378906 70.902344 207.933594 68.652344 Z M 197.933594 56.046875 L 196.769531 57.167969 C 198.578125 59.058594 200.34375 61.0625 201.949219 63.152344 L 203.195312 62.148438 C 201.589844 60.019531 199.820312 57.972656 197.933594 56.046875 Z M 210.664062 152.65625 L 212.109375 153.378906 C 213.355469 151.007812 214.476562 148.519531 215.441406 146.03125 L 213.957031 145.429688 C 212.953125 147.917969 211.867188 150.328125 210.664062 152.65625 Z M 202.109375 165.945312 L 203.355469 166.949219 C 205.003906 164.863281 206.566406 162.652344 208.054688 160.40625 L 206.6875 159.523438 C 205.28125 161.730469 203.71875 163.898438 202.109375 165.945312 Z M 219.859375 114.429688 L 219.859375 114.628906 C 219.859375 117.28125 219.738281 119.929688 219.496094 122.539062 L 221.105469 122.699219 C 221.34375 120.050781 221.464844 117.320312 221.464844 114.671875 L 221.464844 114.46875 L 219.859375 114.46875 Z M 216.527344 138 L 218.050781 138.441406 C 218.816406 135.871094 219.457031 133.222656 219.9375 130.609375 L 218.375 130.289062 C 217.890625 132.898438 217.25 135.511719 216.527344 138 Z M 215.363281 82.949219 L 213.875 83.550781 C 214.839844 86 215.722656 88.488281 216.484375 91.019531 L 218.011719 90.578125 C 217.25 88.007812 216.367188 85.4375 215.363281 82.949219 Z M 132.84375 197.628906 L 132.765625 199.234375 C 134.089844 199.316406 135.414062 199.316406 136.742188 199.316406 C 138.105469 199.316406 139.472656 199.273438 140.835938 199.234375 L 140.753906 197.628906 C 138.144531 197.75 135.496094 197.75 132.84375 197.628906 Z M 156.578125 32.234375 L 156.214844 33.800781 C 158.785156 34.402344 161.316406 35.164062 163.804688 36.007812 L 164.324219 34.484375 C 161.796875 33.597656 159.1875 32.835938 156.578125 32.234375 Z M 148.625 196.863281 L 148.867188 198.472656 C 151.515625 198.109375 154.167969 197.585938 156.777344 196.945312 L 156.414062 195.378906 C 153.847656 195.980469 151.234375 196.503906 148.625 196.863281 Z M 185.769531 45.484375 L 184.84375 46.808594 C 186.972656 48.335938 189.0625 49.980469 191.070312 51.707031 L 192.113281 50.503906 C 190.066406 48.738281 187.9375 47.050781 185.769531 45.484375 Z M 140.636719 29.984375 L 140.554688 31.589844 C 143.164062 31.710938 145.816406 31.953125 148.425781 32.3125 L 148.664062 30.707031 C 146.015625 30.347656 143.324219 30.105469 140.636719 29.984375 Z M 178.339844 186.585938 L 179.144531 187.992188 C 181.472656 186.664062 183.71875 185.179688 185.929688 183.613281 L 185.003906 182.289062 C 182.835938 183.816406 180.628906 185.261719 178.339844 186.585938 Z M 163.964844 193.128906 L 164.488281 194.65625 C 167.015625 193.773438 169.546875 192.769531 171.957031 191.644531 L 171.3125 190.199219 C 168.945312 191.285156 166.453125 192.289062 163.964844 193.128906 Z M 171.792969 37.453125 L 171.113281 38.898438 C 173.480469 39.984375 175.851562 41.1875 178.140625 42.511719 L 178.941406 41.109375 C 176.652344 39.824219 174.242188 38.578125 171.792969 37.453125 Z M 171.792969 37.453125 " fill-opacity="1" fill-rule="nonzero"/></g><g clip-path="url(#e0a35d4983)"><path fill="#000000" d="M 142.027344 164.042969 C 140.257812 163.875 138.464844 163.601562 136.691406 163.566406 C 132.054688 163.449219 127.519531 164.332031 122.953125 165.03125 C 121.316406 165.285156 120.53125 166 119.796875 167.414062 C 117.277344 172.246094 114.53125 176.957031 111.871094 181.703125 C 111.699219 182.027344 111.480469 182.4375 111.53125 182.757812 C 111.785156 184.257812 112.144531 185.71875 112.484375 187.335938 C 112.929688 186.996094 113.269531 186.738281 113.609375 186.5 C 115.519531 185.089844 117.890625 185.378906 119.082031 187.183594 C 119.953125 188.476562 119.851562 189.9375 118.792969 191.078125 C 116.59375 193.460938 114.378906 195.84375 112.144531 198.207031 C 111.070312 199.347656 109.246094 199.550781 107.847656 198.734375 C 106.535156 197.96875 105.921875 196.453125 106.398438 194.90625 C 106.605469 194.242188 106.945312 193.597656 107.371094 193.035156 C 108.15625 191.996094 109.058594 191.042969 109.875 190.023438 C 110.082031 189.769531 110.234375 189.328125 110.183594 189.019531 C 109.980469 187.898438 109.6875 186.792969 109.398438 185.683594 C 109.347656 185.480469 109.144531 185.226562 108.9375 185.140625 C 108.171875 184.835938 107.320312 184.664062 106.605469 184.273438 C 105.070312 183.4375 103.601562 182.488281 102.101562 181.585938 C 101.675781 181.328125 101.25 181.109375 100.789062 180.921875 C 99.632812 180.445312 99.324219 179.933594 99.785156 178.777344 C 100.3125 177.46875 100.910156 176.175781 101.539062 174.914062 C 104.082031 169.8125 106.894531 164.859375 110.0625 160.113281 C 110.59375 159.332031 111.207031 158.582031 111.871094 157.882812 C 112.929688 156.761719 113.816406 156.640625 115.042969 157.59375 C 116.695312 158.871094 118.296875 160.25 119.832031 161.679688 C 120.582031 162.375 121.214844 162.699219 122.339844 162.476562 C 126.804688 161.578125 131.324219 160.84375 135.890625 160.828125 C 139.726562 160.8125 143.527344 161.21875 146.90625 163.378906 C 147.738281 163.925781 148.59375 163.566406 149.1875 162.800781 C 151.046875 160.417969 152.921875 158.039062 154.882812 155.722656 C 155.667969 154.789062 156.347656 154.820312 157.285156 155.621094 C 162.675781 160.25 168.042969 164.878906 173.414062 169.503906 C 174.164062 170.152344 174.199219 170.847656 173.480469 171.632812 C 172.085938 173.164062 170.667969 174.695312 169.238281 176.191406 C 168.554688 176.90625 167.992188 177.550781 167.824219 178.640625 C 167.429688 181.261719 166.679688 183.796875 164.90625 185.972656 C 165.417969 186.382812 165.8125 186.808594 166.289062 187.097656 C 168.230469 188.304688 168.519531 190.109375 168.042969 192.097656 C 167.378906 194.890625 165.605469 196.675781 162.828125 197.40625 C 162.316406 197.542969 162.144531 197.765625 162.058594 198.328125 C 161.601562 201.457031 160.339844 204.09375 157.269531 205.523438 C 156.996094 205.640625 156.808594 206.136719 156.777344 206.476562 C 156.640625 208.160156 156.265625 209.761719 155.140625 211.105469 C 154.167969 212.261719 152.90625 212.976562 151.386719 213.042969 C 150.65625 213.078125 150.433594 213.382812 150.261719 214.011719 C 149.511719 216.835938 146.394531 219.253906 143.476562 219.117188 C 142.523438 219.066406 141.464844 218.675781 140.683594 218.128906 C 137.597656 215.96875 134.613281 213.691406 131.578125 211.445312 C 131.511719 211.394531 131.441406 211.359375 131.289062 211.273438 C 130.691406 211.921875 130.113281 212.601562 129.480469 213.230469 C 127.707031 215.015625 124.894531 214.539062 123.804688 212.277344 C 123.292969 211.222656 123.308594 210.203125 124.164062 209.25 C 126.277344 206.851562 128.40625 204.46875 130.402344 201.984375 C 131.679688 200.402344 133.863281 200.589844 134.953125 201.421875 C 136.351562 202.476562 136.796875 204.570312 135.789062 206.035156 C 135.210938 206.882812 134.441406 207.597656 133.761719 208.382812 C 133.554688 208.621094 133.335938 208.859375 133.0625 209.164062 C 133.949219 209.863281 134.75 210.542969 135.601562 211.171875 C 137.835938 212.789062 140.085938 214.371094 142.335938 215.988281 C 143.050781 216.496094 143.785156 216.566406 144.585938 216.242188 C 146.085938 215.664062 147.347656 214.828125 147.84375 213.164062 C 147.980469 212.667969 147.910156 212.3125 147.535156 212.003906 C 144.671875 209.691406 141.808594 207.394531 138.925781 205.097656 C 138.3125 204.621094 137.683594 204.195312 137.75 203.277344 C 137.816406 202.496094 138.328125 202.019531 139.078125 202.238281 C 139.746094 202.425781 140.425781 202.734375 140.972656 203.160156 C 143.410156 205.097656 145.796875 207.089844 148.199219 209.0625 C 148.4375 209.25 148.644531 209.453125 148.882812 209.640625 C 150.722656 211.105469 153.210938 210.269531 153.824219 207.992188 C 153.878906 207.785156 153.929688 207.566406 153.960938 207.359375 C 154.253906 206.050781 154.066406 205.011719 152.835938 204.109375 C 150.125 202.121094 147.535156 199.992188 144.925781 197.882812 C 144.550781 197.578125 144.125 197.203125 144.007812 196.777344 C 143.886719 196.351562 143.957031 195.671875 144.246094 195.382812 C 144.519531 195.109375 145.164062 195.109375 145.644531 195.128906 C 145.933594 195.144531 146.207031 195.433594 146.460938 195.636719 C 149.1875 197.816406 151.917969 200.011719 154.644531 202.1875 C 156.042969 203.3125 156.621094 203.261719 157.765625 201.867188 C 158.71875 200.707031 159.417969 199.414062 159.433594 197.882812 C 159.433594 197.476562 159.214844 196.964844 158.90625 196.691406 C 156.519531 194.652344 154.097656 192.660156 151.710938 190.621094 C 151.234375 190.226562 150.808594 189.75 150.46875 189.242188 C 150.125 188.746094 150.210938 188.101562 150.707031 187.777344 C 151.082031 187.539062 151.710938 187.402344 152.121094 187.558594 C 152.71875 187.777344 153.230469 188.238281 153.722656 188.664062 C 155.90625 190.515625 158.089844 192.390625 160.21875 194.292969 C 161.003906 194.992188 161.789062 195.195312 162.65625 194.652344 C 163.390625 194.191406 164.175781 193.734375 164.703125 193.085938 C 165.980469 191.554688 165.777344 190.125 164.292969 188.832031 C 158.292969 183.574219 152.308594 178.316406 146.289062 173.113281 C 145.933594 172.804688 145.300781 172.617188 144.824219 172.6875 C 142.199219 173.027344 139.574219 173.402344 136.984375 173.859375 C 136.148438 174.015625 135.347656 174.4375 134.527344 174.761719 C 132.089844 175.75 129.855469 175.308594 127.8125 173.808594 C 126.429688 172.804688 126.277344 171.460938 127.503906 170.253906 C 128.644531 169.128906 130.042969 168.261719 131.203125 167.15625 C 132.753906 165.675781 134.613281 165.132812 136.691406 164.980469 C 138.484375 164.84375 140.257812 164.519531 142.046875 164.28125 C 142.027344 164.230469 142.027344 164.144531 142.027344 164.042969 Z M 113.765625 159.757812 C 109.230469 165.796875 105.90625 172.277344 102.648438 178.828125 C 104.675781 180.003906 106.570312 181.109375 108.53125 182.25 C 111.566406 176.734375 114.546875 171.324219 117.515625 165.914062 C 117.820312 165.355469 118.453125 164.707031 118.347656 164.214844 C 118.246094 163.667969 117.480469 163.242188 116.984375 162.785156 C 115.996094 161.816406 114.957031 160.863281 113.765625 159.757812 Z M 170.703125 170.660156 C 170.125 170.1875 169.613281 169.777344 169.136719 169.351562 C 167.019531 167.464844 164.941406 165.539062 162.777344 163.6875 C 160.816406 162 158.769531 160.386719 156.757812 158.769531 C 156.570312 158.617188 156.078125 158.546875 155.972656 158.648438 C 154.609375 160.234375 153.28125 161.847656 151.898438 163.5 C 156.722656 167.480469 161.496094 171.425781 166.320312 175.410156 C 167.804688 173.828125 169.238281 172.277344 170.703125 170.660156 Z M 170.703125 170.660156 " fill-opacity="1" fill-rule="nonzero"/></g><path fill="#000000" d="M 127.625 196.132812 C 129.414062 196.132812 130.878906 197.425781 130.914062 199.160156 C 130.929688 199.722656 130.710938 200.417969 130.351562 200.863281 C 127.828125 203.875 125.253906 206.832031 122.695312 209.8125 C 121.230469 211.511719 119.421875 211.800781 117.890625 210.609375 C 116.269531 209.335938 115.996094 207.171875 117.394531 205.472656 C 119.183594 203.3125 121.09375 201.253906 122.953125 199.144531 C 123.464844 198.566406 123.957031 197.984375 124.488281 197.441406 C 125.457031 196.453125 126.261719 196.132812 127.625 196.132812 Z M 127.625 196.132812 " fill-opacity="1" fill-rule="nonzero"/><path fill="#000000" d="M 114.871094 206 C 112.09375 205.8125 110.457031 203.003906 111.855469 200.539062 C 112.65625 199.109375 113.78125 197.832031 114.871094 196.589844 C 116.269531 194.992188 117.753906 193.460938 119.21875 191.914062 C 120.191406 190.890625 122.066406 190.601562 123.308594 191.265625 C 124.589844 191.945312 125.355469 193.613281 124.964844 195.027344 C 124.863281 195.382812 124.65625 195.722656 124.402344 196.011719 C 121.691406 199.109375 118.980469 202.207031 116.234375 205.269531 C 115.894531 205.625 115.332031 205.761719 114.871094 206 Z M 114.871094 206 " fill-opacity="1" fill-rule="nonzero"/><g clip-path="url(#8219d9bd2e)"><path fill="#100f0d" d="M 187.980469 22.402344 C 189.667969 22.9375 191.328125 23.585938 192.929688 24.328125 C 200.011719 27.609375 206.269531 32.417969 211.257812 38.394531 C 211.472656 38.648438 211.472656 39.007812 211.257812 39.261719 C 206.269531 45.238281 200.011719 50.039062 192.929688 53.328125 C 191.328125 54.070312 189.667969 54.71875 187.980469 55.257812 C 197.117188 48.242188 198.792969 35.195312 191.730469 26.125 C 190.648438 24.730469 189.386719 23.476562 187.980469 22.402344 Z M 162.40625 22.402344 C 153.269531 29.421875 151.597656 42.460938 158.660156 51.53125 C 159.742188 52.925781 161.003906 54.179688 162.40625 55.257812 C 160.714844 54.71875 159.054688 54.070312 157.453125 53.328125 C 150.371094 50.039062 144.121094 45.238281 139.128906 39.261719 C 138.917969 39.007812 138.917969 38.648438 139.128906 38.394531 C 144.121094 32.417969 150.371094 27.617188 157.453125 24.328125 C 159.054688 23.585938 160.714844 22.9375 162.40625 22.40625 Z M 174.882812 20.203125 C 185.117188 20.03125 193.535156 28.132812 193.710938 38.292969 C 193.710938 38.472656 193.710938 38.65625 193.710938 38.832031 C 193.84375 48.992188 185.664062 57.339844 175.4375 57.476562 C 165.203125 57.605469 156.800781 49.476562 156.671875 39.316406 C 156.671875 39.152344 156.671875 38.988281 156.671875 38.832031 C 156.539062 28.691406 164.683594 20.363281 174.882812 20.203125 Z M 176.835938 18.078125 C 169.8125 17.816406 162.820312 19.226562 156.453125 22.183594 C 149.054688 25.621094 142.507812 30.640625 137.300781 36.882812 C 136.359375 38.015625 136.359375 39.648438 137.300781 40.773438 C 142.507812 47.015625 149.054688 52.035156 156.453125 55.472656 C 168.328125 60.988281 182.066406 60.988281 193.953125 55.472656 C 201.339844 52.035156 207.886719 47.015625 213.097656 40.773438 C 214.035156 39.648438 214.035156 38.015625 213.097656 36.882812 C 207.886719 30.640625 201.339844 25.621094 193.953125 22.183594 C 188.578125 19.691406 182.757812 18.292969 176.835938 18.078125 " fill-opacity="1" fill-rule="nonzero"/></g><path fill="#100f0d" d="M 182.21875 38.832031 C 182.292969 34.976562 179.222656 31.789062 175.34375 31.710938 C 171.460938 31.628906 168.253906 34.683594 168.171875 38.539062 C 168.171875 38.632812 168.171875 38.730469 168.171875 38.832031 C 168.089844 42.679688 171.167969 45.871094 175.046875 45.949219 C 178.925781 46.027344 182.136719 42.972656 182.21875 39.117188 C 182.21875 39.023438 182.21875 38.925781 182.21875 38.832031 " fill-opacity="1" fill-rule="nonzero"/><path fill="#100f0d" d="M 150.390625 14.644531 L 155.140625 18.582031 C 155.65625 18.988281 156.402344 18.90625 156.816406 18.398438 C 157.210938 17.90625 157.148438 17.183594 156.664062 16.761719 L 151.914062 12.828125 C 151.398438 12.417969 150.652344 12.5 150.242188 13.011719 C 149.835938 13.507812 149.90625 14.230469 150.390625 14.644531 " fill-opacity="1" fill-rule="nonzero"/><path fill="#100f0d" d="M 198.46875 12.828125 L 193.710938 16.761719 C 193.210938 17.183594 193.144531 17.933594 193.5625 18.429688 C 193.992188 18.933594 194.742188 19.003906 195.246094 18.582031 L 199.996094 14.644531 C 200.492188 14.214844 200.554688 13.46875 200.113281 12.976562 C 199.695312 12.492188 198.976562 12.433594 198.46875 12.828125 " fill-opacity="1" fill-rule="nonzero"/><path fill="#100f0d" d="M 174.003906 7.261719 L 174.003906 13.40625 C 174.027344 14.058594 174.582031 14.570312 175.238281 14.542969 C 175.863281 14.515625 176.355469 14.023438 176.382812 13.40625 L 176.382812 7.261719 C 176.355469 6.609375 175.808594 6.097656 175.144531 6.125 C 174.527344 6.152344 174.027344 6.644531 174.003906 7.261719 " fill-opacity="1" fill-rule="nonzero"/></svg>